<?xml version="1.0" encoding="utf-8"?>
<!-- Generator: Adobe Illustrator 21.0.0, SVG Export Plug-In . SVG Version: 6.00 Build 0)  -->
<svg version="1.1" id="Layer_1" xmlns="http://www.w3.org/2000/svg" xmlns:xlink="http://www.w3.org/1999/xlink" x="0px" y="0px"
	 viewBox="0 0 158.8 45" style="enable-background:new 0 0 158.8 45;" xml:space="preserve">
<style type="text/css">
	.st0{fill:#9E89C0;}
</style>
<g>
	<path class="st0" d="M56.6,26.7h-7L48.2,30c-0.1,0.4-0.4,0.5-0.7,0.5c-0.2,0-0.4-0.1-0.5-0.2c-0.2-0.1-0.2-0.3-0.2-0.5
		c0-0.1,0-0.2,0.1-0.3l4.8-11.8c0.2-0.5,0.4-0.8,0.6-1c0.2-0.2,0.5-0.3,0.8-0.3s0.6,0.1,0.8,0.3s0.4,0.5,0.6,1l4.8,11.8
		c0,0.1,0.1,0.2,0.1,0.3c0,0.2-0.1,0.4-0.2,0.5c-0.1,0.1-0.3,0.2-0.5,0.2c-0.4,0-0.6-0.2-0.7-0.5L56.6,26.7z M53.1,17.9l-3,7.7h6.1
		L53.1,17.9z"/>
	<path class="st0" d="M62.6,28.9c-0.1-0.1-0.1-0.1-0.1-0.2c0-0.2,0.1-0.3,0.3-0.5C63,28,63.1,28,63.3,28c0.1,0,0.2,0,0.2,0.1
		c0.4,0.4,1,0.7,1.6,0.9c0.6,0.3,1.3,0.4,2.1,0.4c1,0,1.8-0.2,2.4-0.6c0.6-0.4,0.9-1,0.9-1.9c0-0.4,0-0.7-0.1-1
		c-0.1-0.3-0.3-0.5-0.5-0.7c-0.2-0.2-0.5-0.4-0.8-0.5s-0.7-0.3-1.1-0.4l-2.5-0.8c-1-0.3-1.7-0.7-2.3-1.3c-0.5-0.5-0.8-1.2-0.8-2.1
		c0-0.7,0.2-1.3,0.6-1.9c0.4-0.5,1-1,1.7-1.2c0.7-0.3,1.5-0.4,2.4-0.4s1.7,0.2,2.5,0.5c0.8,0.3,1.4,0.7,1.8,1
		c0.1,0.1,0.2,0.3,0.2,0.4c0,0.2-0.1,0.3-0.2,0.4c-0.1,0.1-0.3,0.2-0.4,0.2c-0.1,0-0.3,0-0.4-0.1c-0.4-0.3-0.8-0.5-1.4-0.8
		c-0.6-0.2-1.3-0.4-2-0.4c-1,0-1.8,0.2-2.4,0.6c-0.6,0.4-0.9,1-0.9,1.6s0.2,1,0.5,1.3c0.4,0.3,0.9,0.6,1.7,0.9l2.5,0.8
		c0.5,0.2,1,0.4,1.3,0.5c0.4,0.2,0.7,0.4,1,0.7c0.3,0.3,0.6,0.6,0.7,1c0.2,0.4,0.2,0.8,0.2,1.3c0,1.3-0.4,2.3-1.3,3s-2.1,1-3.8,1
		C65.3,30.7,63.8,30.1,62.6,28.9z"/>
	<path class="st0" d="M76,28.9c-0.1-0.1-0.1-0.1-0.1-0.2c0-0.2,0.1-0.3,0.3-0.5c0.2-0.2,0.3-0.2,0.5-0.2c0.1,0,0.2,0,0.2,0.1
		c0.4,0.4,1,0.7,1.6,0.9c0.6,0.3,1.3,0.4,2.1,0.4c1,0,1.8-0.2,2.4-0.6c0.6-0.4,0.9-1,0.9-1.9c0-0.4,0-0.7-0.1-1
		c-0.1-0.3-0.3-0.5-0.5-0.7c-0.2-0.2-0.5-0.4-0.8-0.5c-0.3-0.1-0.7-0.3-1.1-0.4l-2.5-0.8c-1-0.3-1.7-0.7-2.3-1.3
		c-0.5-0.5-0.8-1.2-0.8-2.1c0-0.7,0.2-1.3,0.6-1.9c0.4-0.5,1-1,1.7-1.2c0.7-0.3,1.5-0.4,2.4-0.4s1.7,0.2,2.5,0.5
		c0.8,0.3,1.4,0.7,1.8,1c0.1,0.1,0.2,0.3,0.2,0.4c0,0.2-0.1,0.3-0.2,0.4c-0.1,0.1-0.3,0.2-0.4,0.2c-0.1,0-0.3,0-0.4-0.1
		c-0.4-0.3-0.8-0.5-1.4-0.8c-0.6-0.2-1.3-0.4-2-0.4c-1,0-1.8,0.2-2.4,0.6c-0.6,0.4-0.9,1-0.9,1.6s0.2,1,0.5,1.3
		c0.4,0.3,0.9,0.6,1.7,0.9l2.5,0.8c0.5,0.2,1,0.4,1.3,0.5c0.4,0.2,0.7,0.4,1,0.7c0.3,0.3,0.6,0.6,0.7,1c0.2,0.4,0.2,0.8,0.2,1.3
		c0,1.3-0.4,2.3-1.3,3s-2.1,1-3.8,1C78.7,30.7,77.2,30.1,76,28.9z"/>
	<path class="st0" d="M89.8,30.3c-0.2-0.2-0.2-0.3-0.2-0.5V17.2c0-0.2,0.1-0.4,0.2-0.5c0.1-0.2,0.3-0.2,0.5-0.2h7.3
		c0.2,0,0.4,0.1,0.5,0.2c0.1,0.1,0.2,0.3,0.2,0.4c0,0.2-0.1,0.3-0.2,0.4c-0.1,0.1-0.3,0.2-0.5,0.2h-6.5v4.9h6.2
		c0.2,0,0.4,0.1,0.5,0.2c0.1,0.1,0.2,0.3,0.2,0.4c0,0.2-0.1,0.3-0.2,0.4c-0.1,0.1-0.3,0.2-0.5,0.2h-6.2v5.3h6.8
		c0.2,0,0.4,0.1,0.5,0.2s0.2,0.3,0.2,0.4c0,0.2-0.1,0.3-0.2,0.4c-0.1,0.1-0.3,0.2-0.5,0.2h-7.5C90.2,30.5,90,30.4,89.8,30.3z"/>
	<path class="st0" d="M109.7,30c-0.2-0.1-0.3-0.3-0.4-0.5l-5.1-11.1v11.6c0,0.2-0.1,0.3-0.2,0.4c-0.1,0.1-0.3,0.2-0.5,0.2
		c-0.2,0-0.4-0.1-0.5-0.2c-0.1-0.1-0.2-0.2-0.2-0.4V17.6c0-0.3,0.1-0.6,0.4-0.8c0.2-0.2,0.5-0.3,0.8-0.3c0.6,0,1,0.3,1.3,1l5,10.9
		l5-10.9c0.3-0.6,0.7-1,1.3-1c0.3,0,0.6,0.1,0.8,0.3c0.2,0.2,0.4,0.5,0.4,0.8v12.3c0,0.2-0.1,0.3-0.2,0.4c-0.1,0.1-0.3,0.2-0.5,0.2
		c-0.2,0-0.4-0.1-0.5-0.2c-0.1-0.1-0.2-0.2-0.2-0.4V18.3l-5.1,11.1c-0.1,0.2-0.2,0.4-0.4,0.5c-0.2,0.1-0.3,0.2-0.5,0.2
		C110,30.2,109.8,30.1,109.7,30z"/>
	<path class="st0" d="M122.5,30.3c-0.2-0.1-0.2-0.3-0.2-0.5V17.2c0-0.2,0.1-0.4,0.2-0.5c0.2-0.1,0.3-0.2,0.6-0.2h3.8
		c3.3,0,4.9,1.2,4.9,3.6c0,0.8-0.3,1.5-0.8,2.1c-0.5,0.6-1.2,0.9-2.1,1l0,0c1.1,0.1,1.9,0.4,2.5,1c0.6,0.6,0.9,1.4,0.9,2.5
		c0,0.5-0.1,0.9-0.3,1.4c-0.2,0.4-0.4,0.8-0.8,1.2c-0.4,0.4-0.8,0.6-1.4,0.8c-0.6,0.2-1.3,0.3-2.1,0.3h-4.6
		C122.8,30.5,122.6,30.4,122.5,30.3z M126.7,22.6c1.1,0,2-0.2,2.5-0.6c0.6-0.4,0.8-1.1,0.8-1.9c0-0.4-0.1-0.7-0.2-1
		c-0.1-0.3-0.3-0.5-0.5-0.7c-0.2-0.2-0.4-0.3-0.7-0.4c-0.3-0.1-0.6-0.2-0.9-0.2c-0.3,0-0.6,0-1,0h-3v5L126.7,22.6L126.7,22.6z
		 M127.2,29.3c1.1,0,2-0.2,2.5-0.6c0.5-0.4,0.8-1.1,0.8-2.1c0-0.9-0.3-1.6-1-2c-0.6-0.4-1.6-0.6-3-0.6h-2.8v5.4L127.2,29.3z"/>
	<path class="st0" d="M136,30.3c-0.2-0.1-0.2-0.3-0.2-0.5V17.2c0-0.2,0.1-0.4,0.2-0.5c0.2-0.1,0.3-0.2,0.6-0.2
		c0.2,0,0.4,0.1,0.5,0.2c0.2,0.1,0.2,0.3,0.2,0.5v12.1h6.5c0.2,0,0.4,0.1,0.5,0.2s0.2,0.3,0.2,0.4c0,0.2-0.1,0.3-0.2,0.4
		c-0.1,0.1-0.3,0.2-0.5,0.2h-7.2C136.3,30.5,136.1,30.4,136,30.3z"/>
	<path class="st0" d="M156,26.7h-7l-1.3,3.3c-0.1,0.4-0.4,0.5-0.7,0.5c-0.2,0-0.4-0.1-0.5-0.2c-0.2-0.1-0.2-0.3-0.2-0.5
		c0-0.1,0-0.2,0.1-0.3l4.8-11.8c0.2-0.5,0.4-0.8,0.6-1c0.2-0.2,0.5-0.3,0.8-0.3s0.6,0.1,0.8,0.3s0.4,0.5,0.6,1l4.8,11.8
		c0,0.1,0.1,0.2,0.1,0.3c0,0.2-0.1,0.4-0.2,0.5c-0.1,0.1-0.3,0.2-0.5,0.2c-0.4,0-0.6-0.2-0.7-0.5L156,26.7z M152.5,17.9l-3,7.7h6.1
		L152.5,17.9z"/>
	<path class="st0" d="M36.8,8.4L24,0.9C23,0.3,21.6,0,20.1,0c-1.4,0-2.8,0.3-3.9,0.9L3.7,8.4C1.5,9.6,0,12.6,0,15V30
		c0,2.5,1.5,5.4,3.7,6.6l12.7,7.5c1,0.6,2.3,0.9,3.8,0.9s2.8-0.3,3.8-0.9l12.8-7.5c2-1.2,3.9-4.3,3.9-6.6V15
		C40.6,12.6,38.9,9.6,36.8,8.4z M29.4,30c-0.1,0.1-0.3,0.1-0.4,0.1c-0.3,0-0.6-0.2-0.8-0.5l-5.1-10.2L18,29.5
		c-0.2,0.3-0.5,0.5-0.8,0.5c-0.1,0-0.3,0-0.4-0.1c-0.4-0.2-0.6-0.7-0.4-1.2l5.7-11.4l-1.9-3.9l-8,16.1c-0.2,0.4-0.7,0.6-1.2,0.4
		c-0.4-0.2-0.6-0.7-0.4-1.2L19.3,11c0.1-0.3,0.4-0.5,0.8-0.5c0.4,0,0.6,0.2,0.8,0.5l2.1,4.3l1,1.9l5.7,11.5
		C30,29.3,29.8,29.8,29.4,30z"/>
</g>
</svg>
