<?xml version="1.0" encoding="utf-8"?>
<!-- Generator: Adobe Illustrator 21.0.0, SVG Export Plug-In . SVG Version: 6.00 Build 0)  -->
<svg version="1.1" id="Layer_1" xmlns="http://www.w3.org/2000/svg" xmlns:xlink="http://www.w3.org/1999/xlink" x="0px" y="0px"
	 viewBox="0 0 60 60" style="enable-background:new 0 0 60 60;" xml:space="preserve">
<style type="text/css">
	.st0{fill:#05BBD3;}
	.st1{fill:#FFFFFF;}
</style>
<circle class="st0" cx="30.1" cy="30.3" r="30"/>
<g>
	<path class="st1" d="M16.5,38.3c0-0.4-0.3-0.7-0.7-0.7h-3c-0.4,0-0.7,0.3-0.7,0.7v7.4c0,0.4,0.3,0.7,0.7,0.7h3
		c0.4,0,0.7-0.3,0.7-0.7V38.3z"/>
	<path class="st1" d="M31.3,20.4c0-0.5-0.3-0.9-0.7-0.9h-3c-0.4,0-0.7,0.4-0.7,0.9v25.2c0,0.5,0.3,0.9,0.7,0.9h3
		c0.4,0,0.7-0.4,0.7-0.9V20.4z"/>
	<path class="st1" d="M38.7,13.8c0-0.4-0.3-0.7-0.7-0.7h-3c-0.4,0-0.7,0.3-0.7,0.7v32c0,0.4,0.3,0.7,0.7,0.7h3
		c0.4,0,0.7-0.3,0.7-0.7V13.8z"/>
	<path class="st1" d="M46.1,10.4c0-0.7-0.3-1.2-0.7-1.2h-3c-0.4,0-0.7,0.6-0.7,1.2v34.9c0,0.7,0.3,1.2,0.7,1.2h3
		c0.4,0,0.7-0.6,0.7-1.2V10.4z"/>
	<path class="st1" d="M23.9,26.1c0-0.3-0.3-0.6-0.7-0.6h-3c-0.4,0-0.7,0.3-0.7,0.6v19.8c0,0.3,0.3,0.6,0.7,0.6h3
		c0.4,0,0.7-0.3,0.7-0.6V26.1z"/>
</g>
</svg>
