<?xml version="1.0" encoding="utf-8"?>
<!-- Generator: Adobe Illustrator 21.0.0, SVG Export Plug-In . SVG Version: 6.00 Build 0)  -->
<svg version="1.1" id="Layer_1" xmlns="http://www.w3.org/2000/svg" xmlns:xlink="http://www.w3.org/1999/xlink" x="0px" y="0px"
	 viewBox="0 0 60 60" style="enable-background:new 0 0 60 60;" xml:space="preserve">
<style type="text/css">
	.st0{fill:#478ECC;}
	.st1{fill:#FFFFFF;}
</style>
<circle class="st0" cx="30" cy="30" r="30"/>
<path class="st1" d="M45.4,21.2c-2.3-0.3-4.5-0.4-6.7-0.4c-3.1,0-6,0.3-8.7,0.5c-2.7,0.3-5.6,0.5-8.6,0.5c-2.2,0-4.4-0.1-6.6-0.4
	c-0.2,0-0.4,0-0.5,0.2c-0.1,0.1-0.2,0.3-0.2,0.5v16c0,0.3,0.3,0.6,0.6,0.7c2.3,0.3,4.5,0.4,6.8,0.4c3.1,0,6-0.3,8.7-0.5
	c2.7-0.3,5.6-0.5,8.6-0.5c2.2,0,4.4,0.1,6.6,0.4c0.2,0,0.4,0,0.5-0.2c0.1-0.1,0.2-0.3,0.2-0.5v-16C46,21.6,45.8,21.3,45.4,21.2z
	 M21.4,36.5c-1.4,0-2.7-0.1-4.1-0.2c-0.4,0-0.6-0.4-0.6-0.7c0-0.4,0.3-0.6,0.7-0.6c1.4,0.1,2.7,0.2,4,0.2c0.4,0,0.7,0.3,0.7,0.7
	C22.1,36.2,21.8,36.5,21.4,36.5z M30,32.9v0.6h0c0,0-0.1,0.4-0.2,0.5c-0.1,0.1-0.3,0.2-0.5,0.2c-0.2,0-0.3-0.1-0.5-0.2
	c-0.1-0.1-0.2-0.3-0.2-0.5c0,0,0-0.1,0-0.1v-0.5c-0.7-0.2-1.5-0.9-1.5-1.8c0-0.4,0.3-0.7,0.7-0.7c0.4,0,0.7,0.3,0.7,0.7
	c0,0.5,0.5,0.6,0.9,0.6c0.3,0,0.9-0.1,0.9-0.6c0-0.3,0-0.4-0.9-0.8L28.8,30c-0.9-0.4-1.7-0.8-1.7-2c0-0.9,0.8-1.6,1.5-1.9v-0.5
	c0,0,0-0.1,0-0.1c0-0.2,0.1-0.3,0.2-0.5c0.2-0.3,0.7-0.3,0.9,0c0.1,0.1,0.2,0.5,0.2,0.5h0v0.6c0.7,0.2,1.5,0.9,1.5,1.9
	c0,0.4-0.3,0.7-0.7,0.7c-0.4,0-0.7-0.3-0.7-0.7c0-0.5-0.5-0.6-0.8-0.6c-0.3,0-0.9,0.1-0.9,0.6c0,0.3,0,0.4,0.9,0.8l0.5,0.2
	c0.9,0.4,1.6,0.8,1.6,2C31.6,31.9,30.7,32.6,30,32.9z M42.7,25C42.6,25,42.6,25,42.7,25c-1.4-0.1-2.7-0.2-4.1-0.2
	c-0.4,0-0.7-0.3-0.7-0.7c0-0.4,0.3-0.7,0.7-0.7c1.4,0,2.7,0.1,4.1,0.2c0.4,0,0.6,0.4,0.6,0.7C43.3,24.7,43,25,42.7,25z"/>
</svg>
