<?xml version="1.0" encoding="utf-8"?>
<!-- Generator: Adobe Illustrator 21.0.0, SVG Export Plug-In . SVG Version: 6.00 Build 0)  -->
<svg version="1.1" id="Layer_1" xmlns="http://www.w3.org/2000/svg" xmlns:xlink="http://www.w3.org/1999/xlink" x="0px" y="0px"
	 viewBox="0 0 60 60" style="enable-background:new 0 0 60 60;" xml:space="preserve">
<style type="text/css">
	.st0{fill:#009588;}
	.st1{fill:#FFFFFF;}
</style>
<circle class="st0" cx="30.1" cy="30.7" r="30"/>
<g>
	<path class="st1" d="M23.7,20.7c-0.4,0-0.6,0.3-0.6,0.6s0.3,0.6,0.6,0.6h12.8c0.4,0,0.6-0.3,0.6-0.6s-0.3-0.6-0.6-0.6H23.7z"/>
	<path class="st1" d="M26.2,19.4h2.6c0,0,0,0,0,0c0.4,0,0.6-0.3,0.6-0.6c0-0.1,0-0.2-0.1-0.3c-0.9-4-3.3-5.4-5.3-5.4
		c-1.7,0-3.1,0.9-3.6,2.3c-0.2,0.6-0.2,1.2,0.2,1.8C21.7,18.9,25.7,19.4,26.2,19.4z"/>
	<path class="st1" d="M31.3,19.4h2.6c0,0,0,0,0.1,0c0.4,0,4.4-0.5,5.5-2.3c0.3-0.5,0.4-1.2,0.2-1.8c-0.5-1.3-2-2.3-3.6-2.3
		c-2,0-4.5,1.5-5.3,5.6c0,0.2,0,0.4,0.1,0.5C30.9,19.3,31.1,19.4,31.3,19.4z"/>
	<path class="st1" d="M44.2,40.6c-1-4-7.2-16.4-7.5-16.9l-0.2-0.4H23.6l-0.2,0.4c-0.3,0.5-6.5,12.9-7.5,16.9c-0.1,0.3,0,0.7,0,0.9
		c0,1.4,1.6,2.4,2.9,2.4h22.5c1.4,0,2.9-1,2.9-2.3C44.2,41.3,44.3,40.8,44.2,40.6z M30.7,39.2V40c0,0.4-0.3,0.6-0.6,0.6
		s-0.6-0.3-0.6-0.6v-0.8c-1.9-0.2-2.7-1.3-2.7-2.9c0-0.4,0.3-0.6,0.7-0.6c0.4,0,0.6,0.3,0.6,0.6c0,1.5,1.6,1.7,2.1,1.7
		c0.5,0,2.1-0.1,2.1-1.7c0-1-0.4-1.2-2-2l-0.9-0.4c-1.5-0.8-2.7-1.3-2.7-3.1c0-1.6,0.8-2.7,2.7-2.9v-0.8c0-0.4,0.3-0.6,0.6-0.6
		s0.6,0.3,0.6,0.6v0.8c1.9,0.2,2.7,1.3,2.7,2.9c0,0.4-0.3,0.6-0.6,0.6c-0.4,0-0.6-0.3-0.6-0.6c0-1.6-1.6-1.7-2.1-1.7
		c-1,0-2.1,0.4-2.1,1.7c0,1,0.4,1.2,2,2l0.9,0.4c1.5,0.8,2.6,1.3,2.6,3.1C33.5,37.9,32.7,39,30.7,39.2z"/>
</g>
</svg>
