<?xml version="1.0" encoding="utf-8"?>
<!-- Generator: Adobe Illustrator 21.0.0, SVG Export Plug-In . SVG Version: 6.00 Build 0)  -->
<svg version="1.1" id="Layer_1" xmlns="http://www.w3.org/2000/svg" xmlns:xlink="http://www.w3.org/1999/xlink" x="0px" y="0px"
	 viewBox="0 0 60 60" style="enable-background:new 0 0 60 60;" xml:space="preserve">
<style type="text/css">
	.st0{fill:#E71E63;}
	.st1{fill:#FFFFFF;}
</style>
<circle class="st0" cx="30.1" cy="29.9" r="30"/>
<g>
	<path class="st1" d="M42.2,47.4H18c-0.3,0-0.6-0.2-0.8-0.4c-0.2-0.3-0.2-0.6,0-0.9l7.7-12.8v-8.4h-1.7c-0.5,0-0.9-0.4-0.9-0.9
		c0-0.5,0.4-0.9,0.9-0.9h2.6c0.5,0,0.9,0.4,0.9,0.9v9.5c0,0.2,0,0.3-0.1,0.4l-7,11.7h21.2l-7-11.7c-0.1-0.1-0.1-0.3-0.1-0.4v-9.5
		c0-0.5,0.4-0.9,0.9-0.9H37c0.5,0,0.9,0.4,0.9,0.9c0,0.5-0.4,0.9-0.9,0.9h-1.7v8.4l7.7,12.8c0.2,0.3,0.2,0.6,0,0.9
		C42.8,47.3,42.5,47.4,42.2,47.4z"/>
	<path class="st1" d="M36.1,44h-12c-0.3,0-0.6-0.2-0.8-0.4c-0.2-0.3-0.2-0.6,0-0.9l5-8.3v-1.6c0-0.5,0.4-0.9,0.9-0.9H31
		c0.5,0,0.9,0.4,0.9,0.9v1.6l5,8.4c0.2,0.3,0.2,0.6,0,0.9C36.7,43.8,36.4,44,36.1,44z"/>
	<path class="st1" d="M33.5,22.4c-1.4,0-2.6-1.2-2.6-2.6s1.2-2.6,2.6-2.6c1.4,0,2.6,1.2,2.6,2.6S35,22.4,33.5,22.4z"/>
	<path class="st1" d="M30.1,15.4c-1.4,0-2.6-1.2-2.6-2.6s1.2-2.6,2.6-2.6c1.4,0,2.6,1.2,2.6,2.6S31.5,15.4,30.1,15.4z"/>
	<path class="st1" d="M37,12c-1.4,0-2.6-1.2-2.6-2.6s1.2-2.6,2.6-2.6c1.4,0,2.6,1.2,2.6,2.6S38.4,12,37,12z"/>
</g>
</svg>
