<?xml version="1.0" encoding="utf-8"?>
<!-- Generator: Adobe Illustrator 21.0.0, SVG Export Plug-In . SVG Version: 6.00 Build 0)  -->
<svg version="1.1" id="Layer_1" xmlns="http://www.w3.org/2000/svg" xmlns:xlink="http://www.w3.org/1999/xlink" x="0px" y="0px"
	 viewBox="0 0 60 60" style="enable-background:new 0 0 60 60;" xml:space="preserve">
<style type="text/css">
	.st0{fill:#4554A4;}
	.st1{fill:#FFFFFF;}
</style>
<circle class="st0" cx="30.1" cy="30.5" r="30"/>
<g>
	<path class="st1" d="M34.8,36.4c-1.3,1.7-3.4,2.9-5.5,2.9h-0.2c-2.2,0-4.2-1.1-5.5-2.9c-4.3,0.3-7.5,3.6-7.5,8
		c0,0.4,0.3,0.7,0.7,0.7h25c0.4,0,0.7-0.3,0.7-0.7C42.6,40,39.3,36.6,34.8,36.4z"/>
	<path class="st1" d="M47.7,25.2c-0.2-1.9-2.2-3.4-4.4-3.4h-1.4c1.4-1.5,2.2-4.6,2.2-5.9c0-2-1.6-3.7-3.7-3.7c-2,0-3.7,1.6-3.7,3.7
		c0,1.3,0.8,4.4,2.2,5.9h-1.4c0,0-0.1,0-0.1,0c0,0.5,0.1,0.9,0.1,1.5v1.7c0.7,0.4,0.8,0.5,1.1,1.2h8.5c0,0,0,0,0,0
		c0.4,0,0.7-0.3,0.7-0.7C47.7,25.3,47.7,25.2,47.7,25.2z"/>
	<path class="st1" d="M21.3,24.7v-1c0-0.7,0.1-1.2,0.3-1.9h-0.2c0.1,0,0.2-0.3,0.4-0.4c0.2-0.6,0.5-1.2,0.9-1.7
		c0.6-1.4,0.9-3,0.9-3.7c0-2-1.6-3.7-3.7-3.7c-2,0-3.7,1.6-3.7,3.7c0,1.3,0.8,4.4,2.2,5.9h-1.4c-2.4,0-4.4,1.7-4.4,3.7
		c0,0.4,0.3,0.7,0.7,0.7h6.9C20.4,25.4,20.5,25,21.3,24.7z"/>
	<path class="st1" d="M22.7,25.5c-0.7,0.3-1.5,1.1-1.5,2.1v1.5c0,1.4,0.9,3,2.2,3.4c0.3,2.9,2.8,5.4,5.6,5.4h0.2
		c2.8,0,5.3-2.4,5.6-5.4c1.4-0.4,2.4-2.1,2.4-3.4v-1.5c0-0.9-0.7-1.6-1.5-1.9v-2.5c0-3.7-1.3-5.5-3.8-5.5c-1.4,0-3,0.6-4.6,1.2
		c-0.4,0.2-0.8,0.3-1.2,0.5c-2.1,0.1-3.5,1.8-3.5,4.3V25.5z"/>
</g>
</svg>
