<?xml version="1.0" encoding="utf-8"?>
<!-- Generator: Adobe Illustrator 21.0.0, SVG Export Plug-In . SVG Version: 6.00 Build 0)  -->
<svg version="1.1" id="Layer_1" xmlns="http://www.w3.org/2000/svg" xmlns:xlink="http://www.w3.org/1999/xlink" x="0px" y="0px"
	 viewBox="0 0 60 60" style="enable-background:new 0 0 60 60;" xml:space="preserve">
<style type="text/css">
	.st0{fill:#EE4338;}
	.st1{fill:#FFFFFF;}
</style>
<circle class="st0" cx="30.1" cy="30.1" r="30"/>
<g>
	<g>
		<path class="st1" d="M30.1,22.3c4.8,0,8.9-1.7,9.9-3.9c-0.6-2.8-4.7-4.8-9.9-4.8c-5.1,0-9.2,2.1-9.9,4.9
			C21.2,20.6,25.3,22.3,30.1,22.3z"/>
		<path class="st1" d="M30.1,24c-4.3,0-8.4-1.2-10-3.1v10c0,3.3,4.3,5.9,10,5.9c6,0,10-2.1,10-5.3V21C38.4,22.8,34.3,24,30.1,24z"/>
	</g>
	<path class="st1" d="M41.7,26.7v4.8c0,4.2-4.6,6.9-11.6,6.9c-6.7,0-11.6-3.2-11.6-7.5v-4.2c-5,1.8-7.4,4.6-7.4,7.6
		c0,5.4,8.4,9.6,19.1,9.6c10.7,0,19.1-4.2,19.1-9.6C49.2,31.3,46.7,28.5,41.7,26.7z"/>
</g>
</svg>
