<?xml version="1.0" encoding="utf-8"?>
<!-- Generator: Adobe Illustrator 21.0.0, SVG Export Plug-In . SVG Version: 6.00 Build 0)  -->
<svg version="1.1" id="Layer_1" xmlns="http://www.w3.org/2000/svg" xmlns:xlink="http://www.w3.org/1999/xlink" x="0px" y="0px"
	 viewBox="0 0 157 46.7" style="enable-background:new 0 0 157 46.7;" xml:space="preserve">
<style type="text/css">
	.st0{fill:#29342C;}
	.st1{fill:#47B549;}
</style>
<g>
	<path class="st0" d="M9.4,20.4c3.2,0,5.3,1.5,6.1,2.2c0.3,0.3,0.3,0.5,0,0.9l-0.2,0.3c-0.3,0.3-0.5,0.3-0.9,0.1
		c-0.8-0.7-2.6-1.9-5.1-1.9c-4.3,0-7.8,3.2-7.8,8.1c0,4.8,3.5,8,7.8,8c2.9,0,4.8-1.3,5.6-2.1c0.3-0.3,0.6-0.3,0.8,0.1l0.2,0.3
		c0.2,0.3,0.1,0.6-0.1,0.8c-0.8,0.8-3,2.4-6.5,2.4C4.3,39.5,0,35.7,0,30C0,24.2,4.3,20.4,9.4,20.4"/>
	<path class="st0" d="M20.7,14.2c0-0.4,0.2-0.6,0.6-0.6h0.3c0.4,0,0.6,0.2,0.6,0.6V24c0,0.8-0.1,1.5-0.1,1.5h0.1
		c0.6-1.7,3.2-5.1,7.7-5.1c4.7,0,6,2.8,6,7.1v10.9c0,0.4-0.2,0.6-0.6,0.6H35c-0.4,0-0.6-0.2-0.6-0.6V28c0-3.2-0.4-6.1-4.5-6.1
		c-4.1,0-7.6,3.4-7.6,8.2v8.3c0,0.4-0.2,0.6-0.6,0.6h-0.3c-0.4,0-0.6-0.2-0.6-0.6V14.2z"/>
	<path class="st0" d="M51.4,27.9h1.2v-0.6c0-4-2.1-5.4-5-5.4c-2.2,0-3.9,0.9-4.7,1.4c-0.3,0.2-0.6,0.2-0.9-0.1l-0.1-0.2
		c-0.3-0.3-0.2-0.7,0.1-0.9c0.8-0.6,2.8-1.6,5.7-1.6c4.2,0,6.4,2.3,6.4,6.9v11.1c0,0.4-0.2,0.6-0.6,0.6h-0.3c-0.4,0-0.6-0.2-0.6-0.6
		v-1.8c0-1,0.1-1.6,0.1-1.6h-0.1c0,0-1.6,4.5-6.4,4.5c-2.9,0-6.2-1.6-6.2-5.3C40.1,28,48.1,27.9,51.4,27.9 M46.3,38
		c4,0,6.2-4.1,6.2-7.7v-1h-1.2c-3.1,0-9.7,0-9.7,4.7C41.7,36,43.3,38,46.3,38"/>
	<path class="st0" d="M60,21.4c0-0.4,0.2-0.6,0.6-0.6h0.3c0.4,0,0.6,0.2,0.6,0.6v2.8c0,0.8-0.1,1.5-0.1,1.5h0.1
		c0.9-2.8,3.1-5.1,6.1-5.1c0.5,0,0.8,0.2,0.8,0.6v0.3c0,0.4-0.3,0.6-0.8,0.6c-4.1,0-6,4.8-6,8.9v7.2c0,0.4-0.2,0.6-0.6,0.6h-0.3
		c-0.4,0-0.6-0.2-0.6-0.6V21.4z"/>
	<path class="st0" d="M72.9,44.1c0.8,0.4,2.3,1,4.5,1c3.7,0,6.8-1.9,6.8-6.3v-2.1c0-0.8,0.1-1.5,0.1-1.5h-0.1
		c-1.1,2.2-3.1,3.7-6.1,3.7c-4.7,0-8.1-3.7-8.1-9.5c0-5.6,3.1-9.1,8-9.1c4.9,0,6.2,3.6,6.2,3.6h0.1c0,0-0.1-0.3-0.1-0.7v-1.8
		c0-0.4,0.2-0.6,0.6-0.6h0.3c0.4,0,0.6,0.2,0.6,0.6v17.5c0,5.6-4,7.8-8.3,7.8c-1.8,0-3.6-0.4-5.2-1.1c-0.4-0.2-0.5-0.5-0.3-0.8
		l0.2-0.3C72.3,44,72.5,44,72.9,44.1 M84.2,29.7c0-5.9-2.8-7.8-6.2-7.8c-4.1,0-6.4,2.8-6.4,7.6c0,5.1,2.7,8,6.6,8
		C81.4,37.5,84.2,35.5,84.2,29.7"/>
	<path class="st0" d="M91.6,15.6v-1.4c0-0.4,0.2-0.6,0.6-0.6h0.6c0.4,0,0.6,0.2,0.6,0.6v1.4c0,0.4-0.2,0.6-0.6,0.6h-0.6
		C91.9,16.2,91.6,16,91.6,15.6 M91.8,21.4c0-0.4,0.2-0.6,0.6-0.6h0.3c0.4,0,0.6,0.2,0.6,0.6v17c0,0.4-0.2,0.6-0.6,0.6h-0.3
		c-0.4,0-0.6-0.2-0.6-0.6V21.4z"/>
	<path class="st0" d="M99.9,22.3h-1.7c-0.4,0-0.6-0.2-0.6-0.6v-0.1c0-0.4,0.2-0.6,0.6-0.6h1.7v-0.8c0-5.7,3.9-6.7,5.7-6.7h0.3
		c0.4,0,0.6,0.2,0.6,0.6v0.2c0,0.4-0.3,0.6-0.8,0.6c-1.7,0.1-4.4,0.5-4.4,5.2v0.9h4.4c0.4,0,0.6,0.2,0.6,0.6v0.1
		c0,0.4-0.2,0.6-0.6,0.6h-4.4v16.1c0,0.4-0.2,0.6-0.6,0.6h-0.3c-0.4,0-0.6-0.2-0.6-0.6V22.3z"/>
	<path class="st0" d="M109.1,44.7c0.4,0.2,1,0.5,1.7,0.5c1.7,0,2.9-1.6,3.6-3.3l1.3-3l-7.2-17.4c-0.2-0.4,0-0.7,0.5-0.7h0.4
		c0.4,0,0.5,0.1,0.7,0.5l5.8,14c0.4,0.9,0.7,1.7,0.7,1.7h0.1c0,0,0.3-0.8,0.6-1.7l5.8-14c0.1-0.3,0.3-0.5,0.7-0.5h0.4
		c0.4,0,0.7,0.3,0.5,0.7l-9,21.6c-0.8,1.9-2.4,3.5-4.7,3.5c-1.1,0-2-0.4-2.5-0.7c-0.3-0.2-0.4-0.5-0.3-0.8l0.1-0.3
		C108.4,44.6,108.8,44.5,109.1,44.7"/>
	<path class="st1" d="M146.7,40.1c7.9-5.2,11.3-20.6,10-29.2c-0.7,2.9-1.4,5.6-2.1,8.4c-1.6,5.9-4.2,11.1-8.9,15.2
		c-0.3,0.3-0.6,1.1-0.5,1.5C145.6,37.3,146.2,38.6,146.7,40.1"/>
	<path class="st1" d="M131.9,40.2C142.8,33,147.4,11.8,145.7,0c-1,4-1.9,7.8-2.9,11.5c-2.2,8.1-5.8,15.3-12.3,20.9
		c-0.5,0.4-0.8,1.5-0.6,2.1C130.4,36.3,131.2,38.2,131.9,40.2"/>
</g>
</svg>
