<?xml version="1.0" encoding="utf-8"?>
<!-- Generator: Adobe Illustrator 21.0.0, SVG Export Plug-In . SVG Version: 6.00 Build 0)  -->
<svg version="1.1" id="Layer_1" xmlns="http://www.w3.org/2000/svg" xmlns:xlink="http://www.w3.org/1999/xlink" x="0px" y="0px"
	 viewBox="0 0 149.5 39.4" style="enable-background:new 0 0 149.5 39.4;" xml:space="preserve">
<style type="text/css">
	.st0{opacity:0.8;fill:#EA4B39;enable-background:new    ;}
	.st1{fill:#EA4B39;}
	.st2{fill:#283A46;}
</style>
<g id="Page-1_6_">
	<g id="Page-1-_x2B_-Page-1_2_">
		<g id="Page-1_8_">
			<polygon id="Fill-1_9_" class="st0" points="31.5,29.6 25.6,29.6 25.6,35.5 25.6,35.5 25.6,39.4 29.6,35.5 31.5,33.5 35.5,29.6 
							"/>
			<polygon id="Fill-3_9_" class="st1" points="0,0 0,39.4 23.6,39.4 23.6,35.5 3.9,35.5 3.9,3.9 31.5,3.9 31.5,27.6 35.5,27.6 
				35.5,0 			"/>
			<polygon id="Fill-4_6_" class="st1" points="11.8,27.6 15.8,27.6 15.8,23.6 11.8,23.6 			"/>
			<polygon id="Fill-5_5_" class="st1" points="11.8,15.8 23.6,15.8 23.6,11.8 11.8,11.8 			"/>
			<polygon id="Fill-6_5_" class="st1" points="21.7,17.7 11.8,17.7 11.8,21.7 21.7,21.7 			"/>
		</g>
		<g id="Page-1_7_" transform="translate(36.800000, 6.400000)">
			<path id="Fill-1_8_" class="st2" d="M16.9,1.9v2.8h-1.6c-0.9,0-1.3,0.5-1.3,1.4V8h2.9v3.2H14v13.5h-3.8V11.2H8.5V8h1.7V6
				c0-2.2,0.9-4.5,3.9-4.5C15,1.5,16.3,1.7,16.9,1.9"/>
			<path id="Fill-3_8_" class="st2" d="M18.6,8h3.8v16.7h-3.8V8z M18.6,1.7h3.8v3.5h-3.8V1.7z"/>
			<polygon id="Fill-5_4_" class="st2" points="25.9,1.7 29.7,1.7 29.7,24.7 25.9,24.7 			"/>
			<path id="Fill-6_4_" class="st2" d="M36.4,14.6h4.5c0-2.4-0.6-3.8-2-3.8C37.2,10.7,36.6,12.1,36.4,14.6 M44.9,16.4v1h-8.5
				c0,3,0.7,4.7,2.6,4.7c1.3,0,2.1-1.2,2.1-3.2h3.8c0,4.3-2.5,6.3-5.9,6.3c-4.3,0-6.6-2.7-6.6-8.8s2.3-8.8,6.4-8.8
				C42.9,7.6,44.9,10.4,44.9,16.4"/>
			<path id="Fill-7_2_" class="st2" d="M58.9,12.2c0,0.4,0,0.7,0,0.7H55c0-1.5-0.7-2.2-1.9-2.2c-1.2,0-2,0.6-2,1.7
				c0,3.2,8.2,0.7,8.2,7.3c0,4.1-2.7,5.4-6.2,5.4c-3.9,0-6.1-2.1-6.1-5.3c0-0.2,0-0.4,0-0.4h3.9v0.2c0,1.8,1.2,2.4,2.3,2.4
				c1,0,2.2-0.4,2.2-1.8c0-3.5-8.2-1-8.2-7.5c0-3.4,2.6-5.1,6-5.1C56.4,7.6,58.9,9.3,58.9,12.2"/>
			<path id="Fill-8_2_" class="st2" d="M68.7,8v3.2h-2.4v9.3c0,0.9,0.5,1.4,1.3,1.4h1.1v2.8c-0.5,0.2-1.6,0.4-2.3,0.4
				c-3.1,0-3.9-2.3-3.9-4.5v-9.4h-1.7V8h1.7L63,3.3h3.2V8H68.7z"/>
			<path id="Fill-9_2_" class="st2" d="M73.5,20.1c0,1.1,0.6,1.9,1.9,1.9c1.8,0,2.5-1.7,2.5-3.7v-1C75.7,17.3,73.5,17.9,73.5,20.1
				 M81.7,12.6v8.2c0,0.8,0.4,1.1,0.9,1.1h0.8v2.7c-0.4,0.2-1.1,0.5-2.3,0.5c-1.5,0-2.6-0.9-3-2.2H78c-1,1.3-2,2.2-4.2,2.2
				c-1.6,0-4.2-0.8-4.2-4.7c0-4.5,3.4-5.9,8.3-5.9v-1.8c0-1.1-0.3-2.1-1.7-2.1c-1.6,0-2,1-2,1.8V13h-3.7c0-0.2,0-0.4,0-0.7
				c0-2.8,2.2-4.6,5.7-4.6C79.9,7.6,81.7,9.4,81.7,12.6"/>
			<path id="Fill-10_2_" class="st2" d="M97,14.3h-3.9c0-2.4-0.6-3.5-1.9-3.5c-1.6,0-2.2,1.7-2.2,4.9V17c0,3.2,0.6,4.9,2.4,4.9
				c1.4,0,1.9-1.2,1.9-3.5H97c0,4.7-2.2,6.7-5.7,6.7c-4.4,0-6.3-2.7-6.3-8.8s2.1-8.8,6.2-8.8C94.7,7.6,97,9.6,97,14.3"/>
			<polygon id="Fill-11_2_" class="st2" points="108.4,8 112.5,8 107.5,14.8 112.7,24.7 108.5,24.7 105.1,17.8 103.7,19.5 
				103.7,24.7 99.9,24.7 99.9,1.7 103.7,1.7 103.7,14.7 			"/>
		</g>
	</g>
</g>
</svg>
