<svg xmlns="http://www.w3.org/2000/svg" viewBox="0 0 834.5 298.58"><defs><style>.cls-1{fill:#47bfb2;}.cls-2{fill:#5f4f68;}.cls-3,.cls-8,.cls-9{fill:none;stroke-miterlimit:10;stroke-width:2px;}.cls-3{stroke:#f7986b;}.cls-3,.cls-4,.cls-8,.cls-9{opacity:0.6;}.cls-5{fill:#f7996b;}.cls-6{fill:#f06aa7;}.cls-7{fill:#32c4f2;}.cls-8{stroke:#f06aa7;}.cls-9{stroke:#32c4f2;}</style></defs><title>Asset 5</title><g id="Layer_2" data-name="Layer 2"><g id="Venture_Equity" data-name="Venture Equity"><path class="cls-1" d="M834.48,4.76V4.38h0v.38Zm-6.1,0V4.38h3.05v.38Zm-6.1,0V4.38h3.05v.38Zm-6.1,0V4.38h3.05v.38Zm-6.1,0V4.38h3.05v.38Zm-6.1,0V4.38h3v.38Zm-6.1,0V4.38h3.05v.38Zm-6.1,0V4.38h3.05v.38Zm-6.1,0V4.38h3v.38Zm-6.1,0V4.38h3.05v.38Zm-6.1,0V4.38h3.05v.38Zm-6.1,0V4.38h3.05v.38Zm-6.1,0V4.38h3.05v.38Zm-6.11,0V4.38h3.06v.38Zm-6.1,0V4.38h3.05v.38Zm-6.1,0V4.38H746v.38Zm-6.1,0V4.38h3.05v.38Zm-6.1,0V4.38h3.05v.38Zm-6.11,0V4.38h3.06v.38Zm-6.1,0V4.38h3v.38Zm-6.1,0V4.38h3.05v.38Zm-6.11,0V4.38h3.05v.38Zm-6.1,0V4.38h3.05v.38Zm-6.1,0V4.38h3.05v.38Zm-6.1,0V4.38H691v.38Zm-6.1,0V4.38h3.05v.38Zm-6.1,0V4.38h3.06v.38Zm-6.1,0V4.38h3.05v.38Zm-6.1,0V4.38h3.05v.38Zm-6.1,0V4.38h3.05v.38Zm-6.1,0V4.38h3.05v.38Zm-6.1,0V4.38h3.05v.38Zm-6.1,0V4.38h3.05v.38Zm-6.1,0V4.38h3.05v.38Zm-6.1,0V4.38H630v.38Zm-6.1,0V4.38h3.05v.38Zm-6.11,0V4.38h3.06v.38Zm-6.1,0V4.38h3.05v.38Zm-6.1,0V4.38h3.05v.38Zm-6.1,0V4.38h3v.38Zm-6.1,0V4.38h3.05v.38Zm-6.1,0V4.38h3v.38Zm-6.1,0V4.38h3.05v.38Zm-6.1,0V4.38h3.05v.38Zm-6.1,0V4.38H569v.38Zm-6.1,0V4.38h3.05v.38Zm-6.1,0V4.38h3.05v.38Zm-6.1,0V4.38h3.05v.38Zm-6.1,0V4.38h3.05v.38Zm-6.11,0V4.38h3.06v.38Zm-6.1,0V4.38h3.05v.38Zm-6.1,0V4.38h3.05v.38Zm-6.1,0V4.38h3.05v.38Zm-6.1,0V4.38H514v.38Zm-6.1,0V4.38h3.05v.38Zm-6.1,0V4.38h3.05v.38Zm-6.1,0V4.38h3.05v.38Zm-6.11,0V4.38h3.05v.38Zm-6.1,0V4.38h3.05v.38Zm-6.1,0V4.38h3.05v.38Zm-6.1,0V4.38h3.05v.38Zm-6.1,0V4.38h3.05v.38Zm-6.1,0V4.38h3.06v.38Zm-6.1,0V4.38H453v.38Zm-6.1,0V4.38h3.05v.38Zm-6.1,0V4.38h3.05v.38Zm-6.1,0V4.38h3.05v.38Zm-6.1,0V4.38h3.05v.38Zm-6.1,0V4.38h3.05v.38Zm-6.11,0V4.38h3.05v.38Zm-6.1,0V4.38h3.05v.38Zm-6.1,0V4.38h3.05v.38Zm-6.1,0V4.38h3.05v.38Zm-6.1,0V4.38h3.05v.38Zm-6.11,0V4.38h3.05v.38Zm-6.1,0V4.38h3.05v.38Zm-6.1,0V4.38h3.05v.38Zm-6.1,0V4.38h3.05v.38Zm-6.1,0V4.38h3.05v.38Zm-6.11,0V4.38h3.06v.38Zm-6.1,0V4.38h3.05v.38Zm-6.1,0V4.38h3.05v.38Zm-6.1,0V4.38H337v.38Zm-6.1,0V4.38h3.05v.38Zm-6.1,0V4.38h3.05v.38Zm-6.11,0V4.38h3.06v.38Zm-6.1,0V4.38h3.05v.38Zm-6.1,0V4.38h3.05v.38Zm-6.1,0V4.38h3.05v.38Zm-6.1,0V4.38h3.05v.38Zm-6.1,0V4.38h3.05v.38Zm-6.11,0V4.38h3.05v.38Zm-6.1,0V4.38H276v.38Zm-6.1,0V4.38h3.05v.38Zm-6.1,0V4.38h3.05v.38Zm-6.1,0V4.38h3.05v.38Zm-6.11,0V4.38h3.05v.38Zm-6.1,0V4.38h3.05v.38Zm-6.1,0V4.38h3.05v.38Zm-6.1,0V4.38h3.05v.38Zm-6.1,0V4.38h3.05v.38Zm-6.11,0V4.38H221v.38Zm-6.1,0V4.38h3.05v.38Zm-6.1,0V4.38h3.05v.38Zm-6.1,0V4.38h3.05v.38Zm-6.1,0V4.38h3.05v.38Zm-6.11,0V4.38h3.06v.38Zm-6.1,0V4.38h3.05v.38Zm-6.1,0V4.38h3.05v.38Zm-6.1,0V4.38h3.05v.38Zm-6.1,0V4.38h3.05v.38Zm-6.1,0V4.38H160v.38Zm-6.11,0V4.38h3.05v.38Zm-6.1,0V4.38h3.05v.38Zm-6.1,0V4.38h3.05v.38Zm-6.1,0V4.38h3.05v.38Zm-6.1,0V4.38h3.05v.38Zm-6.11,0V4.38h3.05v.38Zm-6.1,0V4.38h3.05v.38Zm-6.1,0V4.38h3.05v.38Zm-6.1,0V4.38h3.05v.38Zm-6.1,0V4.38h3.05v.38Zm-6.11,0V4.38h3.05v.38Zm-6.1,0V4.38h3.05v.38Zm-6.1,0V4.38h3.05v.38Zm-6.1,0V4.38h3.05v.38Z"/><path class="cls-2" d="M71.38,287.19h5v1.1H72.58v4H76.1v1.1H72.58v5h-1.2Z"/><path class="cls-2" d="M79.73,292.79a8.3,8.3,0,0,1,.91-4.32A3.05,3.05,0,0,1,83.42,287a3.37,3.37,0,0,1,1.71.41,3.15,3.15,0,0,1,1.14,1.16,5.79,5.79,0,0,1,.65,1.82,12.65,12.65,0,0,1,.21,2.4,8.23,8.23,0,0,1-.92,4.32,3.07,3.07,0,0,1-2.79,1.47,3.33,3.33,0,0,1-1.7-.41A3.2,3.2,0,0,1,80.58,297a5.53,5.53,0,0,1-.65-1.82A13.19,13.19,0,0,1,79.73,292.79Zm1.26,0a11.3,11.3,0,0,0,.14,1.79,5.91,5.91,0,0,0,.42,1.49,2.78,2.78,0,0,0,.75,1,1.7,1.7,0,0,0,1.12.38,2,2,0,0,0,1.82-1.15,7.7,7.7,0,0,0,.62-3.54,11.31,11.31,0,0,0-.14-1.78,6.06,6.06,0,0,0-.42-1.5,2.78,2.78,0,0,0-.75-1,1.72,1.72,0,0,0-1.14-.38,2,2,0,0,0-1.81,1.15A7.7,7.7,0,0,0,81,292.79Z"/><path class="cls-2" d="M96.06,287.19h1.15v7.5a4.41,4.41,0,0,1-.79,2.94,2.83,2.83,0,0,1-2.25.9,3.14,3.14,0,0,1-2.47-.88,4,4,0,0,1-.78-2.7v-7.76h1.2v7.14a8,8,0,0,0,.11,1.46,2.46,2.46,0,0,0,.37,1,1.44,1.44,0,0,0,.64.53,2.46,2.46,0,0,0,.94.16,1.53,1.53,0,0,0,1.46-.74,5.12,5.12,0,0,0,.41-2.37Z"/><path class="cls-2" d="M103.06,291.28l-.69-1.76h0l.18,1.76v7.1h-1.15V287h.72l4.14,7.26.66,1.68h.06l-.18-1.68v-7.09h1.15v11.38h-.74Z"/><path class="cls-2" d="M112,287.19a5.36,5.36,0,0,1,.57-.07l.63,0,.63,0h.58a4.47,4.47,0,0,1,2,.4,3.41,3.41,0,0,1,1.33,1.14,5,5,0,0,1,.74,1.78,11.77,11.77,0,0,1,0,4.53,5.42,5.42,0,0,1-.73,1.86,3.84,3.84,0,0,1-1.35,1.28,4.19,4.19,0,0,1-2.1.48h-.53l-.66,0-.64,0a3.36,3.36,0,0,1-.46,0Zm2.48,1h-.34l-.36,0-.33,0-.25,0v9.12l.23,0,.35,0,.35,0h.25a2.65,2.65,0,0,0,1.47-.38,2.74,2.74,0,0,0,.94-1,5,5,0,0,0,.49-1.5,11.19,11.19,0,0,0,0-3.48,4.74,4.74,0,0,0-.46-1.45,2.78,2.78,0,0,0-.9-1A2.53,2.53,0,0,0,114.51,288.16Z"/><path class="cls-2" d="M122.51,287.19h5v1.1h-3.78v3.79h3.47v1.1h-3.47v4.1h3.86v1.1h-5.06Z"/><path class="cls-2" d="M131.46,287.19a5.36,5.36,0,0,1,.57-.07l.63,0,.63,0h.58a4.47,4.47,0,0,1,2,.4,3.41,3.41,0,0,1,1.33,1.14,5,5,0,0,1,.74,1.78,11.77,11.77,0,0,1,0,4.53,5.42,5.42,0,0,1-.73,1.86,3.84,3.84,0,0,1-1.35,1.28,4.19,4.19,0,0,1-2.1.48h-.53l-.66,0-.64,0a3.36,3.36,0,0,1-.46,0Zm2.48,1h-.34l-.36,0-.33,0-.25,0v9.12l.23,0,.35,0,.35,0h.25a2.65,2.65,0,0,0,1.47-.38,2.74,2.74,0,0,0,.94-1,5,5,0,0,0,.49-1.5,11.19,11.19,0,0,0,0-3.48,4.74,4.74,0,0,0-.46-1.45,2.78,2.78,0,0,0-.9-1A2.53,2.53,0,0,0,133.93,288.16Z"/><path class="cls-2" d="M257.55,297.35h1.81v-7.82l.14-.95-.54.77-1.34,1.09-.61-.72,2.91-2.72h.59v10.35h1.74v1h-4.7Z"/><path class="cls-2" d="M271.55,293.94l-2.94-6.75H270l2,4.88.21,1h0l.21-1,2-4.85h1.3l-2.94,6.74v4.46h-1.2Z"/><path class="cls-2" d="M278.88,287.19h5v1.1h-3.78v3.79h3.47v1.1h-3.47v4.1h3.86v1.1h-5.06Z"/><path class="cls-2" d="M292.11,295.25H289l-.89,3.14h-1.18L290.25,287h.66l3.38,11.38H293Zm-2.84-1h2.55l-1-3.48-.29-1.69h0l-.31,1.72Z"/><path class="cls-2" d="M297.47,287.3a8,8,0,0,1,1.16-.18q.63-.06,1.16-.06a4.5,4.5,0,0,1,1.18.15,2.45,2.45,0,0,1,1,.51,2.53,2.53,0,0,1,.66.94,3.77,3.77,0,0,1,.25,1.46,3.68,3.68,0,0,1-.55,2.13,2.66,2.66,0,0,1-1.46,1.07l.61.59,2.21,4.46h-1.39l-2.4-4.88-1.2-.24v5.12h-1.2Zm1.2,5.17h1a1.88,1.88,0,0,0,1.44-.56,2.42,2.42,0,0,0,.53-1.71,2.34,2.34,0,0,0-.44-1.46,1.54,1.54,0,0,0-1.3-.58l-.66,0a2.91,2.91,0,0,0-.52.07Z"/><path class="cls-2" d="M422.85,297.17a2.61,2.61,0,0,0,.7.27,3.8,3.8,0,0,0,.9.1,1.77,1.77,0,0,0,.79-.18,1.86,1.86,0,0,0,.62-.5,2.32,2.32,0,0,0,.41-.77,3.15,3.15,0,0,0,.14-1,2.46,2.46,0,0,0-.52-1.74,1.9,1.9,0,0,0-1.45-.55h-1v-.46l1.86-3.58.62-.67-.88.11h-2.51v-1h4.64v.46l-2,3.82-.48.46v0l.46-.1a2.29,2.29,0,0,1,.94.2,2.07,2.07,0,0,1,.77.59,3,3,0,0,1,.51,1,4.25,4.25,0,0,1,.19,1.34,4.43,4.43,0,0,1-.25,1.54,3.32,3.32,0,0,1-.67,1.13,2.87,2.87,0,0,1-1,.7,3.07,3.07,0,0,1-1.21.24,5.51,5.51,0,0,1-1.06-.1,3.56,3.56,0,0,1-.86-.27Z"/><path class="cls-2" d="M436.86,293.94l-2.94-6.75h1.38l2,4.88.21,1h0l.21-1,2-4.85H441l-2.94,6.74v4.46h-1.2Z"/><path class="cls-2" d="M444.19,287.19h5v1.1h-3.78v3.79h3.47v1.1h-3.47v4.1h3.86v1.1h-5.06Z"/><path class="cls-2" d="M457.42,295.25h-3.16l-.89,3.14h-1.18L455.57,287h.66l3.38,11.38h-1.26Zm-2.84-1h2.55l-1-3.48-.29-1.69h0l-.31,1.72Z"/><path class="cls-2" d="M462.78,287.3a8,8,0,0,1,1.16-.18q.63-.06,1.16-.06a4.5,4.5,0,0,1,1.18.15,2.45,2.45,0,0,1,1,.51,2.53,2.53,0,0,1,.66.94,3.77,3.77,0,0,1,.25,1.46,3.68,3.68,0,0,1-.55,2.13,2.66,2.66,0,0,1-1.46,1.07l.61.59,2.21,4.46h-1.39l-2.4-4.88-1.2-.24v5.12h-1.2Zm1.2,5.17h1a1.88,1.88,0,0,0,1.44-.56,2.42,2.42,0,0,0,.53-1.71,2.34,2.34,0,0,0-.44-1.46,1.54,1.54,0,0,0-1.3-.58l-.66,0a2.91,2.91,0,0,0-.52.07Z"/><path class="cls-2" d="M472.46,296.9a3.51,3.51,0,0,0,.86.39,4,4,0,0,0,1.26.18A2.29,2.29,0,0,0,476,297a1.65,1.65,0,0,0,.56-1.38,1.87,1.87,0,0,0-.32-1.09,4.16,4.16,0,0,0-.8-.86q-.48-.39-1-.77a8.08,8.08,0,0,1-1-.83,4.17,4.17,0,0,1-.8-1,3,3,0,0,1-.32-1.42,2.4,2.4,0,0,1,.81-2,3.26,3.26,0,0,1,2.1-.65,6.38,6.38,0,0,1,1.42.14,3.64,3.64,0,0,1,1,.37l-.38,1.06a3.21,3.21,0,0,0-.82-.32,4.78,4.78,0,0,0-1.24-.14,1.73,1.73,0,0,0-1.28.42,1.46,1.46,0,0,0-.42,1.06,1.62,1.62,0,0,0,.32,1,4.39,4.39,0,0,0,.8.82q.48.38,1,.78a8.06,8.06,0,0,1,1,.87,4.5,4.5,0,0,1,.8,1.09,3.06,3.06,0,0,1,.32,1.44,2.92,2.92,0,0,1-.83,2.21,3.26,3.26,0,0,1-2.35.8,5.87,5.87,0,0,1-1.58-.18,4.06,4.06,0,0,1-1-.4Z"/><path class="cls-2" d="M601.34,287.19v1.1h-3v3.28l.54,0a2.56,2.56,0,0,1,2,.88,3.79,3.79,0,0,1,.75,2.48,4.93,4.93,0,0,1-.26,1.58,3.39,3.39,0,0,1-.68,1.16,2.83,2.83,0,0,1-1,.71,3.17,3.17,0,0,1-1.23.24,4.48,4.48,0,0,1-1.78-.29l.29-1a2.19,2.19,0,0,0,.64.2,5.15,5.15,0,0,0,.82.06,1.85,1.85,0,0,0,1.48-.67,2.87,2.87,0,0,0,.58-1.88,2.63,2.63,0,0,0-.58-1.83,2.07,2.07,0,0,0-1.58-.6l-1.06.08v-5.46Z"/><path class="cls-2" d="M611.13,293.94l-2.94-6.75h1.38l2,4.88.21,1h0l.21-1,2-4.85h1.3l-2.94,6.74v4.46h-1.2Z"/><path class="cls-2" d="M618.46,287.19h5v1.1h-3.78v3.79h3.47v1.1h-3.47v4.1h3.86v1.1h-5.06Z"/><path class="cls-2" d="M631.7,295.25h-3.16l-.89,3.14h-1.18L629.84,287h.66l3.38,11.38H632.6Zm-2.84-1h2.55l-1-3.48-.29-1.69h0l-.31,1.72Z"/><path class="cls-2" d="M637.05,287.3a8,8,0,0,1,1.16-.18q.63-.06,1.16-.06a4.5,4.5,0,0,1,1.18.15,2.45,2.45,0,0,1,1,.51,2.53,2.53,0,0,1,.66.94,3.77,3.77,0,0,1,.25,1.46,3.68,3.68,0,0,1-.55,2.13,2.66,2.66,0,0,1-1.46,1.07l.61.59,2.21,4.46h-1.39l-2.4-4.88-1.2-.24v5.12h-1.2Zm1.2,5.17h1a1.88,1.88,0,0,0,1.44-.56,2.42,2.42,0,0,0,.53-1.71,2.34,2.34,0,0,0-.44-1.46,1.54,1.54,0,0,0-1.3-.58l-.66,0a2.91,2.91,0,0,0-.52.07Z"/><path class="cls-2" d="M646.73,296.9a3.51,3.51,0,0,0,.86.39,4,4,0,0,0,1.26.18,2.29,2.29,0,0,0,1.46-.44,1.65,1.65,0,0,0,.56-1.38,1.87,1.87,0,0,0-.32-1.09,4.16,4.16,0,0,0-.8-.86q-.48-.39-1-.77a8.08,8.08,0,0,1-1-.83,4.17,4.17,0,0,1-.8-1,3,3,0,0,1-.32-1.42,2.4,2.4,0,0,1,.81-2,3.26,3.26,0,0,1,2.1-.65,6.38,6.38,0,0,1,1.42.14,3.64,3.64,0,0,1,1,.37l-.38,1.06a3.21,3.21,0,0,0-.82-.32,4.78,4.78,0,0,0-1.24-.14,1.73,1.73,0,0,0-1.28.42,1.46,1.46,0,0,0-.42,1.06,1.62,1.62,0,0,0,.32,1,4.39,4.39,0,0,0,.8.82q.48.38,1,.78a8.06,8.06,0,0,1,1,.87,4.5,4.5,0,0,1,.8,1.09,3.06,3.06,0,0,1,.32,1.44,2.92,2.92,0,0,1-.83,2.21,3.26,3.26,0,0,1-2.35.8,5.87,5.87,0,0,1-1.58-.18,4.06,4.06,0,0,1-1-.4Z"/><path class="cls-2" d="M771.47,297.35h1.81v-7.82l.14-.95-.54.77-1.34,1.09-.61-.72,2.91-2.72h.59v10.35h1.74v1h-4.7Z"/><path class="cls-2" d="M778.57,292.79a15.67,15.67,0,0,1,.19-2.64,5.81,5.81,0,0,1,.58-1.8,2.6,2.6,0,0,1,.94-1,2.49,2.49,0,0,1,1.28-.33,2.63,2.63,0,0,1,1.34.33,2.48,2.48,0,0,1,.94,1,5.85,5.85,0,0,1,.54,1.8,17.08,17.08,0,0,1,.18,2.64,15.63,15.63,0,0,1-.19,2.65,5.8,5.8,0,0,1-.58,1.79,2.62,2.62,0,0,1-.94,1,2.45,2.45,0,0,1-1.27.33,2.61,2.61,0,0,1-1.35-.34,2.53,2.53,0,0,1-.94-1,5.92,5.92,0,0,1-.54-1.8A16.66,16.66,0,0,1,778.57,292.79Zm1.2,0a11.16,11.16,0,0,0,.43,3.52q.43,1.23,1.39,1.23t1.35-1.13a11.24,11.24,0,0,0,.42-3.62,11.79,11.79,0,0,0-.41-3.51q-.41-1.24-1.39-1.24a1.45,1.45,0,0,0-1.35,1.12A11,11,0,0,0,779.77,292.79Z"/><path class="cls-2" d="M793.47,293.94l-2.94-6.75h1.38l2,4.88.21,1h0l.21-1,2-4.85h1.3l-2.94,6.74v4.46h-1.2Z"/><path class="cls-2" d="M800.8,287.19h5v1.1H802v3.79h3.47v1.1H802v4.1h3.86v1.1H800.8Z"/><path class="cls-2" d="M814,295.25h-3.16l-.89,3.14H808.8L812.17,287h.66l3.38,11.38h-1.26Zm-2.84-1h2.55l-1-3.48-.29-1.69h0l-.31,1.72Z"/><path class="cls-2" d="M819.39,287.3a8,8,0,0,1,1.16-.18q.63-.06,1.16-.06a4.5,4.5,0,0,1,1.18.15,2.45,2.45,0,0,1,1,.51,2.53,2.53,0,0,1,.66.94,3.77,3.77,0,0,1,.25,1.46,3.68,3.68,0,0,1-.55,2.13,2.66,2.66,0,0,1-1.46,1.07l.61.59,2.21,4.46h-1.39l-2.4-4.88-1.2-.24v5.12h-1.2Zm1.2,5.17h1a1.88,1.88,0,0,0,1.44-.56,2.42,2.42,0,0,0,.53-1.71,2.34,2.34,0,0,0-.44-1.46,1.54,1.54,0,0,0-1.3-.58l-.66,0a2.91,2.91,0,0,0-.52.07Z"/><path class="cls-2" d="M829.07,296.9a3.51,3.51,0,0,0,.86.39,4,4,0,0,0,1.26.18,2.29,2.29,0,0,0,1.46-.44,1.65,1.65,0,0,0,.56-1.38,1.87,1.87,0,0,0-.32-1.09,4.16,4.16,0,0,0-.8-.86q-.48-.39-1-.77a8.08,8.08,0,0,1-1-.83,4.17,4.17,0,0,1-.8-1,3,3,0,0,1-.32-1.42,2.4,2.4,0,0,1,.81-2,3.26,3.26,0,0,1,2.1-.65,6.38,6.38,0,0,1,1.42.14,3.64,3.64,0,0,1,1,.37l-.38,1.06a3.21,3.21,0,0,0-.82-.32,4.78,4.78,0,0,0-1.24-.14,1.73,1.73,0,0,0-1.28.42,1.46,1.46,0,0,0-.42,1.06,1.62,1.62,0,0,0,.32,1,4.39,4.39,0,0,0,.8.82q.48.38,1,.78a8.06,8.06,0,0,1,1,.87,4.5,4.5,0,0,1,.8,1.09,3.06,3.06,0,0,1,.32,1.44,2.92,2.92,0,0,1-.83,2.21,3.26,3.26,0,0,1-2.35.8,5.87,5.87,0,0,1-1.58-.18,4.06,4.06,0,0,1-1-.4Z"/><path class="cls-1" d="M834.48,232.47v-.38h0v.38Zm-6.1,0v-.38h3.05v.38Zm-6.1,0v-.38h3.05v.38Zm-6.1,0v-.38h3.05v.38Zm-6.1,0v-.38h3.05v.38Zm-6.1,0v-.38h3v.38Zm-6.1,0v-.38h3.05v.38Zm-6.1,0v-.38h3.05v.38Zm-6.1,0v-.38h3v.38Zm-6.1,0v-.38h3.05v.38Zm-6.1,0v-.38h3.05v.38Zm-6.1,0v-.38h3.05v.38Zm-6.1,0v-.38h3.05v.38Zm-6.11,0v-.38h3.06v.38Zm-6.1,0v-.38h3.05v.38Zm-6.1,0v-.38H746v.38Zm-6.1,0v-.38h3.05v.38Zm-6.1,0v-.38h3.05v.38Zm-6.11,0v-.38h3.06v.38Zm-6.1,0v-.38h3v.38Zm-6.1,0v-.38h3.05v.38Zm-6.11,0v-.38h3.05v.38Zm-6.1,0v-.38h3.05v.38Zm-6.1,0v-.38h3.05v.38Zm-6.1,0v-.38H691v.38Zm-6.1,0v-.38h3.05v.38Zm-6.1,0v-.38h3.06v.38Zm-6.1,0v-.38h3.05v.38Zm-6.1,0v-.38h3.05v.38Zm-6.1,0v-.38h3.05v.38Zm-6.1,0v-.38h3.05v.38Zm-6.1,0v-.38h3.05v.38Zm-6.1,0v-.38h3.05v.38Zm-6.1,0v-.38h3.05v.38Zm-6.1,0v-.38H630v.38Zm-6.1,0v-.38h3.05v.38Zm-6.11,0v-.38h3.06v.38Zm-6.1,0v-.38h3.05v.38Zm-6.1,0v-.38h3.05v.38Zm-6.1,0v-.38h3v.38Zm-6.1,0v-.38h3.05v.38Zm-6.1,0v-.38h3v.38Zm-6.1,0v-.38h3.05v.38Zm-6.1,0v-.38h3.05v.38Zm-6.1,0v-.38H569v.38Zm-6.1,0v-.38h3.05v.38Zm-6.1,0v-.38h3.05v.38Zm-6.1,0v-.38h3.05v.38Zm-6.1,0v-.38h3.05v.38Zm-6.11,0v-.38h3.06v.38Zm-6.1,0v-.38h3.05v.38Zm-6.1,0v-.38h3.05v.38Zm-6.1,0v-.38h3.05v.38Zm-6.1,0v-.38H514v.38Zm-6.1,0v-.38h3.05v.38Zm-6.1,0v-.38h3.05v.38Zm-6.1,0v-.38h3.05v.38Zm-6.11,0v-.38h3.05v.38Zm-6.1,0v-.38h3.05v.38Zm-6.1,0v-.38h3.05v.38Zm-6.1,0v-.38h3.05v.38Zm-6.1,0v-.38h3.05v.38Zm-6.1,0v-.38h3.06v.38Zm-6.1,0v-.38H453v.38Zm-6.1,0v-.38h3.05v.38Zm-6.1,0v-.38h3.05v.38Zm-6.1,0v-.38h3.05v.38Zm-6.1,0v-.38h3.05v.38Zm-6.1,0v-.38h3.05v.38Zm-6.11,0v-.38h3.05v.38Zm-6.1,0v-.38h3.05v.38Zm-6.1,0v-.38h3.05v.38Zm-6.1,0v-.38h3.05v.38Zm-6.1,0v-.38h3.05v.38Zm-6.11,0v-.38h3.05v.38Zm-6.1,0v-.38h3.05v.38Zm-6.1,0v-.38h3.05v.38Zm-6.1,0v-.38h3.05v.38Zm-6.1,0v-.38h3.05v.38Zm-6.11,0v-.38h3.06v.38Zm-6.1,0v-.38h3.05v.38Zm-6.1,0v-.38h3.05v.38Zm-6.1,0v-.38H337v.38Zm-6.1,0v-.38h3.05v.38Zm-6.1,0v-.38h3.05v.38Zm-6.11,0v-.38h3.06v.38Zm-6.1,0v-.38h3.05v.38Zm-6.1,0v-.38h3.05v.38Zm-6.1,0v-.38h3.05v.38Zm-6.1,0v-.38h3.05v.38Zm-6.1,0v-.38h3.05v.38Zm-6.11,0v-.38h3.05v.38Zm-6.1,0v-.38H276v.38Zm-6.1,0v-.38h3.05v.38Zm-6.1,0v-.38h3.05v.38Zm-6.1,0v-.38h3.05v.38Zm-6.11,0v-.38h3.05v.38Zm-6.1,0v-.38h3.05v.38Zm-6.1,0v-.38h3.05v.38Zm-6.1,0v-.38h3.05v.38Zm-6.1,0v-.38h3.05v.38Zm-6.11,0v-.38H221v.38Zm-6.1,0v-.38h3.05v.38Zm-6.1,0v-.38h3.05v.38Zm-6.1,0v-.38h3.05v.38Zm-6.1,0v-.38h3.05v.38Zm-6.11,0v-.38h3.06v.38Zm-6.1,0v-.38h3.05v.38Zm-6.1,0v-.38h3.05v.38Zm-6.1,0v-.38h3.05v.38Zm-6.1,0v-.38h3.05v.38Zm-6.1,0v-.38H160v.38Zm-6.11,0v-.38h3.05v.38Zm-6.1,0v-.38h3.05v.38Zm-6.1,0v-.38h3.05v.38Zm-6.1,0v-.38h3.05v.38Zm-6.1,0v-.38h3.05v.38Zm-6.11,0v-.38h3.05v.38Zm-6.1,0v-.38h3.05v.38Zm-6.1,0v-.38h3.05v.38Zm-6.1,0v-.38h3.05v.38Zm-6.1,0v-.38h3.05v.38Zm-6.11,0v-.38h3.05v.38Zm-6.1,0v-.38h3.05v.38Zm-6.1,0v-.38h3.05v.38Zm-6.1,0v-.38h3.05v.38Z"/><path class="cls-1" d="M834.48,102.35V102h0v.38Zm-6.1,0V102h3.05v.38Zm-6.1,0V102h3.05v.38Zm-6.1,0V102h3.05v.38Zm-6.1,0V102h3.05v.38Zm-6.1,0V102h3v.38Zm-6.1,0V102h3.05v.38Zm-6.1,0V102h3.05v.38Zm-6.1,0V102h3v.38Zm-6.1,0V102h3.05v.38Zm-6.1,0V102h3.05v.38Zm-6.1,0V102h3.05v.38Zm-6.1,0V102h3.05v.38Zm-6.11,0V102h3.06v.38Zm-6.1,0V102h3.05v.38Zm-6.1,0V102H746v.38Zm-6.1,0V102h3.05v.38Zm-6.1,0V102h3.05v.38Zm-6.11,0V102h3.06v.38Zm-6.1,0V102h3v.38Zm-6.1,0V102h3.05v.38Zm-6.11,0V102h3.05v.38Zm-6.1,0V102h3.05v.38Zm-6.1,0V102h3.05v.38Zm-6.1,0V102H691v.38Zm-6.1,0V102h3.05v.38Zm-6.1,0V102h3.06v.38Zm-6.1,0V102h3.05v.38Zm-6.1,0V102h3.05v.38Zm-6.1,0V102h3.05v.38Zm-6.1,0V102h3.05v.38Zm-6.1,0V102h3.05v.38Zm-6.1,0V102h3.05v.38Zm-6.1,0V102h3.05v.38Zm-6.1,0V102H630v.38Zm-6.1,0V102h3.05v.38Zm-6.11,0V102h3.06v.38Zm-6.1,0V102h3.05v.38Zm-6.1,0V102h3.05v.38Zm-6.1,0V102h3v.38Zm-6.1,0V102h3.05v.38Zm-6.1,0V102h3v.38Zm-6.1,0V102h3.05v.38Zm-6.1,0V102h3.05v.38Zm-6.1,0V102H569v.38Zm-6.1,0V102h3.05v.38Zm-6.1,0V102h3.05v.38Zm-6.1,0V102h3.05v.38Zm-6.1,0V102h3.05v.38Zm-6.11,0V102h3.06v.38Zm-6.1,0V102h3.05v.38Zm-6.1,0V102h3.05v.38Zm-6.1,0V102h3.05v.38Zm-6.1,0V102H514v.38Zm-6.1,0V102h3.05v.38Zm-6.1,0V102h3.05v.38Zm-6.1,0V102h3.05v.38Zm-6.11,0V102h3.05v.38Zm-6.1,0V102h3.05v.38Zm-6.1,0V102h3.05v.38Zm-6.1,0V102h3.05v.38Zm-6.1,0V102h3.05v.38Zm-6.1,0V102h3.06v.38Zm-6.1,0V102H453v.38Zm-6.1,0V102h3.05v.38Zm-6.1,0V102h3.05v.38Zm-6.1,0V102h3.05v.38Zm-6.1,0V102h3.05v.38Zm-6.1,0V102h3.05v.38Zm-6.11,0V102h3.05v.38Zm-6.1,0V102h3.05v.38Zm-6.1,0V102h3.05v.38Zm-6.1,0V102h3.05v.38Zm-6.1,0V102h3.05v.38Zm-6.11,0V102h3.05v.38Zm-6.1,0V102h3.05v.38Zm-6.1,0V102h3.05v.38Zm-6.1,0V102h3.05v.38Zm-6.1,0V102h3.05v.38Zm-6.11,0V102h3.06v.38Zm-6.1,0V102h3.05v.38Zm-6.1,0V102h3.05v.38Zm-6.1,0V102H337v.38Zm-6.1,0V102h3.05v.38Zm-6.1,0V102h3.05v.38Zm-6.11,0V102h3.06v.38Zm-6.1,0V102h3.05v.38Zm-6.1,0V102h3.05v.38Zm-6.1,0V102h3.05v.38Zm-6.1,0V102h3.05v.38Zm-6.1,0V102h3.05v.38Zm-6.11,0V102h3.05v.38Zm-6.1,0V102H276v.38Zm-6.1,0V102h3.05v.38Zm-6.1,0V102h3.05v.38Zm-6.1,0V102h3.05v.38Zm-6.11,0V102h3.05v.38Zm-6.1,0V102h3.05v.38Zm-6.1,0V102h3.05v.38Zm-6.1,0V102h3.05v.38Zm-6.1,0V102h3.05v.38Zm-6.11,0V102H221v.38Zm-6.1,0V102h3.05v.38Zm-6.1,0V102h3.05v.38Zm-6.1,0V102h3.05v.38Zm-6.1,0V102h3.05v.38Zm-6.11,0V102h3.06v.38Zm-6.1,0V102h3.05v.38Zm-6.1,0V102h3.05v.38Zm-6.1,0V102h3.05v.38Zm-6.1,0V102h3.05v.38Zm-6.1,0V102H160v.38Zm-6.11,0V102h3.05v.38Zm-6.1,0V102h3.05v.38Zm-6.1,0V102h3.05v.38Zm-6.1,0V102h3.05v.38Zm-6.1,0V102h3.05v.38Zm-6.11,0V102h3.05v.38Zm-6.1,0V102h3.05v.38Zm-6.1,0V102h3.05v.38Zm-6.1,0V102h3.05v.38Zm-6.1,0V102h3.05v.38Zm-6.11,0V102h3.05v.38Zm-6.1,0V102h3.05v.38Zm-6.1,0V102h3.05v.38Zm-6.1,0V102h3.05v.38Z"/><path class="cls-1" d="M834.48,199.94v-.38h0v.38Zm-6.1,0v-.38h3.05v.38Zm-6.1,0v-.38h3.05v.38Zm-6.1,0v-.38h3.05v.38Zm-6.1,0v-.38h3.05v.38Zm-6.1,0v-.38h3v.38Zm-6.1,0v-.38h3.05v.38Zm-6.1,0v-.38h3.05v.38Zm-6.1,0v-.38h3v.38Zm-6.1,0v-.38h3.05v.38Zm-6.1,0v-.38h3.05v.38Zm-6.1,0v-.38h3.05v.38Zm-6.1,0v-.38h3.05v.38Zm-6.11,0v-.38h3.06v.38Zm-6.1,0v-.38h3.05v.38Zm-6.1,0v-.38H746v.38Zm-6.1,0v-.38h3.05v.38Zm-6.1,0v-.38h3.05v.38Zm-6.11,0v-.38h3.06v.38Zm-6.1,0v-.38h3v.38Zm-6.1,0v-.38h3.05v.38Zm-6.11,0v-.38h3.05v.38Zm-6.1,0v-.38h3.05v.38Zm-6.1,0v-.38h3.05v.38Zm-6.1,0v-.38H691v.38Zm-6.1,0v-.38h3.05v.38Zm-6.1,0v-.38h3.06v.38Zm-6.1,0v-.38h3.05v.38Zm-6.1,0v-.38h3.05v.38Zm-6.1,0v-.38h3.05v.38Zm-6.1,0v-.38h3.05v.38Zm-6.1,0v-.38h3.05v.38Zm-6.1,0v-.38h3.05v.38Zm-6.1,0v-.38h3.05v.38Zm-6.1,0v-.38H630v.38Zm-6.1,0v-.38h3.05v.38Zm-6.11,0v-.38h3.06v.38Zm-6.1,0v-.38h3.05v.38Zm-6.1,0v-.38h3.05v.38Zm-6.1,0v-.38h3v.38Zm-6.1,0v-.38h3.05v.38Zm-6.1,0v-.38h3v.38Zm-6.1,0v-.38h3.05v.38Zm-6.1,0v-.38h3.05v.38Zm-6.1,0v-.38H569v.38Zm-6.1,0v-.38h3.05v.38Zm-6.1,0v-.38h3.05v.38Zm-6.1,0v-.38h3.05v.38Zm-6.1,0v-.38h3.05v.38Zm-6.11,0v-.38h3.06v.38Zm-6.1,0v-.38h3.05v.38Zm-6.1,0v-.38h3.05v.38Zm-6.1,0v-.38h3.05v.38Zm-6.1,0v-.38H514v.38Zm-6.1,0v-.38h3.05v.38Zm-6.1,0v-.38h3.05v.38Zm-6.1,0v-.38h3.05v.38Zm-6.11,0v-.38h3.05v.38Zm-6.1,0v-.38h3.05v.38Zm-6.1,0v-.38h3.05v.38Zm-6.1,0v-.38h3.05v.38Zm-6.1,0v-.38h3.05v.38Zm-6.1,0v-.38h3.06v.38Zm-6.1,0v-.38H453v.38Zm-6.1,0v-.38h3.05v.38Zm-6.1,0v-.38h3.05v.38Zm-6.1,0v-.38h3.05v.38Zm-6.1,0v-.38h3.05v.38Zm-6.1,0v-.38h3.05v.38Zm-6.11,0v-.38h3.05v.38Zm-6.1,0v-.38h3.05v.38Zm-6.1,0v-.38h3.05v.38Zm-6.1,0v-.38h3.05v.38Zm-6.1,0v-.38h3.05v.38Zm-6.11,0v-.38h3.05v.38Zm-6.1,0v-.38h3.05v.38Zm-6.1,0v-.38h3.05v.38Zm-6.1,0v-.38h3.05v.38Zm-6.1,0v-.38h3.05v.38Zm-6.11,0v-.38h3.06v.38Zm-6.1,0v-.38h3.05v.38Zm-6.1,0v-.38h3.05v.38Zm-6.1,0v-.38H337v.38Zm-6.1,0v-.38h3.05v.38Zm-6.1,0v-.38h3.05v.38Zm-6.11,0v-.38h3.06v.38Zm-6.1,0v-.38h3.05v.38Zm-6.1,0v-.38h3.05v.38Zm-6.1,0v-.38h3.05v.38Zm-6.1,0v-.38h3.05v.38Zm-6.1,0v-.38h3.05v.38Zm-6.11,0v-.38h3.05v.38Zm-6.1,0v-.38H276v.38Zm-6.1,0v-.38h3.05v.38Zm-6.1,0v-.38h3.05v.38Zm-6.1,0v-.38h3.05v.38Zm-6.11,0v-.38h3.05v.38Zm-6.1,0v-.38h3.05v.38Zm-6.1,0v-.38h3.05v.38Zm-6.1,0v-.38h3.05v.38Zm-6.1,0v-.38h3.05v.38Zm-6.11,0v-.38H221v.38Zm-6.1,0v-.38h3.05v.38Zm-6.1,0v-.38h3.05v.38Zm-6.1,0v-.38h3.05v.38Zm-6.1,0v-.38h3.05v.38Zm-6.11,0v-.38h3.06v.38Zm-6.1,0v-.38h3.05v.38Zm-6.1,0v-.38h3.05v.38Zm-6.1,0v-.38h3.05v.38Zm-6.1,0v-.38h3.05v.38Zm-6.1,0v-.38H160v.38Zm-6.11,0v-.38h3.05v.38Zm-6.1,0v-.38h3.05v.38Zm-6.1,0v-.38h3.05v.38Zm-6.1,0v-.38h3.05v.38Zm-6.1,0v-.38h3.05v.38Zm-6.11,0v-.38h3.05v.38Zm-6.1,0v-.38h3.05v.38Zm-6.1,0v-.38h3.05v.38Zm-6.1,0v-.38h3.05v.38Zm-6.1,0v-.38h3.05v.38Zm-6.11,0v-.38h3.05v.38Zm-6.1,0v-.38h3.05v.38Zm-6.1,0v-.38h3.05v.38Zm-6.1,0v-.38h3.05v.38Z"/><path class="cls-1" d="M834.48,167.41V167h0v.38Zm-6.1,0V167h3.05v.38Zm-6.1,0V167h3.05v.38Zm-6.1,0V167h3.05v.38Zm-6.1,0V167h3.05v.38Zm-6.1,0V167h3v.38Zm-6.1,0V167h3.05v.38Zm-6.1,0V167h3.05v.38Zm-6.1,0V167h3v.38Zm-6.1,0V167h3.05v.38Zm-6.1,0V167h3.05v.38Zm-6.1,0V167h3.05v.38Zm-6.1,0V167h3.05v.38Zm-6.11,0V167h3.06v.38Zm-6.1,0V167h3.05v.38Zm-6.1,0V167H746v.38Zm-6.1,0V167h3.05v.38Zm-6.1,0V167h3.05v.38Zm-6.11,0V167h3.06v.38Zm-6.1,0V167h3v.38Zm-6.1,0V167h3.05v.38Zm-6.11,0V167h3.05v.38Zm-6.1,0V167h3.05v.38Zm-6.1,0V167h3.05v.38Zm-6.1,0V167H691v.38Zm-6.1,0V167h3.05v.38Zm-6.1,0V167h3.06v.38Zm-6.1,0V167h3.05v.38Zm-6.1,0V167h3.05v.38Zm-6.1,0V167h3.05v.38Zm-6.1,0V167h3.05v.38Zm-6.1,0V167h3.05v.38Zm-6.1,0V167h3.05v.38Zm-6.1,0V167h3.05v.38Zm-6.1,0V167H630v.38Zm-6.1,0V167h3.05v.38Zm-6.11,0V167h3.06v.38Zm-6.1,0V167h3.05v.38Zm-6.1,0V167h3.05v.38Zm-6.1,0V167h3v.38Zm-6.1,0V167h3.05v.38Zm-6.1,0V167h3v.38Zm-6.1,0V167h3.05v.38Zm-6.1,0V167h3.05v.38Zm-6.1,0V167H569v.38Zm-6.1,0V167h3.05v.38Zm-6.1,0V167h3.05v.38Zm-6.1,0V167h3.05v.38Zm-6.1,0V167h3.05v.38Zm-6.11,0V167h3.06v.38Zm-6.1,0V167h3.05v.38Zm-6.1,0V167h3.05v.38Zm-6.1,0V167h3.05v.38Zm-6.1,0V167H514v.38Zm-6.1,0V167h3.05v.38Zm-6.1,0V167h3.05v.38Zm-6.1,0V167h3.05v.38Zm-6.11,0V167h3.05v.38Zm-6.1,0V167h3.05v.38Zm-6.1,0V167h3.05v.38Zm-6.1,0V167h3.05v.38Zm-6.1,0V167h3.05v.38Zm-6.1,0V167h3.06v.38Zm-6.1,0V167H453v.38Zm-6.1,0V167h3.05v.38Zm-6.1,0V167h3.05v.38Zm-6.1,0V167h3.05v.38Zm-6.1,0V167h3.05v.38Zm-6.1,0V167h3.05v.38Zm-6.11,0V167h3.05v.38Zm-6.1,0V167h3.05v.38Zm-6.1,0V167h3.05v.38Zm-6.1,0V167h3.05v.38Zm-6.1,0V167h3.05v.38Zm-6.11,0V167h3.05v.38Zm-6.1,0V167h3.05v.38Zm-6.1,0V167h3.05v.38Zm-6.1,0V167h3.05v.38Zm-6.1,0V167h3.05v.38Zm-6.11,0V167h3.06v.38Zm-6.1,0V167h3.05v.38Zm-6.1,0V167h3.05v.38Zm-6.1,0V167H337v.38Zm-6.1,0V167h3.05v.38Zm-6.1,0V167h3.05v.38Zm-6.11,0V167h3.06v.38Zm-6.1,0V167h3.05v.38Zm-6.1,0V167h3.05v.38Zm-6.1,0V167h3.05v.38Zm-6.1,0V167h3.05v.38Zm-6.1,0V167h3.05v.38Zm-6.11,0V167h3.05v.38Zm-6.1,0V167H276v.38Zm-6.1,0V167h3.05v.38Zm-6.1,0V167h3.05v.38Zm-6.1,0V167h3.05v.38Zm-6.11,0V167h3.05v.38Zm-6.1,0V167h3.05v.38Zm-6.1,0V167h3.05v.38Zm-6.1,0V167h3.05v.38Zm-6.1,0V167h3.05v.38Zm-6.11,0V167H221v.38Zm-6.1,0V167h3.05v.38Zm-6.1,0V167h3.05v.38Zm-6.1,0V167h3.05v.38Zm-6.1,0V167h3.05v.38Zm-6.11,0V167h3.06v.38Zm-6.1,0V167h3.05v.38Zm-6.1,0V167h3.05v.38Zm-6.1,0V167h3.05v.38Zm-6.1,0V167h3.05v.38Zm-6.1,0V167H160v.38Zm-6.11,0V167h3.05v.38Zm-6.1,0V167h3.05v.38Zm-6.1,0V167h3.05v.38Zm-6.1,0V167h3.05v.38Zm-6.1,0V167h3.05v.38Zm-6.11,0V167h3.05v.38Zm-6.1,0V167h3.05v.38Zm-6.1,0V167h3.05v.38Zm-6.1,0V167h3.05v.38Zm-6.1,0V167h3.05v.38Zm-6.11,0V167h3.05v.38Zm-6.1,0V167h3.05v.38Zm-6.1,0V167h3.05v.38Zm-6.1,0V167h3.05v.38Z"/><path class="cls-1" d="M834.48,134.88v-.38h0v.38Zm-6.1,0v-.38h3.05v.38Zm-6.1,0v-.38h3.05v.38Zm-6.1,0v-.38h3.05v.38Zm-6.1,0v-.38h3.05v.38Zm-6.1,0v-.38h3v.38Zm-6.1,0v-.38h3.05v.38Zm-6.1,0v-.38h3.05v.38Zm-6.1,0v-.38h3v.38Zm-6.1,0v-.38h3.05v.38Zm-6.1,0v-.38h3.05v.38Zm-6.1,0v-.38h3.05v.38Zm-6.1,0v-.38h3.05v.38Zm-6.11,0v-.38h3.06v.38Zm-6.1,0v-.38h3.05v.38Zm-6.1,0v-.38H746v.38Zm-6.1,0v-.38h3.05v.38Zm-6.1,0v-.38h3.05v.38Zm-6.11,0v-.38h3.06v.38Zm-6.1,0v-.38h3v.38Zm-6.1,0v-.38h3.05v.38Zm-6.11,0v-.38h3.05v.38Zm-6.1,0v-.38h3.05v.38Zm-6.1,0v-.38h3.05v.38Zm-6.1,0v-.38H691v.38Zm-6.1,0v-.38h3.05v.38Zm-6.1,0v-.38h3.06v.38Zm-6.1,0v-.38h3.05v.38Zm-6.1,0v-.38h3.05v.38Zm-6.1,0v-.38h3.05v.38Zm-6.1,0v-.38h3.05v.38Zm-6.1,0v-.38h3.05v.38Zm-6.1,0v-.38h3.05v.38Zm-6.1,0v-.38h3.05v.38Zm-6.1,0v-.38H630v.38Zm-6.1,0v-.38h3.05v.38Zm-6.11,0v-.38h3.06v.38Zm-6.1,0v-.38h3.05v.38Zm-6.1,0v-.38h3.05v.38Zm-6.1,0v-.38h3v.38Zm-6.1,0v-.38h3.05v.38Zm-6.1,0v-.38h3v.38Zm-6.1,0v-.38h3.05v.38Zm-6.1,0v-.38h3.05v.38Zm-6.1,0v-.38H569v.38Zm-6.1,0v-.38h3.05v.38Zm-6.1,0v-.38h3.05v.38Zm-6.1,0v-.38h3.05v.38Zm-6.1,0v-.38h3.05v.38Zm-6.11,0v-.38h3.06v.38Zm-6.1,0v-.38h3.05v.38Zm-6.1,0v-.38h3.05v.38Zm-6.1,0v-.38h3.05v.38Zm-6.1,0v-.38H514v.38Zm-6.1,0v-.38h3.05v.38Zm-6.1,0v-.38h3.05v.38Zm-6.1,0v-.38h3.05v.38Zm-6.11,0v-.38h3.05v.38Zm-6.1,0v-.38h3.05v.38Zm-6.1,0v-.38h3.05v.38Zm-6.1,0v-.38h3.05v.38Zm-6.1,0v-.38h3.05v.38Zm-6.1,0v-.38h3.06v.38Zm-6.1,0v-.38H453v.38Zm-6.1,0v-.38h3.05v.38Zm-6.1,0v-.38h3.05v.38Zm-6.1,0v-.38h3.05v.38Zm-6.1,0v-.38h3.05v.38Zm-6.1,0v-.38h3.05v.38Zm-6.11,0v-.38h3.05v.38Zm-6.1,0v-.38h3.05v.38Zm-6.1,0v-.38h3.05v.38Zm-6.1,0v-.38h3.05v.38Zm-6.1,0v-.38h3.05v.38Zm-6.11,0v-.38h3.05v.38Zm-6.1,0v-.38h3.05v.38Zm-6.1,0v-.38h3.05v.38Zm-6.1,0v-.38h3.05v.38Zm-6.1,0v-.38h3.05v.38Zm-6.11,0v-.38h3.06v.38Zm-6.1,0v-.38h3.05v.38Zm-6.1,0v-.38h3.05v.38Zm-6.1,0v-.38H337v.38Zm-6.1,0v-.38h3.05v.38Zm-6.1,0v-.38h3.05v.38Zm-6.11,0v-.38h3.06v.38Zm-6.1,0v-.38h3.05v.38Zm-6.1,0v-.38h3.05v.38Zm-6.1,0v-.38h3.05v.38Zm-6.1,0v-.38h3.05v.38Zm-6.1,0v-.38h3.05v.38Zm-6.11,0v-.38h3.05v.38Zm-6.1,0v-.38H276v.38Zm-6.1,0v-.38h3.05v.38Zm-6.1,0v-.38h3.05v.38Zm-6.1,0v-.38h3.05v.38Zm-6.11,0v-.38h3.05v.38Zm-6.1,0v-.38h3.05v.38Zm-6.1,0v-.38h3.05v.38Zm-6.1,0v-.38h3.05v.38Zm-6.1,0v-.38h3.05v.38Zm-6.11,0v-.38H221v.38Zm-6.1,0v-.38h3.05v.38Zm-6.1,0v-.38h3.05v.38Zm-6.1,0v-.38h3.05v.38Zm-6.1,0v-.38h3.05v.38Zm-6.11,0v-.38h3.06v.38Zm-6.1,0v-.38h3.05v.38Zm-6.1,0v-.38h3.05v.38Zm-6.1,0v-.38h3.05v.38Zm-6.1,0v-.38h3.05v.38Zm-6.1,0v-.38H160v.38Zm-6.11,0v-.38h3.05v.38Zm-6.1,0v-.38h3.05v.38Zm-6.1,0v-.38h3.05v.38Zm-6.1,0v-.38h3.05v.38Zm-6.1,0v-.38h3.05v.38Zm-6.11,0v-.38h3.05v.38Zm-6.1,0v-.38h3.05v.38Zm-6.1,0v-.38h3.05v.38Zm-6.1,0v-.38h3.05v.38Zm-6.1,0v-.38h3.05v.38Zm-6.11,0v-.38h3.05v.38Zm-6.1,0v-.38h3.05v.38Zm-6.1,0v-.38h3.05v.38Zm-6.1,0v-.38h3.05v.38Z"/><path class="cls-1" d="M834.48,69.82v-.38h0v.38Zm-6.1,0v-.38h3.05v.38Zm-6.1,0v-.38h3.05v.38Zm-6.1,0v-.38h3.05v.38Zm-6.1,0v-.38h3.05v.38Zm-6.1,0v-.38h3v.38Zm-6.1,0v-.38h3.05v.38Zm-6.1,0v-.38h3.05v.38Zm-6.1,0v-.38h3v.38Zm-6.1,0v-.38h3.05v.38Zm-6.1,0v-.38h3.05v.38Zm-6.1,0v-.38h3.05v.38Zm-6.1,0v-.38h3.05v.38Zm-6.11,0v-.38h3.06v.38Zm-6.1,0v-.38h3.05v.38Zm-6.1,0v-.38H746v.38Zm-6.1,0v-.38h3.05v.38Zm-6.1,0v-.38h3.05v.38Zm-6.11,0v-.38h3.06v.38Zm-6.1,0v-.38h3v.38Zm-6.1,0v-.38h3.05v.38Zm-6.11,0v-.38h3.05v.38Zm-6.1,0v-.38h3.05v.38Zm-6.1,0v-.38h3.05v.38Zm-6.1,0v-.38H691v.38Zm-6.1,0v-.38h3.05v.38Zm-6.1,0v-.38h3.06v.38Zm-6.1,0v-.38h3.05v.38Zm-6.1,0v-.38h3.05v.38Zm-6.1,0v-.38h3.05v.38Zm-6.1,0v-.38h3.05v.38Zm-6.1,0v-.38h3.05v.38Zm-6.1,0v-.38h3.05v.38Zm-6.1,0v-.38h3.05v.38Zm-6.1,0v-.38H630v.38Zm-6.1,0v-.38h3.05v.38Zm-6.11,0v-.38h3.06v.38Zm-6.1,0v-.38h3.05v.38Zm-6.1,0v-.38h3.05v.38Zm-6.1,0v-.38h3v.38Zm-6.1,0v-.38h3.05v.38Zm-6.1,0v-.38h3v.38Zm-6.1,0v-.38h3.05v.38Zm-6.1,0v-.38h3.05v.38Zm-6.1,0v-.38H569v.38Zm-6.1,0v-.38h3.05v.38Zm-6.1,0v-.38h3.05v.38Zm-6.1,0v-.38h3.05v.38Zm-6.1,0v-.38h3.05v.38Zm-6.11,0v-.38h3.06v.38Zm-6.1,0v-.38h3.05v.38Zm-6.1,0v-.38h3.05v.38Zm-6.1,0v-.38h3.05v.38Zm-6.1,0v-.38H514v.38Zm-6.1,0v-.38h3.05v.38Zm-6.1,0v-.38h3.05v.38Zm-6.1,0v-.38h3.05v.38Zm-6.11,0v-.38h3.05v.38Zm-6.1,0v-.38h3.05v.38Zm-6.1,0v-.38h3.05v.38Zm-6.1,0v-.38h3.05v.38Zm-6.1,0v-.38h3.05v.38Zm-6.1,0v-.38h3.06v.38Zm-6.1,0v-.38H453v.38Zm-6.1,0v-.38h3.05v.38Zm-6.1,0v-.38h3.05v.38Zm-6.1,0v-.38h3.05v.38Zm-6.1,0v-.38h3.05v.38Zm-6.1,0v-.38h3.05v.38Zm-6.11,0v-.38h3.05v.38Zm-6.1,0v-.38h3.05v.38Zm-6.1,0v-.38h3.05v.38Zm-6.1,0v-.38h3.05v.38Zm-6.1,0v-.38h3.05v.38Zm-6.11,0v-.38h3.05v.38Zm-6.1,0v-.38h3.05v.38Zm-6.1,0v-.38h3.05v.38Zm-6.1,0v-.38h3.05v.38Zm-6.1,0v-.38h3.05v.38Zm-6.11,0v-.38h3.06v.38Zm-6.1,0v-.38h3.05v.38Zm-6.1,0v-.38h3.05v.38Zm-6.1,0v-.38H337v.38Zm-6.1,0v-.38h3.05v.38Zm-6.1,0v-.38h3.05v.38Zm-6.11,0v-.38h3.06v.38Zm-6.1,0v-.38h3.05v.38Zm-6.1,0v-.38h3.05v.38Zm-6.1,0v-.38h3.05v.38Zm-6.1,0v-.38h3.05v.38Zm-6.1,0v-.38h3.05v.38Zm-6.11,0v-.38h3.05v.38Zm-6.1,0v-.38H276v.38Zm-6.1,0v-.38h3.05v.38Zm-6.1,0v-.38h3.05v.38Zm-6.1,0v-.38h3.05v.38Zm-6.11,0v-.38h3.05v.38Zm-6.1,0v-.38h3.05v.38Zm-6.1,0v-.38h3.05v.38Zm-6.1,0v-.38h3.05v.38Zm-6.1,0v-.38h3.05v.38Zm-6.11,0v-.38H221v.38Zm-6.1,0v-.38h3.05v.38Zm-6.1,0v-.38h3.05v.38Zm-6.1,0v-.38h3.05v.38Zm-6.1,0v-.38h3.05v.38Zm-6.11,0v-.38h3.06v.38Zm-6.1,0v-.38h3.05v.38Zm-6.1,0v-.38h3.05v.38Zm-6.1,0v-.38h3.05v.38Zm-6.1,0v-.38h3.05v.38Zm-6.1,0v-.38H160v.38Zm-6.11,0v-.38h3.05v.38Zm-6.1,0v-.38h3.05v.38Zm-6.1,0v-.38h3.05v.38Zm-6.1,0v-.38h3.05v.38Zm-6.1,0v-.38h3.05v.38Zm-6.11,0v-.38h3.05v.38Zm-6.1,0v-.38h3.05v.38Zm-6.1,0v-.38h3.05v.38Zm-6.1,0v-.38h3.05v.38Zm-6.1,0v-.38h3.05v.38Zm-6.11,0v-.38h3.05v.38Zm-6.1,0v-.38h3.05v.38Zm-6.1,0v-.38h3.05v.38Zm-6.1,0v-.38h3.05v.38Z"/><path class="cls-1" d="M834.48,37.29v-.38h0v.38Zm-6.1,0v-.38h3.05v.38Zm-6.1,0v-.38h3.05v.38Zm-6.1,0v-.38h3.05v.38Zm-6.1,0v-.38h3.05v.38Zm-6.1,0v-.38h3v.38Zm-6.1,0v-.38h3.05v.38Zm-6.1,0v-.38h3.05v.38Zm-6.1,0v-.38h3v.38Zm-6.1,0v-.38h3.05v.38Zm-6.1,0v-.38h3.05v.38Zm-6.1,0v-.38h3.05v.38Zm-6.1,0v-.38h3.05v.38Zm-6.11,0v-.38h3.06v.38Zm-6.1,0v-.38h3.05v.38Zm-6.1,0v-.38H746v.38Zm-6.1,0v-.38h3.05v.38Zm-6.1,0v-.38h3.05v.38Zm-6.11,0v-.38h3.06v.38Zm-6.1,0v-.38h3v.38Zm-6.1,0v-.38h3.05v.38Zm-6.11,0v-.38h3.05v.38Zm-6.1,0v-.38h3.05v.38Zm-6.1,0v-.38h3.05v.38Zm-6.1,0v-.38H691v.38Zm-6.1,0v-.38h3.05v.38Zm-6.1,0v-.38h3.06v.38Zm-6.1,0v-.38h3.05v.38Zm-6.1,0v-.38h3.05v.38Zm-6.1,0v-.38h3.05v.38Zm-6.1,0v-.38h3.05v.38Zm-6.1,0v-.38h3.05v.38Zm-6.1,0v-.38h3.05v.38Zm-6.1,0v-.38h3.05v.38Zm-6.1,0v-.38H630v.38Zm-6.1,0v-.38h3.05v.38Zm-6.11,0v-.38h3.06v.38Zm-6.1,0v-.38h3.05v.38Zm-6.1,0v-.38h3.05v.38Zm-6.1,0v-.38h3v.38Zm-6.1,0v-.38h3.05v.38Zm-6.1,0v-.38h3v.38Zm-6.1,0v-.38h3.05v.38Zm-6.1,0v-.38h3.05v.38Zm-6.1,0v-.38H569v.38Zm-6.1,0v-.38h3.05v.38Zm-6.1,0v-.38h3.05v.38Zm-6.1,0v-.38h3.05v.38Zm-6.1,0v-.38h3.05v.38Zm-6.11,0v-.38h3.06v.38Zm-6.1,0v-.38h3.05v.38Zm-6.1,0v-.38h3.05v.38Zm-6.1,0v-.38h3.05v.38Zm-6.1,0v-.38H514v.38Zm-6.1,0v-.38h3.05v.38Zm-6.1,0v-.38h3.05v.38Zm-6.1,0v-.38h3.05v.38Zm-6.11,0v-.38h3.05v.38Zm-6.1,0v-.38h3.05v.38Zm-6.1,0v-.38h3.05v.38Zm-6.1,0v-.38h3.05v.38Zm-6.1,0v-.38h3.05v.38Zm-6.1,0v-.38h3.06v.38Zm-6.1,0v-.38H453v.38Zm-6.1,0v-.38h3.05v.38Zm-6.1,0v-.38h3.05v.38Zm-6.1,0v-.38h3.05v.38Zm-6.1,0v-.38h3.05v.38Zm-6.1,0v-.38h3.05v.38Zm-6.11,0v-.38h3.05v.38Zm-6.1,0v-.38h3.05v.38Zm-6.1,0v-.38h3.05v.38Zm-6.1,0v-.38h3.05v.38Zm-6.1,0v-.38h3.05v.38Zm-6.11,0v-.38h3.05v.38Zm-6.1,0v-.38h3.05v.38Zm-6.1,0v-.38h3.05v.38Zm-6.1,0v-.38h3.05v.38Zm-6.1,0v-.38h3.05v.38Zm-6.11,0v-.38h3.06v.38Zm-6.1,0v-.38h3.05v.38Zm-6.1,0v-.38h3.05v.38Zm-6.1,0v-.38H337v.38Zm-6.1,0v-.38h3.05v.38Zm-6.1,0v-.38h3.05v.38Zm-6.11,0v-.38h3.06v.38Zm-6.1,0v-.38h3.05v.38Zm-6.1,0v-.38h3.05v.38Zm-6.1,0v-.38h3.05v.38Zm-6.1,0v-.38h3.05v.38Zm-6.1,0v-.38h3.05v.38Zm-6.11,0v-.38h3.05v.38Zm-6.1,0v-.38H276v.38Zm-6.1,0v-.38h3.05v.38Zm-6.1,0v-.38h3.05v.38Zm-6.1,0v-.38h3.05v.38Zm-6.11,0v-.38h3.05v.38Zm-6.1,0v-.38h3.05v.38Zm-6.1,0v-.38h3.05v.38Zm-6.1,0v-.38h3.05v.38Zm-6.1,0v-.38h3.05v.38Zm-6.11,0v-.38H221v.38Zm-6.1,0v-.38h3.05v.38Zm-6.1,0v-.38h3.05v.38Zm-6.1,0v-.38h3.05v.38Zm-6.1,0v-.38h3.05v.38Zm-6.11,0v-.38h3.06v.38Zm-6.1,0v-.38h3.05v.38Zm-6.1,0v-.38h3.05v.38Zm-6.1,0v-.38h3.05v.38Zm-6.1,0v-.38h3.05v.38Zm-6.1,0v-.38H160v.38Zm-6.11,0v-.38h3.05v.38Zm-6.1,0v-.38h3.05v.38Zm-6.1,0v-.38h3.05v.38Zm-6.1,0v-.38h3.05v.38Zm-6.1,0v-.38h3.05v.38Zm-6.11,0v-.38h3.05v.38Zm-6.1,0v-.38h3.05v.38Zm-6.1,0v-.38h3.05v.38Zm-6.1,0v-.38h3.05v.38Zm-6.1,0v-.38h3.05v.38Zm-6.11,0v-.38h3.05v.38Zm-6.1,0v-.38h3.05v.38Zm-6.1,0v-.38h3.05v.38Zm-6.1,0v-.38h3.05v.38Z"/><polygon class="cls-1" points="71.38 268.45 71.38 266.92 834.39 266.92 834.39 268.45 71.38 268.45 71.38 268.45"/><polygon class="cls-1" points="71.48 4.38 73.01 4.38 73.01 268.45 71.48 268.45 71.48 4.38 71.48 4.38"/><path class="cls-2" d="M374.86,152.18l.6,1.63h0V152l.63-7.88,1.21-.23-1.23,11.81-.63.12L370,145.3l1.31-.25Z"/><path class="cls-2" d="M380.35,143.35l4.89-.92.2,1.08-3.71.7.7,3.73,3.41-.64.2,1.08-3.41.64.76,4,3.79-.71.2,1.08-5,.93Z"/><path class="cls-2" d="M391.58,145.41l-1-1.6h0l.5,1.7,1.31,7-1.13.21-2.1-11.18.71-.13,5.42,6.37,1,1.53h.06l-.48-1.62-1.31-7,1.13-.21,2.1,11.18-.72.14Z"/><path class="cls-2" d="M405.65,139.72l-2.7.51,1.87,9.92-1.18.22-1.87-9.92-2.7.51-.2-1.08,6.59-1.24Z"/><path class="cls-2" d="M413.76,137.07l1.13-.21,1.39,7.37a4.42,4.42,0,0,1-.24,3,2.83,2.83,0,0,1-2,1.3,3.14,3.14,0,0,1-2.59-.41,4,4,0,0,1-1.26-2.51L408.71,138l1.18-.22,1.32,7a8,8,0,0,0,.38,1.41,2.43,2.43,0,0,0,.54.88,1.43,1.43,0,0,0,.73.4,2.45,2.45,0,0,0,1,0,1.52,1.52,0,0,0,1.3-1,5.13,5.13,0,0,0,0-2.4Z"/><path class="cls-2" d="M419,136.2a7.93,7.93,0,0,1,1.1-.4q.61-.17,1.13-.27a4.47,4.47,0,0,1,1.19-.07,2.46,2.46,0,0,1,1.05.32,2.52,2.52,0,0,1,.83.81,3.76,3.76,0,0,1,.51,1.39,3.67,3.67,0,0,1-.15,2.19,2.66,2.66,0,0,1-1.24,1.32l.71.47,3,4-1.37.26-3.26-4.35h-1.22l.95,5-1.18.22Zm2.13,4.86.94-.18a1.88,1.88,0,0,0,1.31-.82,2.42,2.42,0,0,0,.2-1.78,2.33,2.33,0,0,0-.7-1.35,1.53,1.53,0,0,0-1.39-.32l-.65.15a2.94,2.94,0,0,0-.5.17Z"/><path class="cls-2" d="M428.54,134.29l4.89-.92.2,1.08-3.71.7.7,3.73,3.41-.64.2,1.08-3.41.64.76,4,3.79-.71.2,1.08-5,.93Z"/><path class="cls-2" d="M441.45,131.86l4.89-.92.2,1.08-3.71.7.7,3.73,3.41-.64.2,1.08-3.41.64.76,4,3.79-.71.2,1.08-5,.93Z"/><path class="cls-2" d="M450.95,135.77a8.3,8.3,0,0,1,.1-4.41,3,3,0,0,1,2.46-2,3.36,3.36,0,0,1,1.76.08,3.14,3.14,0,0,1,1.34.93,5.79,5.79,0,0,1,1,1.67,12.63,12.63,0,0,1,.65,2.32,8.24,8.24,0,0,1-.11,4.42,3.07,3.07,0,0,1-2.47,2,3.32,3.32,0,0,1-1.74-.09,3.19,3.19,0,0,1-1.35-.93,5.5,5.5,0,0,1-1-1.67A13.15,13.15,0,0,1,450.95,135.77Zm1.24-.23a11.34,11.34,0,0,0,.46,1.74,5.94,5.94,0,0,0,.69,1.38,2.78,2.78,0,0,0,.93.87,1.7,1.7,0,0,0,1.17.17,2,2,0,0,0,1.58-1.47,7.72,7.72,0,0,0,0-3.59,11.34,11.34,0,0,0-.46-1.72,6,6,0,0,0-.69-1.39,2.76,2.76,0,0,0-.93-.87,1.72,1.72,0,0,0-1.19-.17,2,2,0,0,0-1.56,1.47A7.71,7.71,0,0,0,452.19,135.54Zm8.51,6.8a3.19,3.19,0,0,1-.58.26,4.62,4.62,0,0,1-.58.15,4.83,4.83,0,0,1-1.27.07q-.64,0-1.23-.13l-1.14-.15a3.37,3.37,0,0,0-1,0,1.83,1.83,0,0,0-.55.2l-.2-1.08a2.61,2.61,0,0,1,.67-.23,3.65,3.65,0,0,1,1.08,0l1.13.15c.38.06.77.11,1.17.14a4.5,4.5,0,0,0,1.22-.06,4.25,4.25,0,0,0,1.1-.37Z"/><path class="cls-2" d="M466,127.25l1.13-.21,1.39,7.37a4.41,4.41,0,0,1-.24,3,2.82,2.82,0,0,1-2,1.3,3.14,3.14,0,0,1-2.59-.41,4,4,0,0,1-1.26-2.51l-1.43-7.63,1.18-.22,1.32,7a8.05,8.05,0,0,0,.38,1.41,2.44,2.44,0,0,0,.54.88,1.43,1.43,0,0,0,.73.4,2.45,2.45,0,0,0,1,0,1.53,1.53,0,0,0,1.3-1,5.13,5.13,0,0,0,0-2.4Z"/><path class="cls-2" d="M471.39,126.23l1.18-.22,2.07,11-1.18.22Z"/><path class="cls-2" d="M482.87,125.2l-2.7.51,1.87,9.92-1.18.22L479,125.93l-2.71.51-.2-1.08,6.59-1.24Z"/><path class="cls-2" d="M488.89,129.81l-4.14-6.09,1.35-.25,2.88,4.42.38.92h0l0-1,1-5.13,1.27-.24-1.65,7.16.83,4.39-1.18.22Z"/><path class="cls-2" d="M452.77,80.59a5.75,5.75,0,0,1,1-.38q.56-.15,1.11-.25a5.58,5.58,0,0,1,1.27-.08,3,3,0,0,1,1.21.32,2.75,2.75,0,0,1,1,.89,4.07,4.07,0,0,1,.61,1.63,4.41,4.41,0,0,1,0,1.74,3.15,3.15,0,0,1-.57,1.27,3,3,0,0,1-1,.83,4.29,4.29,0,0,1-1.25.43l-.2,0-.3,0-.31,0h-.22l.76,4.19-1.18.21Zm2.4.44-.6.13a2.7,2.7,0,0,0-.45.16L455,86a.53.53,0,0,0,.2,0l.28,0,.28,0,.2,0a3.28,3.28,0,0,0,.83-.26,1.73,1.73,0,0,0,.65-.53,2.14,2.14,0,0,0,.37-.88,3.47,3.47,0,0,0,0-1.29,3,3,0,0,0-.38-1.07,2,2,0,0,0-.6-.62A1.69,1.69,0,0,0,456,81,3.13,3.13,0,0,0,455.17,81Z"/><path class="cls-2" d="M461.92,78.93a7.93,7.93,0,0,1,1.11-.39c.41-.11.79-.2,1.13-.26a4.54,4.54,0,0,1,1.19-.06,2.43,2.43,0,0,1,1.05.33,2.51,2.51,0,0,1,.82.81,3.75,3.75,0,0,1,.51,1.4,3.67,3.67,0,0,1-.16,2.19,2.67,2.67,0,0,1-1.25,1.32l.7.47,3,4-1.37.25-3.23-4.37-1.22,0,.92,5-1.18.21Zm2.1,4.87.94-.17a1.89,1.89,0,0,0,1.32-.81,2.42,2.42,0,0,0,.21-1.78,2.33,2.33,0,0,0-.69-1.35,1.53,1.53,0,0,0-1.39-.33l-.65.14a2.91,2.91,0,0,0-.5.16Z"/><path class="cls-2" d="M471.73,77l1.18-.21,2,11-1.18.21Z"/><path class="cls-2" d="M481,83.13l.59,1.63h0V83l.68-7.88,1.21-.22-1.3,11.8-.63.11-5.42-10.58,1.31-.24Z"/><path class="cls-2" d="M491.6,81.61l-3.11.57-.32,3.24-1.16.21,1.29-11.8.65-.12,5.36,10.59-1.25.23Zm-3-.52,2.51-.46-1.58-3.25L489,75.78h0v1.75Z"/><path class="cls-2" d="M500.56,72.91l-2.71.49,1.8,9.93-1.18.21-1.8-9.93-2.71.49-.2-1.09,6.6-1.2Z"/><path class="cls-2" d="M503.64,71.23l4.9-.89.2,1.09L505,72.1l.68,3.73,3.42-.62.2,1.08-3.42.62.73,4,3.79-.69.2,1.08-5,.9Z"/><path class="cls-2" d="M516.56,68.88l4.9-.89.2,1.09-3.72.68.68,3.73,3.42-.62.2,1.08-3.42.62.73,4,3.79-.69.2,1.08-5,.9Z"/><path class="cls-2" d="M526,72.85a8.3,8.3,0,0,1,.12-4.41,3.05,3.05,0,0,1,2.48-1.95,3.36,3.36,0,0,1,1.76.09,3.15,3.15,0,0,1,1.33.94,5.75,5.75,0,0,1,1,1.68,12.58,12.58,0,0,1,.63,2.32,8.23,8.23,0,0,1-.13,4.42,3.07,3.07,0,0,1-2.48,1.95,3.33,3.33,0,0,1-1.74-.1,3.2,3.2,0,0,1-1.34-.94,5.57,5.57,0,0,1-1-1.68A13.24,13.24,0,0,1,526,72.85Zm1.24-.23a11.27,11.27,0,0,0,.45,1.74,6,6,0,0,0,.68,1.39,2.79,2.79,0,0,0,.92.87,1.69,1.69,0,0,0,1.17.18,2,2,0,0,0,1.59-1.46,7.69,7.69,0,0,0,0-3.59,11.37,11.37,0,0,0-.45-1.72,6.1,6.1,0,0,0-.68-1.4,2.79,2.79,0,0,0-.93-.88,1.72,1.72,0,0,0-1.19-.17A2,2,0,0,0,527.26,69,7.72,7.72,0,0,0,527.28,72.62Zm8.47,6.86a3.19,3.19,0,0,1-.58.26,4.33,4.33,0,0,1-.58.15,4.78,4.78,0,0,1-1.26.06c-.43,0-.83-.08-1.23-.14l-1.14-.15a3.38,3.38,0,0,0-1,0,1.81,1.81,0,0,0-.55.2l-.2-1.08a2.6,2.6,0,0,1,.67-.22,3.66,3.66,0,0,1,1.08,0l1.13.16q.57.1,1.17.15a4.41,4.41,0,0,0,1.22-.06,4.25,4.25,0,0,0,1.1-.36Z"/><path class="cls-2" d="M541.11,64.42l1.13-.21,1.34,7.38a4.4,4.4,0,0,1-.25,3,2.82,2.82,0,0,1-2,1.29,3.14,3.14,0,0,1-2.59-.42A4,4,0,0,1,537.44,73l-1.39-7.63,1.18-.21,1.28,7a8.08,8.08,0,0,0,.37,1.41,2.47,2.47,0,0,0,.53.88,1.45,1.45,0,0,0,.72.4,2.46,2.46,0,0,0,1,0,1.52,1.52,0,0,0,1.31-1,5.12,5.12,0,0,0,0-2.4Z"/><path class="cls-2" d="M546.54,63.43l1.18-.21,2,11-1.18.21Z"/><path class="cls-2" d="M558,62.46l-2.71.49,1.8,9.93-1.18.21-1.8-9.93-2.71.49-.2-1.09,6.6-1.2Z"/><path class="cls-2" d="M564,67.11,559.92,61l1.35-.25,2.86,4.44.38.92h0l0-1L565.62,60l1.28-.23-1.69,7.16.8,4.39-1.18.21Z"/><path class="cls-2" d="M89,247.5a3.57,3.57,0,0,0,.92.2,4,4,0,0,0,1.27-.09,2.29,2.29,0,0,0,1.33-.74,1.65,1.65,0,0,0,.25-1.47,1.87,1.87,0,0,0-.55-1,4.19,4.19,0,0,0-1-.66c-.37-.19-.76-.36-1.17-.53a8.2,8.2,0,0,1-1.19-.59,4.14,4.14,0,0,1-1-.85,3,3,0,0,1-.62-1.32,2.4,2.4,0,0,1,.36-2.12,3.26,3.26,0,0,1,1.92-1.08,6.41,6.41,0,0,1,1.42-.17,3.63,3.63,0,0,1,1.06.14l-.15,1.11a3.23,3.23,0,0,0-.87-.13,4.7,4.7,0,0,0-1.24.13,1.72,1.72,0,0,0-1.16.69,1.46,1.46,0,0,0-.18,1.13,1.63,1.63,0,0,0,.53.9,4.49,4.49,0,0,0,1,.63c.37.18.76.36,1.17.54a8,8,0,0,1,1.2.63,4.45,4.45,0,0,1,1,.89,3.06,3.06,0,0,1,.62,1.34,2.92,2.92,0,0,1-.34,2.34,3.25,3.25,0,0,1-2.12,1.29,5.9,5.9,0,0,1-1.58.17,4.12,4.12,0,0,1-1-.18Z"/><path class="cls-2" d="M95.7,236.08l4.86-1.07.24,1.08-3.69.81.82,3.7,3.39-.75.24,1.08-3.39.75.88,4,3.77-.83.24,1.08L98.11,247Z"/><path class="cls-2" d="M104.43,234.16l4.86-1.07.24,1.08-3.69.81.82,3.7,3.39-.75.24,1.08-3.39.75.88,4,3.77-.83.24,1.08-4.94,1.09Z"/><path class="cls-2" d="M113.17,232.23a5.65,5.65,0,0,1,.54-.19l.61-.17.61-.15.57-.13a4.48,4.48,0,0,1,2,0,3.39,3.39,0,0,1,1.54.83,5,5,0,0,1,1.1,1.58,11.78,11.78,0,0,1,1,4.42,5.43,5.43,0,0,1-.31,2,3.84,3.84,0,0,1-1,1.54,4.19,4.19,0,0,1-2,.92l-.52.11-.66.11-.63.1a3.33,3.33,0,0,1-.46.05Zm2.63.42-.34.07-.35.09-.31.1-.24.08,2,8.91.23,0,.35-.06.35-.06.24,0a2.65,2.65,0,0,0,1.35-.69,2.73,2.73,0,0,0,.69-1.21,4.9,4.9,0,0,0,.15-1.57,11,11,0,0,0-.25-1.81,10.73,10.73,0,0,0-.48-1.6,4.68,4.68,0,0,0-.76-1.31,2.77,2.77,0,0,0-1.1-.81A2.53,2.53,0,0,0,115.8,232.65Z"/><path class="cls-2" d="M129.05,237.12a3.76,3.76,0,0,1-.07-1.22,4.84,4.84,0,0,1,.26-1.14,5.24,5.24,0,0,1,.5-1,8.32,8.32,0,0,1,.64-.88,9.73,9.73,0,0,1-.8-1,3.44,3.44,0,0,1-.51-1.2,2.74,2.74,0,0,1-.06-.76,1.77,1.77,0,0,1,.2-.71,1.74,1.74,0,0,1,.49-.58,2.06,2.06,0,0,1,.84-.37,2.38,2.38,0,0,1,.93,0,1.66,1.66,0,0,1,.68.28,1.62,1.62,0,0,1,.45.5,2.21,2.21,0,0,1,.25.64,2.71,2.71,0,0,1-.12,1.47,5.28,5.28,0,0,1-1,1.66q.3.39.66.81c.24.28.49.56.76.83s.53.54.8.81.53.5.79.72a4.66,4.66,0,0,0,.3-1.16,12.07,12.07,0,0,0,.13-1.36l1,.16c0,.19,0,.42-.08.69s-.08.55-.14.83-.11.55-.18.81a6.37,6.37,0,0,1-.21.66q.65.5,1.08.75a6.17,6.17,0,0,0,.84.43l-.52,1a6,6,0,0,1-1.85-1.12,4.73,4.73,0,0,1-.37.65,3.5,3.5,0,0,1-.51.59,3.31,3.31,0,0,1-.68.5,3.18,3.18,0,0,1-.87.32,3.42,3.42,0,0,1-1.19.06,2.64,2.64,0,0,1-1.07-.38,2.75,2.75,0,0,1-.84-.84A3.87,3.87,0,0,1,129.05,237.12Zm5.23-.2q-.46-.37-.92-.81t-.88-.89c-.28-.3-.55-.59-.79-.88s-.45-.55-.63-.8c-.17.26-.33.51-.47.76a4.25,4.25,0,0,0-.34.77,3.19,3.19,0,0,0-.16.84,3.42,3.42,0,0,0,.08.94,2.58,2.58,0,0,0,.36.88,1.92,1.92,0,0,0,.58.57,2,2,0,0,0,.71.27,2.07,2.07,0,0,0,.77,0,1.76,1.76,0,0,0,.57-.24,2.68,2.68,0,0,0,.49-.4,2.78,2.78,0,0,0,.38-.48A2.87,2.87,0,0,0,134.28,236.92Zm-4.08-6.55a3,3,0,0,0,.35.89,6.78,6.78,0,0,0,.59.84,3.85,3.85,0,0,0,.66-1.2,1.83,1.83,0,0,0,.06-.87,1.59,1.59,0,0,0-.35-.72.69.69,0,0,0-.72-.18.72.72,0,0,0-.57.44A1.38,1.38,0,0,0,130.2,230.37Z"/><path class="cls-2" d="M146.3,232.78l.65,1.61h0l-.06-1.77.39-7.9,1.2-.27-.87,11.84-.62.14-5.81-10.37,1.3-.29Z"/><path class="cls-2" d="M151.51,223.79l4.86-1.07.24,1.08-3.69.81.82,3.7,3.39-.75.24,1.08-3.39.75.88,4,3.77-.83.24,1.08-4.94,1.09Z"/><path class="cls-2" d="M162.8,225.5l-1.05-1.57h0l.55,1.68,1.53,6.94-1.12.25-2.45-11.11.7-.16,5.61,6.2,1,1.5h.06l-.53-1.6-1.52-6.92,1.13-.25,2.45,11.11-.72.16Z"/><path class="cls-2" d="M176.68,219.37,174,220l2.17,9.86-1.17.26-2.17-9.86-2.69.59-.24-1.08,6.55-1.44Z"/><path class="cls-2" d="M184.71,216.47l1.13-.25,1.61,7.33a4.42,4.42,0,0,1-.14,3,2.83,2.83,0,0,1-2,1.37,3.14,3.14,0,0,1-2.6-.33,4,4,0,0,1-1.34-2.47l-1.67-7.58,1.17-.26,1.54,7a7.91,7.91,0,0,0,.42,1.4,2.44,2.44,0,0,0,.57.86,1.44,1.44,0,0,0,.74.38,2.44,2.44,0,0,0,1,0,1.52,1.52,0,0,0,1.27-1,5.13,5.13,0,0,0-.11-2.4Z"/><path class="cls-2" d="M189.89,215.45A8,8,0,0,1,191,215c.4-.13.78-.23,1.12-.3a4.45,4.45,0,0,1,1.19-.11,2.44,2.44,0,0,1,1.06.29,2.52,2.52,0,0,1,.85.78,3.75,3.75,0,0,1,.56,1.38,3.68,3.68,0,0,1-.08,2.2,2.66,2.66,0,0,1-1.2,1.36l.72.45,3.12,3.88-1.36.3L193.57,221l-1.22,0,1.1,5-1.17.26Zm2.28,4.79.94-.21a1.88,1.88,0,0,0,1.29-.86,2.42,2.42,0,0,0,.15-1.79,2.33,2.33,0,0,0-.74-1.33,1.53,1.53,0,0,0-1.4-.28l-.64.17a2.87,2.87,0,0,0-.49.18Z"/><path class="cls-2" d="M199.4,213.24l4.86-1.07.24,1.08-3.69.81.82,3.7L205,217l.24,1.08-3.39.75.88,4,3.77-.83.24,1.08-4.94,1.09Z"/><path class="cls-2" d="M220.26,219.67a2.39,2.39,0,0,1-.88.69,5.51,5.51,0,0,1-1.22.42,3.82,3.82,0,0,1-1.6,0,3.14,3.14,0,0,1-1.43-.73,5.16,5.16,0,0,1-1.18-1.58,10.64,10.64,0,0,1-.85-2.53,9.62,9.62,0,0,1-.26-2.71,5.28,5.28,0,0,1,.47-1.94,3.21,3.21,0,0,1,1-1.24,3.7,3.7,0,0,1,1.36-.61,6.05,6.05,0,0,1,1.27-.17,5,5,0,0,1,.91.08l0,1.13a2.86,2.86,0,0,0-.79-.1,4.65,4.65,0,0,0-1,.12,2.33,2.33,0,0,0-1,.47,2.39,2.39,0,0,0-.69,1,4.41,4.41,0,0,0-.28,1.54,9.18,9.18,0,0,0,.25,2.19,6.29,6.29,0,0,0,1.54,3.26,2.46,2.46,0,0,0,2.33.69,2.93,2.93,0,0,0,.92-.36,3.12,3.12,0,0,0,.64-.51Z"/><path class="cls-2" d="M227,215.43l-3.08.68-.2,3.25-1.16.25.85-11.84.64-.14L229.75,218l-1.23.27Zm-3-.41,2.49-.55-1.7-3.19-.65-1.59h0l.07,1.75Z"/><path class="cls-2" d="M230.47,206.51a5.93,5.93,0,0,1,1-.42q.55-.17,1.1-.29a5.57,5.57,0,0,1,1.27-.13,2.93,2.93,0,0,1,1.21.27,2.75,2.75,0,0,1,1,.86,4.05,4.05,0,0,1,.67,1.6,4.42,4.42,0,0,1,.08,1.74,3.16,3.16,0,0,1-.52,1.29,3,3,0,0,1-1,.87,4.28,4.28,0,0,1-1.23.47l-.2,0-.3.06-.31,0h-.22l.92,4.16-1.17.26Zm2.42.35-.6.15a2.81,2.81,0,0,0-.44.17l1,4.66a.5.5,0,0,0,.2,0l.28,0,.27-.05.2,0a3.26,3.26,0,0,0,.82-.3,1.73,1.73,0,0,0,.63-.56,2.15,2.15,0,0,0,.33-.89,3.46,3.46,0,0,0-.08-1.29,3,3,0,0,0-.42-1.05,2,2,0,0,0-.62-.6,1.71,1.71,0,0,0-.76-.23A3.09,3.09,0,0,0,232.89,206.86Z"/><path class="cls-2" d="M245.34,204.25l-2.69.59,2.17,9.86-1.17.26-2.17-9.86-2.69.59-.24-1.08,6.55-1.44Z"/><path class="cls-2" d="M248.59,202.4l1.17-.26,2.41,10.94-1.17.26Z"/><path class="cls-2" d="M259.95,208.16l-3.08.68-.2,3.25-1.16.25.85-11.84.64-.14,5.74,10.38-1.23.27Zm-3-.41,2.49-.55-1.7-3.19-.65-1.59h0l.07,1.75Z"/><path class="cls-2" d="M271.12,208.91l-5.27,1.16-2.41-10.94,1.17-.26,2.17,9.86,4.09-.9Z"/><path class="cls-2" d="M7.73,262.66A15.67,15.67,0,0,1,7.92,260a5.81,5.81,0,0,1,.58-1.8,2.6,2.6,0,0,1,.94-1,2.49,2.49,0,0,1,1.28-.33,2.63,2.63,0,0,1,1.34.33,2.48,2.48,0,0,1,.94,1,5.85,5.85,0,0,1,.54,1.8,17.08,17.08,0,0,1,.18,2.64,15.63,15.63,0,0,1-.19,2.65,5.8,5.8,0,0,1-.58,1.79,2.62,2.62,0,0,1-.94,1,2.45,2.45,0,0,1-1.27.33,2.61,2.61,0,0,1-1.35-.34,2.53,2.53,0,0,1-.94-1,5.92,5.92,0,0,1-.54-1.8A16.66,16.66,0,0,1,7.73,262.66Zm1.2,0a11.16,11.16,0,0,0,.43,3.52q.43,1.23,1.39,1.23t1.35-1.13a11.24,11.24,0,0,0,.42-3.62,11.79,11.79,0,0,0-.41-3.51q-.41-1.24-1.39-1.24A1.45,1.45,0,0,0,9.36,259,11,11,0,0,0,8.93,262.66Z"/><path class="cls-2" d="M23.73,260.9l.14-1.7h-.06l-.51,1.58L21,265.65h-.4l-2.37-4.86-.5-1.58h-.06l.22,1.7v7.36H16.78v-11.2h1l2.7,5.5.4,1.31h0l.38-1.33,2.56-5.49h1.06v11.2h-1.2Z"/><path class="cls-2" d="M37.11,265.12H33.95l-.89,3.14H31.87l3.38-11.38h.66l3.38,11.38H38Zm-2.84-1h2.55l-1-3.48-.29-1.69h0l-.31,1.72Z"/><path class="cls-2" d="M42.46,257.17a8,8,0,0,1,1.16-.18q.63-.06,1.16-.06a4.5,4.5,0,0,1,1.18.15,2.45,2.45,0,0,1,1,.51,2.53,2.53,0,0,1,.66.94,3.77,3.77,0,0,1,.25,1.46,3.68,3.68,0,0,1-.55,2.13,2.66,2.66,0,0,1-1.46,1.07l.61.59,2.21,4.46H47.26l-2.4-4.88-1.2-.24v5.12h-1.2Zm1.2,5.17h1a1.88,1.88,0,0,0,1.44-.56,2.42,2.42,0,0,0,.53-1.71,2.34,2.34,0,0,0-.44-1.46,1.54,1.54,0,0,0-1.3-.58l-.66,0a2.91,2.91,0,0,0-.52.07Z"/><path class="cls-2" d="M52.22,257.17a8,8,0,0,1,1.16-.18q.63-.06,1.16-.06a4.5,4.5,0,0,1,1.18.15,2.45,2.45,0,0,1,1,.51,2.53,2.53,0,0,1,.66.94,3.77,3.77,0,0,1,.25,1.46,3.68,3.68,0,0,1-.55,2.13,2.66,2.66,0,0,1-1.46,1.07l.61.59,2.21,4.46H57l-2.4-4.88-1.2-.24v5.12h-1.2Zm1.2,5.17h1a1.88,1.88,0,0,0,1.44-.56,2.42,2.42,0,0,0,.53-1.71,2.34,2.34,0,0,0-.44-1.46,1.54,1.54,0,0,0-1.3-.58l-.66,0a2.91,2.91,0,0,0-.52.07Z"/><path class="cls-2" d="M8.62,204.24h1.81v-7.82l.14-.95-.54.77-1.34,1.09-.61-.72L11,193.88h.59v10.35h1.74v1H8.62Z"/><path class="cls-2" d="M23.73,197.92l.14-1.7h-.06l-.51,1.58L21,202.67h-.4l-2.37-4.86-.5-1.58h-.06l.22,1.7v7.36H16.78v-11.2h1l2.7,5.5.4,1.31h0l.38-1.33,2.56-5.49h1.06v11.2h-1.2Z"/><path class="cls-2" d="M37.11,202.14H33.95l-.89,3.14H31.87l3.38-11.38h.66l3.38,11.38H38Zm-2.84-1h2.55l-1-3.48-.29-1.69h0l-.31,1.72Z"/><path class="cls-2" d="M42.46,194.19a8,8,0,0,1,1.16-.18q.63-.06,1.16-.06a4.5,4.5,0,0,1,1.18.15,2.45,2.45,0,0,1,1,.51,2.53,2.53,0,0,1,.66.94,3.77,3.77,0,0,1,.25,1.46,3.68,3.68,0,0,1-.55,2.13,2.66,2.66,0,0,1-1.46,1.07l.61.59,2.21,4.46H47.26l-2.4-4.88-1.2-.24v5.12h-1.2Zm1.2,5.17h1a1.88,1.88,0,0,0,1.44-.56,2.42,2.42,0,0,0,.53-1.71,2.34,2.34,0,0,0-.44-1.46,1.54,1.54,0,0,0-1.3-.58l-.66,0a2.91,2.91,0,0,0-.52.07Z"/><path class="cls-2" d="M52.22,194.19a8,8,0,0,1,1.16-.18q.63-.06,1.16-.06a4.5,4.5,0,0,1,1.18.15,2.45,2.45,0,0,1,1,.51,2.53,2.53,0,0,1,.66.94,3.77,3.77,0,0,1,.25,1.46,3.68,3.68,0,0,1-.55,2.13,2.66,2.66,0,0,1-1.46,1.07l.61.59,2.21,4.46H57l-2.4-4.88-1.2-.24v5.12h-1.2Zm1.2,5.17h1a1.88,1.88,0,0,0,1.44-.56,2.42,2.42,0,0,0,.53-1.71,2.34,2.34,0,0,0-.44-1.46,1.54,1.54,0,0,0-1.3-.58l-.66,0a2.91,2.91,0,0,0-.52.07Z"/><path class="cls-2" d="M12.83,130.9V132h-3v3.28l.54,0a2.56,2.56,0,0,1,2,.88,3.79,3.79,0,0,1,.75,2.48,4.93,4.93,0,0,1-.26,1.58,3.39,3.39,0,0,1-.68,1.16,2.83,2.83,0,0,1-1,.71,3.17,3.17,0,0,1-1.23.24A4.48,4.48,0,0,1,8.14,142l.29-1a2.19,2.19,0,0,0,.64.2,5.15,5.15,0,0,0,.82.06,1.85,1.85,0,0,0,1.48-.67,2.87,2.87,0,0,0,.58-1.88,2.63,2.63,0,0,0-.58-1.83,2.07,2.07,0,0,0-1.58-.6l-1.06.08V130.9Z"/><path class="cls-2" d="M23.73,134.74l.14-1.7h-.06l-.51,1.58L21,139.49h-.4l-2.37-4.86-.5-1.58h-.06l.22,1.7v7.36H16.78V130.9h1l2.7,5.5.4,1.31h0l.38-1.33,2.56-5.49h1.06v11.2h-1.2Z"/><path class="cls-2" d="M37.11,139H33.95l-.89,3.14H31.87l3.38-11.38h.66l3.38,11.38H38Zm-2.84-1h2.55l-1-3.48-.29-1.69h0l-.31,1.72Z"/><path class="cls-2" d="M42.46,131a8,8,0,0,1,1.16-.18q.63-.06,1.16-.06a4.5,4.5,0,0,1,1.18.15,2.45,2.45,0,0,1,1,.51,2.53,2.53,0,0,1,.66.94,3.77,3.77,0,0,1,.25,1.46A3.68,3.68,0,0,1,47.3,136,2.66,2.66,0,0,1,45.84,137l.61.59,2.21,4.46H47.26l-2.4-4.88-1.2-.24v5.12h-1.2Zm1.2,5.17h1a1.88,1.88,0,0,0,1.44-.56,2.42,2.42,0,0,0,.53-1.71,2.34,2.34,0,0,0-.44-1.46,1.54,1.54,0,0,0-1.3-.58l-.66,0a2.91,2.91,0,0,0-.52.07Z"/><path class="cls-2" d="M52.22,131a8,8,0,0,1,1.16-.18q.63-.06,1.16-.06a4.5,4.5,0,0,1,1.18.15,2.45,2.45,0,0,1,1,.51,2.53,2.53,0,0,1,.66.94,3.77,3.77,0,0,1,.25,1.46,3.68,3.68,0,0,1-.55,2.13A2.66,2.66,0,0,1,55.6,137l.61.59,2.21,4.46H57l-2.4-4.88-1.2-.24v5.12h-1.2Zm1.2,5.17h1a1.88,1.88,0,0,0,1.44-.56,2.42,2.42,0,0,0,.53-1.71,2.34,2.34,0,0,0-.44-1.46,1.54,1.54,0,0,0-1.3-.58l-.66,0a2.91,2.91,0,0,0-.52.07Z"/><path class="cls-2" d="M5.18,78.94H0v-.51q.3-.37.7-.93t.82-1.22q.42-.66.83-1.41a15.77,15.77,0,0,0,.73-1.51,11.9,11.9,0,0,0,.52-1.52,5.59,5.59,0,0,0,.2-1.44,2.15,2.15,0,0,0-.37-1.31,1.29,1.29,0,0,0-1.1-.5,2.42,2.42,0,0,0-.9.18,3,3,0,0,0-.76.43l-.45-.83a3.28,3.28,0,0,1,1.06-.6,3.89,3.89,0,0,1,1.3-.22,2.22,2.22,0,0,1,1.8.73A2.88,2.88,0,0,1,5,70.2,7,7,0,0,1,4.73,72a14.19,14.19,0,0,1-.67,1.9,18.42,18.42,0,0,1-.9,1.81q-.5.87-1,1.54L1.52,78v0l.85-.14H5.18Z"/><path class="cls-2" d="M7.73,73.34a15.67,15.67,0,0,1,.19-2.64,5.81,5.81,0,0,1,.58-1.8,2.6,2.6,0,0,1,.94-1,2.49,2.49,0,0,1,1.28-.33,2.63,2.63,0,0,1,1.34.33,2.48,2.48,0,0,1,.94,1,5.85,5.85,0,0,1,.54,1.8,17.08,17.08,0,0,1,.18,2.64A15.63,15.63,0,0,1,13.52,76a5.8,5.8,0,0,1-.58,1.79,2.62,2.62,0,0,1-.94,1,2.45,2.45,0,0,1-1.27.33,2.61,2.61,0,0,1-1.35-.34,2.53,2.53,0,0,1-.94-1A5.92,5.92,0,0,1,7.9,76,16.66,16.66,0,0,1,7.73,73.34Zm1.2,0a11.16,11.16,0,0,0,.43,3.52q.43,1.23,1.39,1.23T12.09,77a11.24,11.24,0,0,0,.42-3.62,11.79,11.79,0,0,0-.41-3.51q-.41-1.24-1.39-1.24a1.45,1.45,0,0,0-1.35,1.12A11,11,0,0,0,8.93,73.34Z"/><path class="cls-2" d="M23.73,71.58l.14-1.7h-.06l-.51,1.58L21,76.33h-.4l-2.37-4.86-.5-1.58h-.06l.22,1.7v7.36H16.78V67.74h1l2.7,5.5.4,1.31h0l.38-1.33,2.56-5.49h1.06v11.2h-1.2Z"/><path class="cls-2" d="M37.11,75.81H33.95l-.89,3.14H31.87l3.38-11.38h.66l3.38,11.38H38Zm-2.84-1h2.55l-1-3.48-.29-1.69h0l-.31,1.72Z"/><path class="cls-2" d="M42.46,67.85a8,8,0,0,1,1.16-.18q.63-.06,1.16-.06a4.5,4.5,0,0,1,1.18.15,2.45,2.45,0,0,1,1,.51,2.53,2.53,0,0,1,.66.94,3.77,3.77,0,0,1,.25,1.46,3.68,3.68,0,0,1-.55,2.13,2.66,2.66,0,0,1-1.46,1.07l.61.59,2.21,4.46H47.26l-2.4-4.88-1.2-.24v5.12h-1.2ZM43.66,73h1a1.88,1.88,0,0,0,1.44-.56,2.42,2.42,0,0,0,.53-1.71,2.34,2.34,0,0,0-.44-1.46,1.54,1.54,0,0,0-1.3-.58l-.66,0a2.91,2.91,0,0,0-.52.07Z"/><path class="cls-2" d="M52.22,67.85a8,8,0,0,1,1.16-.18q.63-.06,1.16-.06a4.5,4.5,0,0,1,1.18.15,2.45,2.45,0,0,1,1,.51,2.53,2.53,0,0,1,.66.94,3.77,3.77,0,0,1,.25,1.46,3.68,3.68,0,0,1-.55,2.13,2.66,2.66,0,0,1-1.46,1.07l.61.59,2.21,4.46H57l-2.4-4.88-1.2-.24v5.12h-1.2ZM53.42,73h1a1.88,1.88,0,0,0,1.44-.56,2.42,2.42,0,0,0,.53-1.71,2.34,2.34,0,0,0-.44-1.46,1.54,1.54,0,0,0-1.3-.58l-.66,0a2.91,2.91,0,0,0-.52.07Z"/><path class="cls-2" d="M4.83,4.57v1.1h-3V9l.54,0a2.56,2.56,0,0,1,2,.88,3.79,3.79,0,0,1,.75,2.48,4.93,4.93,0,0,1-.26,1.58A3.39,3.39,0,0,1,4.16,15a2.83,2.83,0,0,1-1,.71A3.17,3.17,0,0,1,1.92,16a4.48,4.48,0,0,1-1.78-.29l.29-1a2.19,2.19,0,0,0,.64.2,5.15,5.15,0,0,0,.82.06,1.85,1.85,0,0,0,1.48-.67A2.87,2.87,0,0,0,4,12.37a2.63,2.63,0,0,0-.58-1.83,2.07,2.07,0,0,0-1.58-.6L.74,10V4.57Z"/><path class="cls-2" d="M7.73,10.17a15.67,15.67,0,0,1,.19-2.64,5.81,5.81,0,0,1,.58-1.8,2.6,2.6,0,0,1,.94-1,2.49,2.49,0,0,1,1.28-.33,2.63,2.63,0,0,1,1.34.33,2.48,2.48,0,0,1,.94,1,5.85,5.85,0,0,1,.54,1.8,17.08,17.08,0,0,1,.18,2.64,15.63,15.63,0,0,1-.19,2.65,5.8,5.8,0,0,1-.58,1.79,2.62,2.62,0,0,1-.94,1,2.45,2.45,0,0,1-1.27.33,2.61,2.61,0,0,1-1.35-.34,2.53,2.53,0,0,1-.94-1,5.92,5.92,0,0,1-.54-1.8A16.66,16.66,0,0,1,7.73,10.17Zm1.2,0a11.16,11.16,0,0,0,.43,3.52q.43,1.23,1.39,1.23t1.35-1.13a11.24,11.24,0,0,0,.42-3.62,11.79,11.79,0,0,0-.41-3.51q-.41-1.24-1.39-1.24A1.45,1.45,0,0,0,9.36,6.53,11,11,0,0,0,8.93,10.17Z"/><path class="cls-2" d="M23.73,8.41l.14-1.7h-.06L23.3,8.3,21,13.16h-.4L18.27,8.3l-.5-1.58h-.06l.22,1.7v7.36H16.78V4.57h1l2.7,5.5.4,1.31h0l.38-1.33,2.56-5.49h1.06v11.2h-1.2Z"/><path class="cls-2" d="M37.11,12.63H33.95l-.89,3.14H31.87L35.25,4.39h.66l3.38,11.38H38Zm-2.84-1h2.55l-1-3.48-.29-1.69h0l-.31,1.72Z"/><path class="cls-2" d="M42.46,4.68a8,8,0,0,1,1.16-.18q.63-.06,1.16-.06A4.5,4.5,0,0,1,46,4.59a2.45,2.45,0,0,1,1,.51,2.53,2.53,0,0,1,.66.94,3.77,3.77,0,0,1,.25,1.46,3.68,3.68,0,0,1-.55,2.13,2.66,2.66,0,0,1-1.46,1.07l.61.59,2.21,4.46H47.26l-2.4-4.88-1.2-.24v5.12h-1.2Zm1.2,5.17h1a1.88,1.88,0,0,0,1.44-.56,2.42,2.42,0,0,0,.53-1.71,2.34,2.34,0,0,0-.44-1.46,1.54,1.54,0,0,0-1.3-.58l-.66,0a2.91,2.91,0,0,0-.52.07Z"/><path class="cls-2" d="M52.22,4.68a8,8,0,0,1,1.16-.18q.63-.06,1.16-.06a4.5,4.5,0,0,1,1.18.15,2.45,2.45,0,0,1,1,.51,2.53,2.53,0,0,1,.66.94,3.77,3.77,0,0,1,.25,1.46,3.68,3.68,0,0,1-.55,2.13,2.66,2.66,0,0,1-1.46,1.07l.61.59,2.21,4.46H57l-2.4-4.88-1.2-.24v5.12h-1.2Zm1.2,5.17h1a1.88,1.88,0,0,0,1.44-.56,2.42,2.42,0,0,0,.53-1.71,2.34,2.34,0,0,0-.44-1.46,1.54,1.54,0,0,0-1.3-.58l-.66,0a2.91,2.91,0,0,0-.52.07Z"/><path class="cls-3" d="M72.83,266.16l331.9-73.45a327.89,327.89,0,0,0,41.41-12.07l14.16-5.16a51.57,51.57,0,0,0,31.17-31.84L535.62,13.82"/><path class="cls-3" d="M471.31,167.78"/><path class="cls-3" d="M535.62,13.82"/><g class="cls-4"><polygon class="cls-5" points="540.76 15.17 537.95 4.63 530.22 12.33 540.76 15.17"/></g><g class="cls-4"><polygon class="cls-6" points="670.31 48.88 674.7 38.88 663.85 40.08 670.31 48.88"/></g><g class="cls-4"><polygon class="cls-7" points="773.4 9.62 778.56 0 767.65 0.35 773.4 9.62"/></g><path class="cls-8" d="M373.63,167l143.72-28A101.41,101.41,0,0,0,556,122.57L667.43,44.7"/><path class="cls-9" d="M453,102.35l191.32-35A75.83,75.83,0,0,0,666,59.81L770.4,4.76"/></g></g></svg>