<?xml version="1.0" encoding="utf-8"?>
<!-- Generator: Adobe Illustrator 21.0.0, SVG Export Plug-In . SVG Version: 6.00 Build 0)  -->
<svg version="1.1" id="Layer_1" xmlns="http://www.w3.org/2000/svg" xmlns:xlink="http://www.w3.org/1999/xlink" x="0px" y="0px"
	 viewBox="0 0 30.6 26" style="enable-background:new 0 0 30.6 26;" xml:space="preserve">
<style type="text/css">
	.st0{fill:#6FC073;}
	.st1{fill:#5ABA5F;}
	.st2{fill:#40B65F;}
	.st3{fill:#00AB68;}
</style>
<g id="Icons_3_">
	<g id="Color-_3_" transform="translate(-800.000000, -463.000000)">
		<g id="Medium_1_" transform="translate(800.000000, 463.000000)">
			<path id="Fill-1_1_" class="st0" d="M21.2,0.1c-0.5-0.2-0.8,0-0.8,0.5v20.8l8.5,4.3c0.9,0.5,1.7,0.1,1.7-0.7V4.9
				c0-0.1,0-0.2-0.1-0.2L21.2,0.1"/>
			<path id="Fill-2_1_" class="st1" d="M10.2,16.3l9.7-15.8c0.3-0.4,0.9-0.6,1.3-0.4l9.2,4.6c0.1,0,0.1,0.1,0,0.2L20.4,21.5
				L10.2,16.3"/>
			<path id="Fill-3_1_" class="st2" d="M1.4,0.4C0.6,0,0.4,0.3,0.8,1l9.4,15.3l10.2,5.1L10.2,4.8c0,0,0,0-0.1-0.1L1.4,0.4"/>
			<path id="Fill-4_1_" class="st3" d="M10.2,25c0,0.9-0.6,1.3-1.4,0.9l-7.9-4C0.4,21.6,0,21,0,20.5V0.9c0-0.7,0.5-1,1.1-0.7l9,4.5
				c0,0,0.1,0.1,0.1,0.1V25"/>
		</g>
	</g>
</g>
</svg>
