<?xml version="1.0" encoding="utf-8"?>
<!-- Generator: Adobe Illustrator 21.0.0, SVG Export Plug-In . SVG Version: 6.00 Build 0)  -->
<svg version="1.1" id="Layer_1" xmlns="http://www.w3.org/2000/svg" xmlns:xlink="http://www.w3.org/1999/xlink" x="0px" y="0px"
	 viewBox="0 0 26.9 24.4" style="enable-background:new 0 0 26.9 24.4;" xml:space="preserve">
<style type="text/css">
	.st0{fill:#027EBA;}
</style>
<g id="Icons_2_">
	<g id="Color-_2_" transform="translate(-702.000000, -265.000000)">
		<path id="LinkedIn_1_" class="st0" d="M728.9,289.4h-5.9v-8.6c0-2.2-0.9-3.8-3-3.8c-1.6,0-2.4,1-2.8,2c-0.2,0.4-0.1,0.9-0.1,1.4v9
			h-5.9c0,0,0.1-15.2,0-16.6h5.9v2.6c0.3-1.1,2.2-2.8,5.2-2.8c3.7,0,6.6,2.4,6.6,7.5V289.4L728.9,289.4z M705.2,270.8L705.2,270.8
			c-1.9,0-3.2-1.3-3.2-2.9c0-1.6,1.3-2.9,3.2-2.9c1.9,0,3.1,1.2,3.2,2.9C708.4,269.5,707.1,270.8,705.2,270.8L705.2,270.8
			L705.2,270.8z M702.7,272.8h5.2v16.6h-5.2V272.8L702.7,272.8z"/>
	</g>
</g>
</svg>
