<?xml version="1.0" encoding="utf-8"?>
<!-- Generator: Adobe Illustrator 21.0.0, SVG Export Plug-In . SVG Version: 6.00 Build 0)  -->
<svg version="1.1" id="Layer_1" xmlns="http://www.w3.org/2000/svg" xmlns:xlink="http://www.w3.org/1999/xlink" x="0px" y="0px"
	 viewBox="0 0 120 120" style="enable-background:new 0 0 120 120;" xml:space="preserve">
<style type="text/css">
	.st0{fill:#84D4F6;}
	.st1{fill:#FFFFFF;}
</style>
<g>
	<g id="bg_88_">
		<g>
			<circle class="st0" cx="60" cy="60" r="60"/>
		</g>
	</g>
	<g>
		<path class="st1" d="M82,59.3c-0.8,0-1.4-0.6-1.4-1.4c0-0.8,0.6-1.4,1.4-1.4c1.5,0,2.6-1.1,2.6-2.5s-1.2-2.5-2.6-2.5
			c-0.8,0-1.4-0.6-1.4-1.4c0-0.8,0.6-1.4,1.4-1.4c3.1,0,5.5,2.4,5.5,5.4C87.5,57,85.1,59.3,82,59.3z"/>
		<path class="st1" d="M82,64.3c-0.8,0-1.4-0.6-1.4-1.4c0-0.8,0.6-1.4,1.4-1.4c4.3,0,7.7-3.3,7.7-7.5c0-4.2-3.4-7.5-7.7-7.5
			c-0.8,0-1.4-0.6-1.4-1.4c0-0.8,0.6-1.4,1.4-1.4c5.9,0,10.6,4.5,10.6,10.4S87.9,64.3,82,64.3z"/>
		<path class="st1" d="M81.9,69.5c-0.8,0-1.4-0.6-1.4-1.4c0-0.8,0.6-1.4,1.4-1.4c7.3,0,13-5.6,13-12.7c0-7.1-5.7-12.7-13-12.7
			c-0.8,0-1.4-0.6-1.4-1.4c0-0.8,0.6-1.4,1.4-1.4c8.9,0,15.9,6.8,15.9,15.5C97.8,62.7,90.8,69.5,81.9,69.5z"/>
		<path class="st1" d="M29.8,54.8c0,6.5,5.3,11.8,11,12.6V42.2C35.1,43,29.8,48.3,29.8,54.8z"/>
		<path class="st1" d="M74.1,26.2c-0.5-0.2-1.1-0.1-1.5,0.3L57.9,39.8v29.4l14.7,12.3c0.3,0.2,0.6,0.3,0.9,0.3c0.2,0,0.4,0,0.6-0.1
			c0.5-0.2,0.8-0.7,0.8-1.3v-53C74.9,26.9,74.6,26.4,74.1,26.2z"/>
		<g>
			<path class="st1" d="M60.6,85.4l-4.3-14.9H44.8l4.6,16c0.2,0.6,0.7,1,1.4,1h8.5c0,0,0,0,0.1,0c0.8,0,1.4-0.6,1.4-1.4
				C60.8,85.8,60.7,85.6,60.6,85.4z"/>
			<polygon class="st1" points="55.5,67.6 55,66 55,42 49.4,42 43.7,42 43.7,67.6 44,67.6 			"/>
		</g>
	</g>
</g>
</svg>
