<?xml version="1.0" encoding="utf-8"?>
<!-- Generator: Adobe Illustrator 21.0.0, SVG Export Plug-In . SVG Version: 6.00 Build 0)  -->
<svg version="1.1" id="Layer_1" xmlns="http://www.w3.org/2000/svg" xmlns:xlink="http://www.w3.org/1999/xlink" x="0px" y="0px"
	 viewBox="0 0 120 120" style="enable-background:new 0 0 120 120;" xml:space="preserve">
<style type="text/css">
	.st0{fill:#D55566;}
	.st1{fill:#FFFFFF;}
</style>
<g>
	<g id="bg_98_">
		<g>
			<circle class="st0" cx="60.5" cy="59.9" r="59.5"/>
		</g>
	</g>
	<g>
		<path class="st1" d="M90.1,51.5c-1.1-1.9-4.2-7.2-4.6-9.2c-2.3-9.7-7.9-15.2-15.4-15.2c-1.3,0-2.4,0.2-3.6,0.5
			c0.8,0.8,1.5,1.7,2,2.8c1.3,2.8,1.6,5.9-0.8,8.6v1.6c1.2,1.2,2.4,2.7,2.4,4.4v4.8c0,2.1-1.2,4.3-3.8,5.4c-0.4,2.4-1.4,4.9-2.8,7
			c1.9,0.4,4.1,0.7,6.6,0.7c13.9,0,18.9-7.8,20.1-10.2C90.3,52.3,90.3,51.9,90.1,51.5z"/>
		<path class="st1" d="M77.2,67.9l-1-3.2c-1.9,0.3-3.9,0.5-6.2,0.5c-2.8,0-5.3-0.3-7.6-0.8L62,65.6l0.6,0.8h1.7
			c8.9,0,15.3,6,15.3,14.3v1.2c0,0.4-0.1,1.2-0.2,1.2H95c0.7,0,1.2-0.5,1.2-1.2v-1.2C96.2,73.5,84.3,68.3,77.2,67.9z"/>
		<path class="st1" d="M51,67.6c-7,0-12.5-7.5-13.1-14.4c-2.5-0.4-3.6-1.9-3.6-3.5V45c0-1.5,1.2-2.6,2.4-3.1v-4
			c0-4.3,1.4-8.2,11.5-8.3c3.4-2.4,6.7-3,8.9-3c4.2,0,7.8,1.9,9.2,4.9c1,2.2,0.2,4.6-1,6.8v3.6c1.2,0.5,2.4,1.6,2.4,3.1v4.8
			c0,1.6-1.1,3.1-3.6,3.5C63.5,60.1,58,67.6,51,67.6z"/>
		<path class="st1" d="M64.3,68.8h-2.9l-1.6-2.2C57.3,68.6,54.3,70,51,70c-3.3,0-6.3-1.3-8.7-3.4l-1.5,2.2h-2.9
			c-7.6,0-13.1,5-13.1,11.9v1.2c0,0.7,0.6,1.2,1.2,1.2h50c0.7,0,1.2-0.5,1.2-1.2v-1.2C77.2,73.7,71.9,68.8,64.3,68.8z"/>
	</g>
</g>
</svg>
