<?xml version="1.0" encoding="utf-8"?>
<!-- Generator: Adobe Illustrator 21.0.0, SVG Export Plug-In . SVG Version: 6.00 Build 0)  -->
<svg version="1.1" id="Layer_1" xmlns="http://www.w3.org/2000/svg" xmlns:xlink="http://www.w3.org/1999/xlink" x="0px" y="0px"
	 viewBox="0 0 120 120" style="enable-background:new 0 0 120 120;" xml:space="preserve">
<style type="text/css">
	.st0{fill:#8E3F97;}
	.st1{fill:#FFFFFF;}
</style>
<g>
	<g id="bg_81_">
		<g>
			<circle class="st0" cx="60.5" cy="60" r="60"/>
		</g>
	</g>
	<g>
		<g>
			<path class="st1" d="M60.5,47.7c7.1,0,13.2-2.5,14.6-5.8c-0.9-4.1-7-7.2-14.6-7.2c-7.6,0-13.7,3.1-14.6,7.2
				C47.3,45.2,53.4,47.7,60.5,47.7z"/>
			<path class="st1" d="M60.5,50.2c-6.4,0-12.4-1.8-14.9-4.6v14.8c0,5,6.4,8.7,14.8,8.7c8.9,0,14.8-3.1,14.8-7.8V45.7
				C72.8,48.4,66.8,50.2,60.5,50.2z"/>
		</g>
		<path class="st1" d="M77.7,54.2v7.1c0,6.2-6.8,10.3-17.3,10.3c-10,0-17.3-4.7-17.3-11.2v-6.2c-7.4,2.6-11,6.7-11,11.2
			c0,7.9,12.5,14.2,28.4,14.2c15.9,0,28.4-6.2,28.4-14.2C88.9,61,85.1,56.9,77.7,54.2z"/>
	</g>
</g>
</svg>
