<?xml version="1.0" encoding="utf-8"?>
<!-- Generator: Adobe Illustrator 21.0.0, SVG Export Plug-In . SVG Version: 6.00 Build 0)  -->
<svg version="1.1" id="Layer_1" xmlns="http://www.w3.org/2000/svg" xmlns:xlink="http://www.w3.org/1999/xlink" x="0px" y="0px"
	 viewBox="0 0 120 120" style="enable-background:new 0 0 120 120;" xml:space="preserve">
<style type="text/css">
	.st0{fill:#009588;}
	.st1{fill:#FFFFFF;}
</style>
<g>
	<g id="bg_95_">
		<g>
			<circle class="st0" cx="60" cy="59.9" r="60"/>
		</g>
	</g>
	<g>
		<path class="st1" d="M30.4,56.3c-0.1-0.4-0.4-0.7-0.8-0.9c-0.4-0.2-0.8-0.2-1.2-0.1l-5,1.7c-0.8,0.3-1.2,1.1-0.9,1.9L26,69
			c0.2,0.6,0.8,1,1.4,1c0.2,0,0.3,0,0.5-0.1l5-1.7c0.8-0.3,1.2-1.1,0.9-1.9L30.4,56.3z"/>
		<path class="st1" d="M94.6,39.4c-0.8-2.3-2.5-4.2-4.7-5.3c-1.9-0.9-4-1.1-6.2-0.7l-0.4-1.2c-0.1-0.4-0.4-0.7-0.8-0.9
			c-0.4-0.2-0.8-0.2-1.2-0.1l-9.9,3.5c-0.4,0.1-0.7,0.4-0.9,0.8c-0.2,0.4-0.2,0.8-0.1,1.2l6.9,19.9c0.1,0.4,0.4,0.7,0.8,0.9
			c0.2,0.1,0.4,0.2,0.7,0.2c0.2,0,0.3,0,0.5-0.1l9.9-3.5c0.8-0.3,1.2-1.1,0.9-1.9l-0.4-1.2C94.1,48.7,96.2,44,94.6,39.4z"/>
		<path class="st1" d="M65.5,64.1l4.4-1.5c0.8-0.3,1.2-1.1,0.9-1.9c-0.3-0.8-1.1-1.2-1.9-0.9L56.5,64c-0.8,0.3-1.2,1.1-0.9,1.9
			c0.2,0.6,0.8,1,1.4,1c0.2,0,0.3,0,0.5-0.1l2-0.7L46.2,86.8c-0.5,0.7-0.3,1.6,0.5,2.1c0.3,0.2,0.5,0.2,0.8,0.2c0.5,0,1-0.2,1.3-0.7
			l14.5-22.4l14.5,22.4c0.3,0.5,0.8,0.7,1.3,0.7c0.3,0,0.6-0.1,0.8-0.2c0.7-0.5,0.9-1.4,0.5-2.1L65.5,64.1z"/>
		<path class="st1" d="M49,48.2L40.9,51c-0.8,0.3-1.2,1.1-0.9,1.9l0.4,1.1l-6.7,2.3l2.7,7.8l6.7-2.3l0.4,1.1
			c0.1,0.4,0.4,0.7,0.8,0.9c0.2,0.1,0.4,0.2,0.7,0.2c0.2,0,0.3,0,0.5-0.1l8.1-2.8L49,48.2z"/>
		<path class="st1" d="M56.7,61c0.2,0.6,0.8,1,1.4,1c0.2,0,0.3,0,0.5-0.1l15.6-5.4L68,38.8l-15.6,5.4c-0.8,0.3-1.2,1.1-0.9,1.9
			L56.7,61z"/>
	</g>
</g>
</svg>
