<?xml version="1.0" encoding="utf-8"?>
<!-- Generator: Adobe Illustrator 21.0.0, SVG Export Plug-In . SVG Version: 6.00 Build 0)  -->
<svg version="1.1" id="Layer_1" xmlns="http://www.w3.org/2000/svg" xmlns:xlink="http://www.w3.org/1999/xlink" x="0px" y="0px"
	 viewBox="0 0 120 120" style="enable-background:new 0 0 120 120;" xml:space="preserve">
<style type="text/css">
	.st0{fill:#61C2A6;}
	.st1{fill:#FFFFFF;}
</style>
<g>
	<g id="bg_78_">
		<g>
			<circle class="st0" cx="60.5" cy="60.5" r="59"/>
		</g>
	</g>
	<g>
		<path class="st1" d="M56.1,47.1l-4.7,28.4c0,0.3,0,0.6,0.1,0.8l7.8,15.6c0.2,0.4,0.7,0.7,1.2,0.7s0.9-0.3,1.2-0.7l7.8-15.6
			c0.1-0.2,0.2-0.5,0.1-0.8l-4.7-28.4H56.1z"/>
		<path class="st1" d="M69.9,32c-0.2-0.3-0.6-0.5-1-0.5H52.2c-0.4,0-0.8,0.2-1,0.5c-0.2,0.3-0.3,0.8-0.2,1.2l3.1,10.4
			c0.2,0.6,0.7,0.9,1.2,0.9h1.3h7.8h1.3c0.6,0,1.1-0.4,1.2-0.9l3.1-10.4C70.2,32.8,70.1,32.3,69.9,32z"/>
	</g>
</g>
</svg>
