<?xml version="1.0" encoding="utf-8"?>
<!-- Generator: Adobe Illustrator 21.0.0, SVG Export Plug-In . SVG Version: 6.00 Build 0)  -->
<svg version="1.1" id="Layer_1" xmlns="http://www.w3.org/2000/svg" xmlns:xlink="http://www.w3.org/1999/xlink" x="0px" y="0px"
	 viewBox="0 0 120 120" style="enable-background:new 0 0 120 120;" xml:space="preserve">
<style type="text/css">
	.st0{fill:#EE4338;}
	.st1{fill:#FFFFFF;}
</style>
<g>
	<g id="bg_91_">
		<g>
			<circle class="st0" cx="60.5" cy="59.9" r="60"/>
		</g>
	</g>
	<g>
		<rect x="52.1" y="51.4" class="st1" width="16.8" height="2.4"/>
		<path class="st1" d="M82.1,68.2H68.9h-2.4h-12h-4.8H38.9c-0.7,0-1.2,0.6-1.2,1.2v14.4c0,0.7,0.6,1.2,1.2,1.2h6v-9.6
			c0-0.7,0.5-1.2,1.2-1.2c0.7,0,1.2,0.5,1.2,1.2V85h26.4v-9.6c0-0.7,0.5-1.2,1.2-1.2c0.7,0,1.2,0.5,1.2,1.2V85h6
			c0.7,0,1.2-0.5,1.2-1.2V69.4C83.3,68.7,82.8,68.2,82.1,68.2z"/>
		<rect x="54.5" y="63.4" class="st1" width="12" height="2.4"/>
		<path class="st1" d="M46.1,61h3.6h4.8h12h2.4h6c0.7,0,1.2-0.5,1.2-1.2V38.2c0-0.7-0.5-1.2-1.2-1.2H61.7v-7.2
			c0-0.7-0.5-1.2-1.2-1.2c-0.7,0-1.2,0.5-1.2,1.2V37H46.1c-0.7,0-1.2,0.6-1.2,1.2v21.6C44.9,60.5,45.5,61,46.1,61z M66.5,41.8
			c1.3,0,2.4,1.1,2.4,2.4c0,1.3-1.1,2.4-2.4,2.4c-1.3,0-2.4-1.1-2.4-2.4C64.1,42.9,65.2,41.8,66.5,41.8z M54.5,41.8
			c1.3,0,2.4,1.1,2.4,2.4c0,1.3-1.1,2.4-2.4,2.4c-1.3,0-2.4-1.1-2.4-2.4C52.1,42.9,53.2,41.8,54.5,41.8z M49.7,50.2
			c0-0.7,0.6-1.2,1.2-1.2h19.2c0.7,0,1.2,0.6,1.2,1.2V55c0,0.7-0.5,1.2-1.2,1.2H50.9c-0.7,0-1.2-0.5-1.2-1.2V50.2z"/>
	</g>
</g>
</svg>
