<?xml version="1.0" encoding="utf-8"?>
<!-- Generator: Adobe Illustrator 21.0.0, SVG Export Plug-In . SVG Version: 6.00 Build 0)  -->
<svg version="1.1" id="Layer_1" xmlns="http://www.w3.org/2000/svg" xmlns:xlink="http://www.w3.org/1999/xlink" x="0px" y="0px"
	 viewBox="0 0 120 120" style="enable-background:new 0 0 120 120;" xml:space="preserve">
<style type="text/css">
	.st0{fill:#E71E63;}
	.st1{fill:#FFFFFF;}
</style>
<g>
	<g id="bg_75_">
		<g>
			<circle class="st0" cx="60" cy="60.5" r="60"/>
		</g>
	</g>
	<g>
		<path class="st1" d="M60,46c-7.3,0-13.2,5.9-13.2,13.2S52.7,72.4,60,72.4c7.3,0,13.2-5.9,13.2-13.2S67.3,46,60,46z M60,67.6
			c-4.6,0-8.4-3.8-8.4-8.4s3.8-8.4,8.4-8.4s8.4,3.8,8.4,8.4S64.6,67.6,60,67.6z"/>
		<path class="st1" d="M85.6,65.1c-2.9-0.4-5.2-3-5.2-5.9c0-3,2.2-5.5,5.2-5.9c0.3,0,0.6-0.2,0.8-0.5c0.2-0.3,0.2-0.6,0.2-1
			c-0.6-2.2-1.5-4.2-2.5-6.1c-0.2-0.3-0.5-0.5-0.8-0.6c-0.3-0.1-0.7,0-1,0.2c-2.3,1.7-5.8,1.5-7.8-0.5c-2.1-2.1-2.3-5.5-0.5-7.8
			c0.2-0.3,0.3-0.6,0.2-1c-0.1-0.3-0.3-0.6-0.6-0.8c-1.9-1.1-4-1.9-6.1-2.5c-0.3-0.1-0.7,0-1,0.2c-0.3,0.2-0.5,0.5-0.5,0.8
			c-0.4,2.9-3,5.2-5.9,5.2c-3,0-5.5-2.2-5.9-5.2c0-0.3-0.2-0.6-0.5-0.8c-0.3-0.2-0.6-0.2-1-0.2c-2.2,0.6-4.2,1.5-6.1,2.5
			c-0.3,0.2-0.5,0.5-0.6,0.8c-0.1,0.3,0,0.7,0.2,1c1.8,2.4,1.6,5.7-0.5,7.8c-2,2-5.5,2.3-7.8,0.5c-0.3-0.2-0.6-0.3-1-0.2
			c-0.3,0.1-0.6,0.3-0.8,0.6c-1.1,1.9-1.9,4-2.5,6.1c-0.1,0.3,0,0.7,0.2,1c0.2,0.3,0.5,0.5,0.8,0.5c2.9,0.4,5.2,2.9,5.2,5.9
			c0,3-2.2,5.5-5.2,5.9c-0.3,0-0.6,0.2-0.8,0.5c-0.2,0.3-0.2,0.6-0.2,1c0.6,2.2,1.4,4.2,2.5,6.1c0.2,0.3,0.5,0.5,0.8,0.6
			c0.3,0.1,0.7,0,1-0.2c2.3-1.7,5.8-1.5,7.8,0.5c2.1,2.1,2.3,5.5,0.5,7.8c-0.2,0.3-0.3,0.6-0.2,1c0.1,0.3,0.3,0.6,0.6,0.8
			c1.9,1.1,4,1.9,6.1,2.5c0.3,0.1,0.7,0,1-0.2c0.3-0.2,0.5-0.5,0.5-0.8c0.4-2.9,3-5.2,5.9-5.2c3,0,5.5,2.2,5.9,5.2
			c0,0.3,0.2,0.6,0.5,0.8c0.2,0.1,0.4,0.2,0.7,0.2c0.1,0,0.2,0,0.3,0c2.2-0.6,4.2-1.5,6.1-2.5c0.3-0.2,0.5-0.5,0.6-0.8
			c0.1-0.3,0-0.7-0.2-1c-1.8-2.4-1.6-5.7,0.5-7.8c2-2,5.5-2.3,7.8-0.5c0.3,0.2,0.6,0.3,1,0.2c0.3-0.1,0.6-0.3,0.8-0.6
			c1.1-1.9,1.9-4,2.5-6.1c0.1-0.3,0-0.7-0.2-1C86.2,65.4,85.9,65.2,85.6,65.1z M60,74.8c-8.6,0-15.6-7-15.6-15.6s7-15.6,15.6-15.6
			s15.6,7,15.6,15.6S68.6,74.8,60,74.8z"/>
		<circle class="st1" cx="60" cy="59.2" r="6"/>
	</g>
</g>
</svg>
