<?xml version="1.0" encoding="utf-8"?>
<!-- Generator: Adobe Illustrator 21.0.0, SVG Export Plug-In . SVG Version: 6.00 Build 0)  -->
<svg version="1.1" id="Layer_1" xmlns="http://www.w3.org/2000/svg" xmlns:xlink="http://www.w3.org/1999/xlink" x="0px" y="0px"
	 viewBox="0 0 120 120" style="enable-background:new 0 0 120 120;" xml:space="preserve">
<style type="text/css">
	.st0{fill:#05BBD3;}
	.st1{fill:#FFFFFF;}
</style>
<g>
	<g id="bg_71_">
		<g>
			<circle class="st0" cx="60" cy="60" r="60"/>
		</g>
	</g>
	<g>
		<path class="st1" d="M43.2,60.2c0.4,6.1,2.2,12.2,5.2,18.3h23.1c3-6.1,4.8-12.2,5.2-18.3H43.2z"/>
		<path class="st1" d="M40.1,55.6c0.3-5.9,1.7-12,4.1-16.6H31.2c-3.6,4.6-5.8,12.2-6.1,18.3h15C40.1,57.2,40,56.1,40.1,55.6z"/>
		<path class="st1" d="M43.1,57.2h33.7c0,0,0.1-1,0-1.5c-0.3-6-1.8-12.2-4.4-16.7H47.5c-2.6,4.6-4.2,10.7-4.4,16.7
			C43.1,56.2,43.1,57.2,43.1,57.2z"/>
		<path class="st1" d="M50.1,81.5c2.6,4.6,6,8,9.9,11.3c3.9-3.3,7.2-6.7,9.9-11.3H50.1z"/>
		<path class="st1" d="M75,78.5h13.8c3.6-4.6,5.8-12.2,6-18.3h-15C79.5,66.3,77.8,72.4,75,78.5z"/>
		<path class="st1" d="M49.3,35.9h21.5C68,31.3,64.4,27.7,60,24.6C55.6,27.7,52,31.3,49.3,35.9z"/>
		<path class="st1" d="M46.6,81.5H33.5c5.6,6.1,13.6,11,22.7,12C52.3,90,49.1,86.1,46.6,81.5z"/>
		<path class="st1" d="M73.4,81.5c-2.5,4.6-5.8,8.5-9.6,12c9-1,17-5.9,22.7-12H73.4z"/>
		<path class="st1" d="M40.1,60.2h-15c0.3,6.1,2.4,13.7,6,18.3H45C42.2,72.4,40.5,66.3,40.1,60.2z"/>
		<path class="st1" d="M45.7,35.9c2.5-4.6,5.9-8.5,10-11.8c-8.8,1.1-16.5,5.7-22,11.8H45.7z"/>
		<path class="st1" d="M75.8,38.9c2.4,4.6,3.8,10.7,4.1,16.6c0,0.5,0,1.6,0,1.6h14.9c-0.3-6.1-2.5-13.7-6.1-18.3H75.8z"/>
		<path class="st1" d="M74.3,35.9h12.1c-5.5-6.1-13.3-10.7-22-11.8C68.4,27.5,71.8,31.3,74.3,35.9z"/>
	</g>
</g>
</svg>
