<?xml version="1.0" encoding="utf-8"?>
<!-- Generator: Adobe Illustrator 21.0.0, SVG Export Plug-In . SVG Version: 6.00 Build 0)  -->
<svg version="1.1" id="Layer_1" xmlns="http://www.w3.org/2000/svg" xmlns:xlink="http://www.w3.org/1999/xlink" x="0px" y="0px"
	 viewBox="0 0 120 120" style="enable-background:new 0 0 120 120;" xml:space="preserve">
<style type="text/css">
	.st0{fill:#4554A4;}
	.st1{fill:#FFFFFF;}
</style>
<g>
	<g id="bg_84_">
		<g>
			<circle class="st0" cx="60.5" cy="60" r="60"/>
		</g>
	</g>
	<g>
		<path class="st1" d="M89.1,59.3l-8.7-11.7l4.7-13.8c0.2-0.5,0-1-0.3-1.3c-0.3-0.3-0.9-0.5-1.3-0.3l-13.8,4.7L58,28.3
			c-0.4-0.3-0.9-0.3-1.3-0.1c-0.4,0.2-0.7,0.7-0.7,1.2l0.2,14.5l-11.9,8.4c-0.4,0.3-0.6,0.8-0.5,1.2c0.1,0.5,0.4,0.9,0.9,1l13.9,4.3
			l4.3,13.9c0.1,0.5,0.5,0.8,1,0.9c0.1,0,0.1,0,0.2,0c0.4,0,0.8-0.2,1-0.5l8.4-11.9l14.5,0.2c0.4,0,0.9-0.3,1.2-0.7
			C89.4,60.2,89.4,59.7,89.1,59.3z"/>
		<path class="st1" d="M53.2,62.8L32,84c-0.5,0.5-0.5,1.3,0,1.8c0.3,0.3,0.6,0.4,0.9,0.4c0.3,0,0.7-0.1,0.9-0.4l21.2-21.2
			c0.5-0.5,0.5-1.3,0-1.8C54.6,62.3,53.7,62.3,53.2,62.8z"/>
	</g>
</g>
</svg>
