<?xml version="1.0" encoding="utf-8"?>
<!-- Generator: Adobe Illustrator 21.0.0, SVG Export Plug-In . SVG Version: 6.00 Build 0)  -->
<svg version="1.1" id="Layer_1" xmlns="http://www.w3.org/2000/svg" xmlns:xlink="http://www.w3.org/1999/xlink" x="0px" y="0px"
	 viewBox="0 0 125 42.6" style="enable-background:new 0 0 125 42.6;" xml:space="preserve">
<style type="text/css">
	.st0{fill:#FFFFFF;}
</style>
<g id="XMLID_306_">
	<g>
		<g id="XMLID_250_">
			<g>
				<path id="XMLID_270_" class="st0" d="M-0.2,40.4l1.5-2.5c1.2,0.9,2.5,1.5,3.5,1.5c1,0,1.4-0.5,1.4-1v0c0-0.8-1-1.1-2.4-1.7
					c-1.9-0.8-3.5-1.8-3.5-4v0c0-2.6,2-4.1,4.6-4.1c1.4,0,3,0.5,4.4,1.4l-1.4,2.5c-1-0.6-2.1-1.1-3-1.1c-0.8,0-1.3,0.4-1.3,0.9v0
					c0,0.7,1,1.1,2.4,1.7c1.9,0.9,3.5,1.9,3.5,4v0c0,2.8-2,4.1-4.7,4.1C3.3,42.2,1.4,41.7-0.2,40.4z"/>
				<path id="XMLID_268_" class="st0" d="M11.2,35.5v-0.3c0-3.9,2.6-6.8,6.1-6.8c1.9,0,3.2,0.6,4.3,1.8l-1.9,2.6
					c-0.6-0.7-1.3-1.2-2.4-1.2c-1.6,0-2.7,1.5-2.7,3.7v0.1c0,2.2,1,3.7,2.8,3.7c1,0,1.7-0.5,2.4-1.2l1.9,2.3c-1.1,1.2-2.4,2-4.5,2
					C13.7,42.3,11.2,39.5,11.2,35.5z"/>
				<path id="XMLID_265_" class="st0" d="M23,38.2V38c0-2.9,1.9-4.2,4.6-4.2c1.1,0,2,0.2,2.8,0.5V34c0-1.5-0.9-2.3-2.5-2.3
					c-1.2,0-2.2,0.4-3,0.7l-1-2.8c1.3-0.6,2.6-1.1,4.5-1.1c1.8,0,3.2,0.5,4,1.4c0.9,0.9,1.4,2.3,1.4,4V42h-3.4v-1.4
					c-0.8,1-1.9,1.7-3.4,1.7C24.7,42.2,23,40.8,23,38.2z M30.4,37.6v-1.1c-0.5-0.2-1.2-0.4-2-0.4c-1.3,0-2.1,0.6-2.1,1.9v0
					c0,1.1,0.7,1.6,1.7,1.7C29.4,39.7,30.4,38.8,30.4,37.6z"/>
				<polygon id="XMLID_264_" class="st0" points="36.6,23 36.6,42 40.2,42 40.2,21.7 				"/>
				<path id="XMLID_261_" class="st0" d="M42.6,35.5v-0.2c0-3.9,2.5-6.8,5.8-6.8c3.8,0,5.7,3.1,5.7,7.1c0,0.2,0,0.6,0,1.1h-7.9
					c0.3,1.8,1.4,2.7,2.9,2.7c1.1,0,1.9-0.5,2.8-1.3l1.8,2.1c-1.2,1.3-2.8,2.1-4.7,2.1C45.3,42.3,42.6,39.6,42.6,35.5z M50.6,34.3
					c-0.1-1.8-0.9-3-2.3-3c-1.3,0-2.1,1.1-2.3,3H50.6z"/>
				<path id="XMLID_259_" class="st0" d="M55,28.7h3.5l1.8,7.9l2.1-7.9h3l2.1,7.9l1.8-7.9h3.5l-3.6,13.4H66l-2.1-7.9l-2.2,7.9h-3.2
					L55,28.7z"/>
				<path id="XMLID_256_" class="st0" d="M73.7,35.5v-0.3c0-3.9,2.7-6.8,6.3-6.8s6.2,2.8,6.2,6.8v0.3c0,3.9-2.7,6.8-6.2,6.8
					C76.3,42.3,73.7,39.5,73.7,35.5z M82.7,35.5v-0.2c0-2.2-1.1-3.8-2.8-3.8c-1.8,0-2.8,1.6-2.8,3.8v0.2c0,2.1,1.1,3.8,2.8,3.8
					C81.7,39.2,82.7,37.6,82.7,35.5z"/>
				<path id="XMLID_254_" class="st0" d="M88.5,28.7H92v2.4c0.6-1.6,1.7-2.7,3.6-2.6v3.8h-0.1c-2.2,0-3.4,1.3-3.4,4.1V42h-3.5V28.7z
					"/>
				<polygon id="XMLID_253_" class="st0" points="108.8,28.7 104.7,28.7 101.1,33.6 101.1,-0.3 97.6,1 97.6,42 101.1,42 101.1,38.1 
					102.2,36.7 104.9,42 108.9,42 104.6,34 				"/>
				<path id="XMLID_251_" class="st0" d="M109.4,40.4l1.5-2.5c1.2,0.9,2.5,1.5,3.5,1.5c1,0,1.4-0.5,1.4-1v0c0-0.8-1-1.1-2.4-1.7
					c-1.9-0.8-3.5-1.8-3.5-4v0c0-2.6,2-4.1,4.6-4.1c1.4,0,3,0.5,4.4,1.4l-1.4,2.5c-1-0.6-2.1-1.1-3-1.1c-0.8,0-1.3,0.4-1.3,0.9v0
					c0,0.7,1,1.1,2.4,1.7c1.9,0.9,3.5,1.9,3.5,4v0c0,2.8-2,4.1-4.7,4.1C112.9,42.2,111.1,41.7,109.4,40.4z"/>
			</g>
		</g>
		<polygon id="XMLID_249_" class="st0" points="49.9,18.2 49.9,24.4 52.2,24.4 52.2,17.4 		"/>
		<polygon id="XMLID_248_" class="st0" points="61.6,14 61.6,24.4 63.9,24.4 63.9,13.1 		"/>
		<polygon id="XMLID_247_" class="st0" points="86,5.1 86,24.4 88.3,24.4 88.3,4.3 		"/>
		<polygon id="XMLID_246_" class="st0" points="73.8,9.5 73.8,24.4 76.1,24.4 76.1,8.7 		"/>
		<g id="XMLID_241_">
			<path id="XMLID_244_" class="st0" d="M121.4,39.9h-0.7v-0.2h1.7v0.2h-0.7v2h-0.3V39.9z"/>
			<path id="XMLID_242_" class="st0" d="M124.5,40.9c0-0.3,0-0.7,0-1h0c-0.1,0.3-0.2,0.5-0.3,0.9l-0.4,1.1h-0.2l-0.4-1.1
				c-0.1-0.3-0.2-0.6-0.3-0.9h0c0,0.3,0,0.7,0,1l-0.1,1h-0.3l0.2-2.3h0.4l0.4,1.1c0.1,0.3,0.2,0.5,0.2,0.8h0
				c0.1-0.2,0.1-0.5,0.2-0.8l0.4-1.1h0.4l0.1,2.3h-0.3L124.5,40.9z"/>
		</g>
	</g>
</g>
</svg>
