<?xml version="1.0" encoding="utf-8"?>
<!-- Generator: Adobe Illustrator 21.0.0, SVG Export Plug-In . SVG Version: 6.00 Build 0)  -->
<svg version="1.1" id="Layer_1" xmlns="http://www.w3.org/2000/svg" xmlns:xlink="http://www.w3.org/1999/xlink" x="0px" y="0px"
	 viewBox="0 0 100 100" style="enable-background:new 0 0 100 100;" xml:space="preserve">
<style type="text/css">
	.st0{fill:#4554A4;}
	.st1{fill:#FFFFFF;}
</style>
<g>
	<circle class="st0" cx="50" cy="50" r="50"/>
	<g>
		<path class="st1" d="M73.4,36.9c-9.2-1.2-16.4-0.4-23.3,0.4c-6.9,0.8-14,1.5-23.2,0.4c-0.5-0.1-1.1,0.3-1.1,0.9
			c-0.1,0.6,0.3,1.1,0.9,1.1c9.5,1.2,16.7,0.4,23.7-0.4c6.9-0.8,13.8-1.5,21.9-0.5v24.3c0,0.6,0.5,1,1,1s1-0.5,1-1V37.9
			C74.3,37.4,73.9,37,73.4,36.9z"/>
		<path class="st1" d="M77.5,32.9c-9.2-1.2-16.4-0.4-23.3,0.4c-6.9,0.7-14,1.5-23.2,0.4c-0.5-0.1-1.1,0.3-1.1,0.9
			c-0.1,0.6,0.3,1.1,0.9,1.1c9.5,1.2,16.7,0.4,23.7-0.4c6.9-0.7,13.8-1.5,21.9-0.5v24.3c0,0.6,0.5,1,1,1s1-0.5,1-1V33.9
			C78.3,33.4,78,33,77.5,32.9z"/>
		<path class="st1" d="M69.4,40.5c-3.4-0.4-6.8-0.7-10.2-0.7c-4.7,0-9,0.4-13.2,0.8c-4.1,0.4-8.4,0.8-13.1,0.8
			c-3.4,0-6.7-0.2-10-0.6c-0.3,0-0.6,0.1-0.8,0.2c-0.2,0.2-0.4,0.5-0.4,0.8v24.3c0,0.5,0.4,0.9,0.9,1c3.4,0.4,6.8,0.7,10.3,0.7
			c4.7,0,9.1-0.4,13.2-0.8c4.1-0.4,8.4-0.8,13.1-0.8c3.4,0,6.7,0.2,10,0.6c0.3,0,0.6-0.1,0.8-0.2c0.2-0.2,0.3-0.5,0.3-0.8V41.5
			C70.2,41,69.9,40.6,69.4,40.5z M32.9,63.7c-2.1,0-4.1-0.1-6.3-0.3c-0.6,0-1-0.5-0.9-1.1c0-0.6,0.5-1,1.1-0.9
			c2.1,0.2,4.1,0.2,6.1,0.2c0.6,0,1,0.5,1,1C33.9,63.2,33.5,63.7,32.9,63.7z M46,58.1V59h0c0,0-0.1,0.5-0.3,0.7
			c-0.2,0.2-0.4,0.3-0.7,0.3c-0.3,0-0.5-0.1-0.7-0.3c-0.2-0.2-0.3-0.4-0.3-0.7c0-0.1,0-0.1,0-0.2v-0.7c-1-0.4-2.3-1.4-2.3-2.8
			c0-0.6,0.5-1,1-1c0.6,0,1,0.5,1,1c0,0.8,0.8,0.9,1.3,0.9c0.5,0,1.3-0.1,1.3-0.9c0-0.5,0-0.5-1.4-1.2l-0.7-0.4
			c-1.3-0.7-2.5-1.2-2.5-3c0-1.4,1.2-2.5,2.3-2.8v-0.7c0-0.1,0-0.1,0-0.2c0-0.3,0.1-0.5,0.3-0.7c0.4-0.4,1.1-0.4,1.4,0
			c0.2,0.2,0.3,0.7,0.3,0.7h0v0.9c1,0.3,2.3,1.4,2.3,2.8c0,0.6-0.4,1-1,1c-0.6,0-1-0.5-1-1c0-0.8-0.7-0.9-1.3-0.9
			c-0.5,0-1.3,0.1-1.3,0.9c0,0.5,0,0.5,1.4,1.2l0.7,0.4c1.3,0.7,2.5,1.2,2.5,3C48.3,56.7,47,57.8,46,58.1z M65.2,46.2
			C65.1,46.2,65.1,46.2,65.2,46.2C63,46,61,45.9,59,45.9c-0.6,0-1-0.5-1-1c0-0.6,0.5-1,1-1c2.1,0,4.2,0.1,6.3,0.3
			c0.6,0,1,0.5,0.9,1.1C66.1,45.8,65.7,46.2,65.2,46.2z"/>
	</g>
</g>
</svg>
