<?xml version="1.0" encoding="utf-8"?>
<!-- Generator: Adobe Illustrator 21.0.0, SVG Export Plug-In . SVG Version: 6.00 Build 0)  -->
<svg version="1.1" id="Layer_1" xmlns="http://www.w3.org/2000/svg" xmlns:xlink="http://www.w3.org/1999/xlink" x="0px" y="0px"
	 viewBox="0 0 100 100" style="enable-background:new 0 0 100 100;" xml:space="preserve">
<style type="text/css">
	.st0{fill:#8E3F97;}
	.st1{fill:#FFFFFF;}
</style>
<g>
	<circle class="st0" cx="50.7" cy="50.5" r="50"/>
	<g>
		<path class="st1" d="M69.3,33h-5.5v-7.6c0-0.6-0.5-1.1-1.1-1.1H38.7c-0.6,0-1.1,0.5-1.1,1.1V33h-5.4c-0.6,0-1.1,0.5-1.1,1.1v41.6
			c0,0.6,0.5,1.1,1.1,1.1h14.2v-7.6c0-0.6,0.5-1.1,1.1-1.1H54c0.6,0,1.1,0.5,1.1,1.1v7.6h14.3c0.6,0,1.1-0.5,1.1-1.1V34.1
			C70.4,33.5,69.9,33,69.3,33z M42,65.8h-4.4c-0.6,0-1.1-0.5-1.1-1.1c0-0.6,0.5-1.1,1.1-1.1H42c0.6,0,1.1,0.5,1.1,1.1
			C43.1,65.3,42.6,65.8,42,65.8z M42,61.4h-4.4c-0.6,0-1.1-0.5-1.1-1.1c0-0.6,0.5-1.1,1.1-1.1H42c0.6,0,1.1,0.5,1.1,1.1
			C43.1,60.9,42.6,61.4,42,61.4z M42,57h-4.4c-0.6,0-1.1-0.5-1.1-1.1s0.5-1.1,1.1-1.1H42c0.6,0,1.1,0.5,1.1,1.1S42.6,57,42,57z
			 M42,52.7h-4.4c-0.6,0-1.1-0.5-1.1-1.1c0-0.6,0.5-1.1,1.1-1.1H42c0.6,0,1.1,0.5,1.1,1.1C43.1,52.2,42.6,52.7,42,52.7z M42,48.3
			h-4.4c-0.6,0-1.1-0.5-1.1-1.1s0.5-1.1,1.1-1.1H42c0.6,0,1.1,0.5,1.1,1.1S42.6,48.3,42,48.3z M42,43.9h-4.4c-0.6,0-1.1-0.5-1.1-1.1
			c0-0.6,0.5-1.1,1.1-1.1H42c0.6,0,1.1,0.5,1.1,1.1C43.1,43.4,42.6,43.9,42,43.9z M42,39.5h-4.4c-0.6,0-1.1-0.5-1.1-1.1
			s0.5-1.1,1.1-1.1H42c0.6,0,1.1,0.5,1.1,1.1S42.6,39.5,42,39.5z M44.2,30.8c-0.6,0-1.1-0.5-1.1-1.1c0-0.6,0.5-1.1,1.1-1.1h4.4
			c0.6,0,1.1,0.5,1.1,1.1c0,0.6-0.5,1.1-1.1,1.1H44.2z M52.9,65.8h-4.4c-0.6,0-1.1-0.5-1.1-1.1c0-0.6,0.5-1.1,1.1-1.1h4.4
			c0.6,0,1.1,0.5,1.1,1.1C54,65.3,53.5,65.8,52.9,65.8z M52.9,61.4h-4.4c-0.6,0-1.1-0.5-1.1-1.1c0-0.6,0.5-1.1,1.1-1.1h4.4
			c0.6,0,1.1,0.5,1.1,1.1C54,60.9,53.5,61.4,52.9,61.4z M52.9,57h-4.4c-0.6,0-1.1-0.5-1.1-1.1s0.5-1.1,1.1-1.1h4.4
			c0.6,0,1.1,0.5,1.1,1.1S53.5,57,52.9,57z M52.9,52.7h-4.4c-0.6,0-1.1-0.5-1.1-1.1c0-0.6,0.5-1.1,1.1-1.1h4.4
			c0.6,0,1.1,0.5,1.1,1.1C54,52.2,53.5,52.7,52.9,52.7z M52.9,48.3h-4.4c-0.6,0-1.1-0.5-1.1-1.1s0.5-1.1,1.1-1.1h4.4
			c0.6,0,1.1,0.5,1.1,1.1S53.5,48.3,52.9,48.3z M52.9,43.9h-4.4c-0.6,0-1.1-0.5-1.1-1.1c0-0.6,0.5-1.1,1.1-1.1h4.4
			c0.6,0,1.1,0.5,1.1,1.1C54,43.4,53.5,43.9,52.9,43.9z M52.9,39.5h-4.4c-0.6,0-1.1-0.5-1.1-1.1s0.5-1.1,1.1-1.1h4.4
			c0.6,0,1.1,0.5,1.1,1.1S53.5,39.5,52.9,39.5z M57.3,30.8h-4.4c-0.6,0-1.1-0.5-1.1-1.1c0-0.6,0.5-1.1,1.1-1.1h4.4
			c0.6,0,1.1,0.5,1.1,1.1C58.4,30.3,57.9,30.8,57.3,30.8z M63.8,65.8h-4.4c-0.6,0-1.1-0.5-1.1-1.1c0-0.6,0.5-1.1,1.1-1.1h4.4
			c0.6,0,1.1,0.5,1.1,1.1C64.9,65.3,64.4,65.8,63.8,65.8z M63.8,61.4h-4.4c-0.6,0-1.1-0.5-1.1-1.1c0-0.6,0.5-1.1,1.1-1.1h4.4
			c0.6,0,1.1,0.5,1.1,1.1C64.9,60.9,64.4,61.4,63.8,61.4z M63.8,57h-4.4c-0.6,0-1.1-0.5-1.1-1.1s0.5-1.1,1.1-1.1h4.4
			c0.6,0,1.1,0.5,1.1,1.1S64.4,57,63.8,57z M63.8,52.7h-4.4c-0.6,0-1.1-0.5-1.1-1.1c0-0.6,0.5-1.1,1.1-1.1h4.4
			c0.6,0,1.1,0.5,1.1,1.1C64.9,52.2,64.4,52.7,63.8,52.7z M63.8,48.3h-4.4c-0.6,0-1.1-0.5-1.1-1.1s0.5-1.1,1.1-1.1h4.4
			c0.6,0,1.1,0.5,1.1,1.1S64.4,48.3,63.8,48.3z M63.8,43.9h-4.4c-0.6,0-1.1-0.5-1.1-1.1c0-0.6,0.5-1.1,1.1-1.1h4.4
			c0.6,0,1.1,0.5,1.1,1.1C64.9,43.4,64.4,43.9,63.8,43.9z M63.8,39.5h-4.4c-0.6,0-1.1-0.5-1.1-1.1s0.5-1.1,1.1-1.1h4.4
			c0.6,0,1.1,0.5,1.1,1.1S64.4,39.5,63.8,39.5z"/>
		<rect x="48.5" y="70.2" class="st1" width="4.4" height="6.6"/>
	</g>
</g>
</svg>
