<?xml version="1.0" encoding="utf-8"?>
<!-- Generator: Adobe Illustrator 21.0.0, SVG Export Plug-In . SVG Version: 6.00 Build 0)  -->
<svg version="1.1" id="Layer_1" xmlns="http://www.w3.org/2000/svg" xmlns:xlink="http://www.w3.org/1999/xlink" x="0px" y="0px"
	 viewBox="0 0 100 100" style="enable-background:new 0 0 100 100;" xml:space="preserve">
<style type="text/css">
	.st0{fill:#009588;}
	.st1{fill:#FFFFFF;}
</style>
<g>
	<circle class="st0" cx="50" cy="50.8" r="50"/>
	<g>
		<path class="st1" d="M30.3,46.5c-0.1-0.3-0.3-0.5-0.5-0.6c-0.3-0.1-0.5-0.1-0.8,0L25.5,47c-0.5,0.2-0.8,0.8-0.6,1.3l2.4,6.9
			c0.2,0.4,0.6,0.7,1,0.7c0.1,0,0.2,0,0.3-0.1l3.4-1.2c0.6-0.2,0.8-0.8,0.6-1.3L30.3,46.5z"/>
		<path class="st1" d="M74.8,34.8c-0.6-1.6-1.7-2.9-3.2-3.7c-1.3-0.6-2.8-0.8-4.3-0.5L67,29.8c-0.1-0.3-0.3-0.5-0.5-0.6
			c-0.3-0.1-0.5-0.1-0.8,0l-6.9,2.4c-0.3,0.1-0.5,0.3-0.6,0.5c-0.1,0.3-0.1,0.5,0,0.8l4.8,13.8c0.1,0.3,0.3,0.5,0.5,0.6
			c0.1,0.1,0.3,0.1,0.5,0.1c0.1,0,0.2,0,0.4-0.1l6.9-2.4c0.5-0.2,0.8-0.8,0.6-1.3l-0.3-0.8C74.5,41.2,75.9,37.9,74.8,34.8z"/>
		<path class="st1" d="M54.7,51.9l3-1.1c0.5-0.2,0.8-0.8,0.6-1.3c-0.2-0.5-0.8-0.8-1.3-0.6l-8.6,3c-0.6,0.2-0.8,0.8-0.6,1.3
			c0.2,0.4,0.6,0.7,1,0.7c0.1,0,0.2,0,0.4-0.1l1.4-0.5l-9.3,14.3c-0.3,0.5-0.2,1.1,0.3,1.5c0.2,0.1,0.4,0.2,0.6,0.2
			c0.3,0,0.7-0.2,0.9-0.5l10-15.6l10,15.6c0.2,0.3,0.5,0.5,0.9,0.5c0.2,0,0.4-0.1,0.6-0.2c0.5-0.3,0.6-1,0.3-1.5L54.7,51.9z"/>
		<path class="st1" d="M43.2,40.8l-5.6,2c-0.5,0.2-0.8,0.8-0.6,1.3l0.3,0.7l-4.6,1.6l1.9,5.4l4.6-1.6l0.3,0.7
			c0.1,0.3,0.3,0.5,0.5,0.6c0.1,0.1,0.3,0.1,0.5,0.1c0.1,0,0.2,0,0.3-0.1l5.6-2L43.2,40.8z"/>
		<path class="st1" d="M48.5,49.8c0.2,0.4,0.6,0.7,1,0.7c0.1,0,0.2,0,0.4-0.1l10.8-3.8l-4.3-12.3l-10.8,3.8
			c-0.6,0.2-0.8,0.8-0.6,1.3L48.5,49.8z"/>
	</g>
</g>
</svg>
