<?xml version="1.0" encoding="utf-8"?>
<!-- Generator: Adobe Illustrator 21.0.0, SVG Export Plug-In . SVG Version: 6.00 Build 0)  -->
<svg version="1.1" id="Layer_1" xmlns="http://www.w3.org/2000/svg" xmlns:xlink="http://www.w3.org/1999/xlink" x="0px" y="0px"
	 viewBox="0 0 828.6 301" style="enable-background:new 0 0 828.6 301;" xml:space="preserve">
<style type="text/css">
	.st0{fill:#46BEB1;}
	.st1{fill:#5F4F68;}
	.st2{font-family:'LibreBaskerville-Regular';}
	.st3{font-size:12.8851px;}
	.st4{fill:#353C42;}
	.st5{font-family:'OpenSans-Bold';}
	.st6{font-size:12.885px;}
	.st7{opacity:0.6;fill:none;stroke:#F6976B;stroke-width:2;stroke-miterlimit:10;}
	.st8{opacity:0.6;}
	.st9{fill:#F6976C;}
	.st10{fill:#EF69A6;}
	.st11{fill:#32C3F2;}
	.st12{opacity:0.6;fill:none;stroke:#EF69A6;stroke-width:2;stroke-miterlimit:10;}
	.st13{opacity:0.6;fill:none;stroke:#32C3F2;stroke-width:2;stroke-miterlimit:10;}
</style>
<g>
	<path class="st0" d="M828.6,232.5v-0.4h0L828.6,232.5L828.6,232.5L828.6,232.5z M822.5,232.5v-0.4h3.1v0.4H822.5L822.5,232.5z
		 M816.4,232.5v-0.4h3.1v0.4H816.4L816.4,232.5z M810.3,232.5v-0.4h3.1v0.4H810.3L810.3,232.5z M804.2,232.5v-0.4h3.1v0.4H804.2
		L804.2,232.5z M798.1,232.5v-0.4h3v0.4H798.1L798.1,232.5z M792,232.5v-0.4h3.1v0.4H792L792,232.5z M785.9,232.5v-0.4h3.1v0.4
		H785.9L785.9,232.5z M779.8,232.5v-0.4h3v0.4H779.8L779.8,232.5z M773.7,232.5v-0.4h3.1v0.4H773.7L773.7,232.5z M767.6,232.5v-0.4
		h3.1v0.4H767.6L767.6,232.5z M761.4,232.5v-0.4h3.1v0.4H761.4L761.4,232.5z M755.3,232.5v-0.4h3.1v0.4H755.3L755.3,232.5z
		 M749.2,232.5v-0.4h3.1v0.4H749.2L749.2,232.5z M743.1,232.5v-0.4h3.1v0.4H743.1L743.1,232.5z M737,232.5v-0.4h3.1v0.4H737
		L737,232.5z M730.9,232.5v-0.4h3.1v0.4H730.9L730.9,232.5z M724.8,232.5v-0.4h3.1v0.4H724.8L724.8,232.5z M718.7,232.5v-0.4h3.1
		v0.4H718.7L718.7,232.5z M712.6,232.5v-0.4h3v0.4H712.6L712.6,232.5z M706.5,232.5v-0.4h3.1v0.4H706.5L706.5,232.5z M700.4,232.5
		v-0.4h3.1v0.4H700.4L700.4,232.5z M694.3,232.5v-0.4h3.1v0.4H694.3L694.3,232.5z M688.2,232.5v-0.4h3.1v0.4H688.2L688.2,232.5z
		 M682.1,232.5v-0.4h3.1v0.4H682.1L682.1,232.5z M676,232.5v-0.4h3.1v0.4H676L676,232.5z M669.9,232.5v-0.4h3.1v0.4H669.9
		L669.9,232.5z M663.8,232.5v-0.4h3.1v0.4H663.8L663.8,232.5z M657.7,232.5v-0.4h3.1v0.4H657.7L657.7,232.5z M651.6,232.5v-0.4h3.1
		v0.4H651.6L651.6,232.5z M645.5,232.5v-0.4h3.1v0.4H645.5L645.5,232.5z M639.4,232.5v-0.4h3.1v0.4H639.4L639.4,232.5z M633.3,232.5
		v-0.4h3.1v0.4H633.3L633.3,232.5z M627.2,232.5v-0.4h3.1v0.4H627.2L627.2,232.5z M621.1,232.5v-0.4h3.1v0.4H621.1L621.1,232.5z
		 M615,232.5v-0.4h3.1v0.4H615L615,232.5z M608.8,232.5v-0.4h3.1v0.4H608.8L608.8,232.5z M602.7,232.5v-0.4h3.1v0.4H602.7
		L602.7,232.5z M596.6,232.5v-0.4h3.1v0.4H596.6L596.6,232.5z M590.5,232.5v-0.4h3v0.4H590.5L590.5,232.5z M584.4,232.5v-0.4h3.1
		v0.4H584.4L584.4,232.5z M578.3,232.5v-0.4h3v0.4H578.3L578.3,232.5z M572.2,232.5v-0.4h3.1v0.4H572.2L572.2,232.5z M566.1,232.5
		v-0.4h3.1v0.4H566.1L566.1,232.5z M560,232.5v-0.4h3.1v0.4H560L560,232.5z M553.9,232.5v-0.4h3.1v0.4H553.9L553.9,232.5z
		 M547.8,232.5v-0.4h3.1v0.4H547.8L547.8,232.5z M541.7,232.5v-0.4h3.1v0.4H541.7L541.7,232.5z M535.6,232.5v-0.4h3.1v0.4H535.6
		L535.6,232.5z M529.5,232.5v-0.4h3.1v0.4H529.5L529.5,232.5z M523.4,232.5v-0.4h3.1v0.4H523.4L523.4,232.5z M517.3,232.5v-0.4h3.1
		v0.4H517.3L517.3,232.5z M511.2,232.5v-0.4h3.1v0.4H511.2L511.2,232.5z M505.1,232.5v-0.4h3.1v0.4H505.1L505.1,232.5z M499,232.5
		v-0.4h3.1v0.4H499L499,232.5z M492.9,232.5v-0.4h3.1v0.4H492.9L492.9,232.5z M486.8,232.5v-0.4h3.1v0.4H486.8L486.8,232.5z
		 M480.7,232.5v-0.4h3.1v0.4H480.7L480.7,232.5z M474.6,232.5v-0.4h3.1v0.4H474.6L474.6,232.5z M468.5,232.5v-0.4h3.1v0.4H468.5
		L468.5,232.5z M462.3,232.5v-0.4h3.1v0.4H462.3L462.3,232.5z M456.2,232.5v-0.4h3.1v0.4H456.2L456.2,232.5z M450.1,232.5v-0.4h3.1
		v0.4H450.1L450.1,232.5z M444,232.5v-0.4h3.1v0.4H444L444,232.5z M437.9,232.5v-0.4h3.1v0.4H437.9L437.9,232.5z M431.8,232.5v-0.4
		h3.1v0.4H431.8L431.8,232.5z M425.7,232.5v-0.4h3.1v0.4H425.7L425.7,232.5z M419.6,232.5v-0.4h3.1v0.4H419.6L419.6,232.5z
		 M413.5,232.5v-0.4h3.1v0.4H413.5L413.5,232.5z M407.4,232.5v-0.4h3.1v0.4H407.4L407.4,232.5z M401.3,232.5v-0.4h3.1v0.4H401.3
		L401.3,232.5z M395.2,232.5v-0.4h3.1v0.4H395.2L395.2,232.5z M389.1,232.5v-0.4h3.1v0.4H389.1L389.1,232.5z M383,232.5v-0.4h3.1
		v0.4H383L383,232.5z M376.9,232.5v-0.4h3.1v0.4H376.9L376.9,232.5z M370.8,232.5v-0.4h3.1v0.4H370.8L370.8,232.5z M364.7,232.5
		v-0.4h3.1v0.4H364.7L364.7,232.5z M358.6,232.5v-0.4h3.1v0.4H358.6L358.6,232.5z M352.5,232.5v-0.4h3.1v0.4H352.5L352.5,232.5z
		 M346.4,232.5v-0.4h3.1v0.4H346.4L346.4,232.5z M340.3,232.5v-0.4h3.1v0.4H340.3L340.3,232.5z M334.2,232.5v-0.4h3.1v0.4H334.2
		L334.2,232.5z M328.1,232.5v-0.4h3.1v0.4H328.1L328.1,232.5z M322,232.5v-0.4h3.1v0.4H322L322,232.5z M315.9,232.5v-0.4h3.1v0.4
		H315.9L315.9,232.5z M309.7,232.5v-0.4h3.1v0.4H309.7L309.7,232.5z M303.6,232.5v-0.4h3.1v0.4H303.6L303.6,232.5z M297.5,232.5
		v-0.4h3.1v0.4H297.5L297.5,232.5z M291.4,232.5v-0.4h3.1v0.4H291.4L291.4,232.5z M285.3,232.5v-0.4h3.1v0.4H285.3L285.3,232.5z
		 M279.2,232.5v-0.4h3.1v0.4H279.2L279.2,232.5z M273.1,232.5v-0.4h3.1v0.4H273.1L273.1,232.5z M267,232.5v-0.4h3.1v0.4H267
		L267,232.5z M260.9,232.5v-0.4h3.1v0.4H260.9L260.9,232.5z M254.8,232.5v-0.4h3.1v0.4H254.8L254.8,232.5z M248.7,232.5v-0.4h3.1
		v0.4H248.7L248.7,232.5z M242.6,232.5v-0.4h3.1v0.4H242.6L242.6,232.5z M236.5,232.5v-0.4h3.1v0.4H236.5L236.5,232.5z M230.4,232.5
		v-0.4h3.1v0.4H230.4L230.4,232.5z M224.3,232.5v-0.4h3.1v0.4H224.3L224.3,232.5z M218.2,232.5v-0.4h3.1v0.4H218.2L218.2,232.5z
		 M212.1,232.5v-0.4h3.1v0.4H212.1L212.1,232.5z M206,232.5v-0.4h3.1v0.4H206L206,232.5z M199.9,232.5v-0.4h3.1v0.4H199.9
		L199.9,232.5z M193.8,232.5v-0.4h3.1v0.4H193.8L193.8,232.5z M187.7,232.5v-0.4h3.1v0.4H187.7L187.7,232.5z M181.6,232.5v-0.4h3.1
		v0.4H181.6L181.6,232.5z M175.5,232.5v-0.4h3.1v0.4H175.5L175.5,232.5z M169.4,232.5v-0.4h3.1v0.4H169.4L169.4,232.5z M163.3,232.5
		v-0.4h3.1v0.4H163.3L163.3,232.5z M157.1,232.5v-0.4h3.1v0.4H157.1L157.1,232.5z M151,232.5v-0.4h3.1v0.4H151L151,232.5z
		 M144.9,232.5v-0.4h3.1v0.4H144.9L144.9,232.5z M138.8,232.5v-0.4h3.1v0.4H138.8L138.8,232.5z M132.7,232.5v-0.4h3.1v0.4H132.7
		L132.7,232.5z M126.6,232.5v-0.4h3.1v0.4H126.6L126.6,232.5z M120.5,232.5v-0.4h3.1v0.4H120.5L120.5,232.5z M114.4,232.5v-0.4h3.1
		v0.4H114.4L114.4,232.5z M108.3,232.5v-0.4h3.1v0.4H108.3L108.3,232.5z M102.2,232.5v-0.4h3.1v0.4H102.2L102.2,232.5z M96.1,232.5
		v-0.4h3.1v0.4H96.1L96.1,232.5z M90,232.5v-0.4h3.1v0.4H90L90,232.5z M83.9,232.5v-0.4h3.1v0.4H83.9L83.9,232.5z M77.8,232.5v-0.4
		h3.1v0.4H77.8L77.8,232.5z M71.7,232.5v-0.4h3.1v0.4H71.7L71.7,232.5z M65.6,232.5v-0.4h3.1v0.4H65.6L65.6,232.5z"/>
</g>
<g>
	<path class="st0" d="M828.6,102.3V102h0L828.6,102.3L828.6,102.3L828.6,102.3z M822.5,102.3V102h3.1v0.4H822.5L822.5,102.3z
		 M816.4,102.3V102h3.1v0.4H816.4L816.4,102.3z M810.3,102.3V102h3.1v0.4H810.3L810.3,102.3z M804.2,102.3V102h3.1v0.4H804.2
		L804.2,102.3z M798.1,102.3V102h3v0.4H798.1L798.1,102.3z M792,102.3V102h3.1v0.4H792L792,102.3z M785.9,102.3V102h3.1v0.4H785.9
		L785.9,102.3z M779.8,102.3V102h3v0.4H779.8L779.8,102.3z M773.7,102.3V102h3.1v0.4H773.7L773.7,102.3z M767.6,102.3V102h3.1v0.4
		H767.6L767.6,102.3z M761.4,102.3V102h3.1v0.4H761.4L761.4,102.3z M755.3,102.3V102h3.1v0.4H755.3L755.3,102.3z M749.2,102.3V102
		h3.1v0.4H749.2L749.2,102.3z M743.1,102.3V102h3.1v0.4H743.1L743.1,102.3z M737,102.3V102h3.1v0.4H737L737,102.3z M730.9,102.3V102
		h3.1v0.4H730.9L730.9,102.3z M724.8,102.3V102h3.1v0.4H724.8L724.8,102.3z M718.7,102.3V102h3.1v0.4H718.7L718.7,102.3z
		 M712.6,102.3V102h3v0.4H712.6L712.6,102.3z M706.5,102.3V102h3.1v0.4H706.5L706.5,102.3z M700.4,102.3V102h3.1v0.4H700.4
		L700.4,102.3z M694.3,102.3V102h3.1v0.4H694.3L694.3,102.3z M688.2,102.3V102h3.1v0.4H688.2L688.2,102.3z M682.1,102.3V102h3.1v0.4
		H682.1L682.1,102.3z M676,102.3V102h3.1v0.4H676L676,102.3z M669.9,102.3V102h3.1v0.4H669.9L669.9,102.3z M663.8,102.3V102h3.1v0.4
		H663.8L663.8,102.3z M657.7,102.3V102h3.1v0.4H657.7L657.7,102.3z M651.6,102.3V102h3.1v0.4H651.6L651.6,102.3z M645.5,102.3V102
		h3.1v0.4H645.5L645.5,102.3z M639.4,102.3V102h3.1v0.4H639.4L639.4,102.3z M633.3,102.3V102h3.1v0.4H633.3L633.3,102.3z
		 M627.2,102.3V102h3.1v0.4H627.2L627.2,102.3z M621.1,102.3V102h3.1v0.4H621.1L621.1,102.3z M615,102.3V102h3.1v0.4H615L615,102.3z
		 M608.8,102.3V102h3.1v0.4H608.8L608.8,102.3z M602.7,102.3V102h3.1v0.4H602.7L602.7,102.3z M596.6,102.3V102h3.1v0.4H596.6
		L596.6,102.3z M590.5,102.3V102h3v0.4H590.5L590.5,102.3z M584.4,102.3V102h3.1v0.4H584.4L584.4,102.3z M578.3,102.3V102h3v0.4
		H578.3L578.3,102.3z M572.2,102.3V102h3.1v0.4H572.2L572.2,102.3z M566.1,102.3V102h3.1v0.4H566.1L566.1,102.3z M560,102.3V102h3.1
		v0.4H560L560,102.3z M553.9,102.3V102h3.1v0.4H553.9L553.9,102.3z M547.8,102.3V102h3.1v0.4H547.8L547.8,102.3z M541.7,102.3V102
		h3.1v0.4H541.7L541.7,102.3z M535.6,102.3V102h3.1v0.4H535.6L535.6,102.3z M529.5,102.3V102h3.1v0.4H529.5L529.5,102.3z
		 M523.4,102.3V102h3.1v0.4H523.4L523.4,102.3z M517.3,102.3V102h3.1v0.4H517.3L517.3,102.3z M511.2,102.3V102h3.1v0.4H511.2
		L511.2,102.3z M505.1,102.3V102h3.1v0.4H505.1L505.1,102.3z M499,102.3V102h3.1v0.4H499L499,102.3z M492.9,102.3V102h3.1v0.4H492.9
		L492.9,102.3z M486.8,102.3V102h3.1v0.4H486.8L486.8,102.3z M480.7,102.3V102h3.1v0.4H480.7L480.7,102.3z M474.6,102.3V102h3.1v0.4
		H474.6L474.6,102.3z M468.5,102.3V102h3.1v0.4H468.5L468.5,102.3z M462.3,102.3V102h3.1v0.4H462.3L462.3,102.3z M456.2,102.3V102
		h3.1v0.4H456.2L456.2,102.3z M450.1,102.3V102h3.1v0.4H450.1L450.1,102.3z M444,102.3V102h3.1v0.4H444L444,102.3z M437.9,102.3V102
		h3.1v0.4H437.9L437.9,102.3z M431.8,102.3V102h3.1v0.4H431.8L431.8,102.3z M425.7,102.3V102h3.1v0.4H425.7L425.7,102.3z
		 M419.6,102.3V102h3.1v0.4H419.6L419.6,102.3z M413.5,102.3V102h3.1v0.4H413.5L413.5,102.3z M407.4,102.3V102h3.1v0.4H407.4
		L407.4,102.3z M401.3,102.3V102h3.1v0.4H401.3L401.3,102.3z M395.2,102.3V102h3.1v0.4H395.2L395.2,102.3z M389.1,102.3V102h3.1v0.4
		H389.1L389.1,102.3z M383,102.3V102h3.1v0.4H383L383,102.3z M376.9,102.3V102h3.1v0.4H376.9L376.9,102.3z M370.8,102.3V102h3.1v0.4
		H370.8L370.8,102.3z M364.7,102.3V102h3.1v0.4H364.7L364.7,102.3z M358.6,102.3V102h3.1v0.4H358.6L358.6,102.3z M352.5,102.3V102
		h3.1v0.4H352.5L352.5,102.3z M346.4,102.3V102h3.1v0.4H346.4L346.4,102.3z M340.3,102.3V102h3.1v0.4H340.3L340.3,102.3z
		 M334.2,102.3V102h3.1v0.4H334.2L334.2,102.3z M328.1,102.3V102h3.1v0.4H328.1L328.1,102.3z M322,102.3V102h3.1v0.4H322L322,102.3z
		 M315.9,102.3V102h3.1v0.4H315.9L315.9,102.3z M309.7,102.3V102h3.1v0.4H309.7L309.7,102.3z M303.6,102.3V102h3.1v0.4H303.6
		L303.6,102.3z M297.5,102.3V102h3.1v0.4H297.5L297.5,102.3z M291.4,102.3V102h3.1v0.4H291.4L291.4,102.3z M285.3,102.3V102h3.1v0.4
		H285.3L285.3,102.3z M279.2,102.3V102h3.1v0.4H279.2L279.2,102.3z M273.1,102.3V102h3.1v0.4H273.1L273.1,102.3z M267,102.3V102h3.1
		v0.4H267L267,102.3z M260.9,102.3V102h3.1v0.4H260.9L260.9,102.3z M254.8,102.3V102h3.1v0.4H254.8L254.8,102.3z M248.7,102.3V102
		h3.1v0.4H248.7L248.7,102.3z M242.6,102.3V102h3.1v0.4H242.6L242.6,102.3z M236.5,102.3V102h3.1v0.4H236.5L236.5,102.3z
		 M230.4,102.3V102h3.1v0.4H230.4L230.4,102.3z M224.3,102.3V102h3.1v0.4H224.3L224.3,102.3z M218.2,102.3V102h3.1v0.4H218.2
		L218.2,102.3z M212.1,102.3V102h3.1v0.4H212.1L212.1,102.3z M206,102.3V102h3.1v0.4H206L206,102.3z M199.9,102.3V102h3.1v0.4H199.9
		L199.9,102.3z M193.8,102.3V102h3.1v0.4H193.8L193.8,102.3z M187.7,102.3V102h3.1v0.4H187.7L187.7,102.3z M181.6,102.3V102h3.1v0.4
		H181.6L181.6,102.3z M175.5,102.3V102h3.1v0.4H175.5L175.5,102.3z M169.4,102.3V102h3.1v0.4H169.4L169.4,102.3z M163.3,102.3V102
		h3.1v0.4H163.3L163.3,102.3z M157.1,102.3V102h3.1v0.4H157.1L157.1,102.3z M151,102.3V102h3.1v0.4H151L151,102.3z M144.9,102.3V102
		h3.1v0.4H144.9L144.9,102.3z M138.8,102.3V102h3.1v0.4H138.8L138.8,102.3z M132.7,102.3V102h3.1v0.4H132.7L132.7,102.3z
		 M126.6,102.3V102h3.1v0.4H126.6L126.6,102.3z M120.5,102.3V102h3.1v0.4H120.5L120.5,102.3z M114.4,102.3V102h3.1v0.4H114.4
		L114.4,102.3z M108.3,102.3V102h3.1v0.4H108.3L108.3,102.3z M102.2,102.3V102h3.1v0.4H102.2L102.2,102.3z M96.1,102.3V102h3.1v0.4
		H96.1L96.1,102.3z M90,102.3V102h3.1v0.4H90L90,102.3z M83.9,102.3V102h3.1v0.4H83.9L83.9,102.3z M77.8,102.3V102h3.1v0.4H77.8
		L77.8,102.3z M71.7,102.3V102h3.1v0.4H71.7L71.7,102.3z M65.6,102.3V102h3.1v0.4H65.6L65.6,102.3z"/>
</g>
<g>
	<path class="st0" d="M828.6,199.9v-0.4h0L828.6,199.9L828.6,199.9L828.6,199.9z M822.5,199.9v-0.4h3.1v0.4H822.5L822.5,199.9z
		 M816.4,199.9v-0.4h3.1v0.4H816.4L816.4,199.9z M810.3,199.9v-0.4h3.1v0.4H810.3L810.3,199.9z M804.2,199.9v-0.4h3.1v0.4H804.2
		L804.2,199.9z M798.1,199.9v-0.4h3v0.4H798.1L798.1,199.9z M792,199.9v-0.4h3.1v0.4H792L792,199.9z M785.9,199.9v-0.4h3.1v0.4
		H785.9L785.9,199.9z M779.8,199.9v-0.4h3v0.4H779.8L779.8,199.9z M773.7,199.9v-0.4h3.1v0.4H773.7L773.7,199.9z M767.6,199.9v-0.4
		h3.1v0.4H767.6L767.6,199.9z M761.4,199.9v-0.4h3.1v0.4H761.4L761.4,199.9z M755.3,199.9v-0.4h3.1v0.4H755.3L755.3,199.9z
		 M749.2,199.9v-0.4h3.1v0.4H749.2L749.2,199.9z M743.1,199.9v-0.4h3.1v0.4H743.1L743.1,199.9z M737,199.9v-0.4h3.1v0.4H737
		L737,199.9z M730.9,199.9v-0.4h3.1v0.4H730.9L730.9,199.9z M724.8,199.9v-0.4h3.1v0.4H724.8L724.8,199.9z M718.7,199.9v-0.4h3.1
		v0.4H718.7L718.7,199.9z M712.6,199.9v-0.4h3v0.4H712.6L712.6,199.9z M706.5,199.9v-0.4h3.1v0.4H706.5L706.5,199.9z M700.4,199.9
		v-0.4h3.1v0.4H700.4L700.4,199.9z M694.3,199.9v-0.4h3.1v0.4H694.3L694.3,199.9z M688.2,199.9v-0.4h3.1v0.4H688.2L688.2,199.9z
		 M682.1,199.9v-0.4h3.1v0.4H682.1L682.1,199.9z M676,199.9v-0.4h3.1v0.4H676L676,199.9z M669.9,199.9v-0.4h3.1v0.4H669.9
		L669.9,199.9z M663.8,199.9v-0.4h3.1v0.4H663.8L663.8,199.9z M657.7,199.9v-0.4h3.1v0.4H657.7L657.7,199.9z M651.6,199.9v-0.4h3.1
		v0.4H651.6L651.6,199.9z M645.5,199.9v-0.4h3.1v0.4H645.5L645.5,199.9z M639.4,199.9v-0.4h3.1v0.4H639.4L639.4,199.9z M633.3,199.9
		v-0.4h3.1v0.4H633.3L633.3,199.9z M627.2,199.9v-0.4h3.1v0.4H627.2L627.2,199.9z M621.1,199.9v-0.4h3.1v0.4H621.1L621.1,199.9z
		 M615,199.9v-0.4h3.1v0.4H615L615,199.9z M608.8,199.9v-0.4h3.1v0.4H608.8L608.8,199.9z M602.7,199.9v-0.4h3.1v0.4H602.7
		L602.7,199.9z M596.6,199.9v-0.4h3.1v0.4H596.6L596.6,199.9z M590.5,199.9v-0.4h3v0.4H590.5L590.5,199.9z M584.4,199.9v-0.4h3.1
		v0.4H584.4L584.4,199.9z M578.3,199.9v-0.4h3v0.4H578.3L578.3,199.9z M572.2,199.9v-0.4h3.1v0.4H572.2L572.2,199.9z M566.1,199.9
		v-0.4h3.1v0.4H566.1L566.1,199.9z M560,199.9v-0.4h3.1v0.4H560L560,199.9z M553.9,199.9v-0.4h3.1v0.4H553.9L553.9,199.9z
		 M547.8,199.9v-0.4h3.1v0.4H547.8L547.8,199.9z M541.7,199.9v-0.4h3.1v0.4H541.7L541.7,199.9z M535.6,199.9v-0.4h3.1v0.4H535.6
		L535.6,199.9z M529.5,199.9v-0.4h3.1v0.4H529.5L529.5,199.9z M523.4,199.9v-0.4h3.1v0.4H523.4L523.4,199.9z M517.3,199.9v-0.4h3.1
		v0.4H517.3L517.3,199.9z M511.2,199.9v-0.4h3.1v0.4H511.2L511.2,199.9z M505.1,199.9v-0.4h3.1v0.4H505.1L505.1,199.9z M499,199.9
		v-0.4h3.1v0.4H499L499,199.9z M492.9,199.9v-0.4h3.1v0.4H492.9L492.9,199.9z M486.8,199.9v-0.4h3.1v0.4H486.8L486.8,199.9z
		 M480.7,199.9v-0.4h3.1v0.4H480.7L480.7,199.9z M474.6,199.9v-0.4h3.1v0.4H474.6L474.6,199.9z M468.5,199.9v-0.4h3.1v0.4H468.5
		L468.5,199.9z M462.3,199.9v-0.4h3.1v0.4H462.3L462.3,199.9z M456.2,199.9v-0.4h3.1v0.4H456.2L456.2,199.9z M450.1,199.9v-0.4h3.1
		v0.4H450.1L450.1,199.9z M444,199.9v-0.4h3.1v0.4H444L444,199.9z M437.9,199.9v-0.4h3.1v0.4H437.9L437.9,199.9z M431.8,199.9v-0.4
		h3.1v0.4H431.8L431.8,199.9z M425.7,199.9v-0.4h3.1v0.4H425.7L425.7,199.9z M419.6,199.9v-0.4h3.1v0.4H419.6L419.6,199.9z
		 M413.5,199.9v-0.4h3.1v0.4H413.5L413.5,199.9z M407.4,199.9v-0.4h3.1v0.4H407.4L407.4,199.9z M401.3,199.9v-0.4h3.1v0.4H401.3
		L401.3,199.9z M395.2,199.9v-0.4h3.1v0.4H395.2L395.2,199.9z M389.1,199.9v-0.4h3.1v0.4H389.1L389.1,199.9z M383,199.9v-0.4h3.1
		v0.4H383L383,199.9z M376.9,199.9v-0.4h3.1v0.4H376.9L376.9,199.9z M370.8,199.9v-0.4h3.1v0.4H370.8L370.8,199.9z M364.7,199.9
		v-0.4h3.1v0.4H364.7L364.7,199.9z M358.6,199.9v-0.4h3.1v0.4H358.6L358.6,199.9z M352.5,199.9v-0.4h3.1v0.4H352.5L352.5,199.9z
		 M346.4,199.9v-0.4h3.1v0.4H346.4L346.4,199.9z M340.3,199.9v-0.4h3.1v0.4H340.3L340.3,199.9z M334.2,199.9v-0.4h3.1v0.4H334.2
		L334.2,199.9z M328.1,199.9v-0.4h3.1v0.4H328.1L328.1,199.9z M322,199.9v-0.4h3.1v0.4H322L322,199.9z M315.9,199.9v-0.4h3.1v0.4
		H315.9L315.9,199.9z M309.7,199.9v-0.4h3.1v0.4H309.7L309.7,199.9z M303.6,199.9v-0.4h3.1v0.4H303.6L303.6,199.9z M297.5,199.9
		v-0.4h3.1v0.4H297.5L297.5,199.9z M291.4,199.9v-0.4h3.1v0.4H291.4L291.4,199.9z M285.3,199.9v-0.4h3.1v0.4H285.3L285.3,199.9z
		 M279.2,199.9v-0.4h3.1v0.4H279.2L279.2,199.9z M273.1,199.9v-0.4h3.1v0.4H273.1L273.1,199.9z M267,199.9v-0.4h3.1v0.4H267
		L267,199.9z M260.9,199.9v-0.4h3.1v0.4H260.9L260.9,199.9z M254.8,199.9v-0.4h3.1v0.4H254.8L254.8,199.9z M248.7,199.9v-0.4h3.1
		v0.4H248.7L248.7,199.9z M242.6,199.9v-0.4h3.1v0.4H242.6L242.6,199.9z M236.5,199.9v-0.4h3.1v0.4H236.5L236.5,199.9z M230.4,199.9
		v-0.4h3.1v0.4H230.4L230.4,199.9z M224.3,199.9v-0.4h3.1v0.4H224.3L224.3,199.9z M218.2,199.9v-0.4h3.1v0.4H218.2L218.2,199.9z
		 M212.1,199.9v-0.4h3.1v0.4H212.1L212.1,199.9z M206,199.9v-0.4h3.1v0.4H206L206,199.9z M199.9,199.9v-0.4h3.1v0.4H199.9
		L199.9,199.9z M193.8,199.9v-0.4h3.1v0.4H193.8L193.8,199.9z M187.7,199.9v-0.4h3.1v0.4H187.7L187.7,199.9z M181.6,199.9v-0.4h3.1
		v0.4H181.6L181.6,199.9z M175.5,199.9v-0.4h3.1v0.4H175.5L175.5,199.9z M169.4,199.9v-0.4h3.1v0.4H169.4L169.4,199.9z M163.3,199.9
		v-0.4h3.1v0.4H163.3L163.3,199.9z M157.1,199.9v-0.4h3.1v0.4H157.1L157.1,199.9z M151,199.9v-0.4h3.1v0.4H151L151,199.9z
		 M144.9,199.9v-0.4h3.1v0.4H144.9L144.9,199.9z M138.8,199.9v-0.4h3.1v0.4H138.8L138.8,199.9z M132.7,199.9v-0.4h3.1v0.4H132.7
		L132.7,199.9z M126.6,199.9v-0.4h3.1v0.4H126.6L126.6,199.9z M120.5,199.9v-0.4h3.1v0.4H120.5L120.5,199.9z M114.4,199.9v-0.4h3.1
		v0.4H114.4L114.4,199.9z M108.3,199.9v-0.4h3.1v0.4H108.3L108.3,199.9z M102.2,199.9v-0.4h3.1v0.4H102.2L102.2,199.9z M96.1,199.9
		v-0.4h3.1v0.4H96.1L96.1,199.9z M90,199.9v-0.4h3.1v0.4H90L90,199.9z M83.9,199.9v-0.4h3.1v0.4H83.9L83.9,199.9z M77.8,199.9v-0.4
		h3.1v0.4H77.8L77.8,199.9z M71.7,199.9v-0.4h3.1v0.4H71.7L71.7,199.9z M65.6,199.9v-0.4h3.1v0.4H65.6L65.6,199.9z"/>
</g>
<g>
	<path class="st0" d="M828.6,167.4V167h0L828.6,167.4L828.6,167.4L828.6,167.4z M822.5,167.4V167h3.1v0.4H822.5L822.5,167.4z
		 M816.4,167.4V167h3.1v0.4H816.4L816.4,167.4z M810.3,167.4V167h3.1v0.4H810.3L810.3,167.4z M804.2,167.4V167h3.1v0.4H804.2
		L804.2,167.4z M798.1,167.4V167h3v0.4H798.1L798.1,167.4z M792,167.4V167h3.1v0.4H792L792,167.4z M785.9,167.4V167h3.1v0.4H785.9
		L785.9,167.4z M779.8,167.4V167h3v0.4H779.8L779.8,167.4z M773.7,167.4V167h3.1v0.4H773.7L773.7,167.4z M767.6,167.4V167h3.1v0.4
		H767.6L767.6,167.4z M761.4,167.4V167h3.1v0.4H761.4L761.4,167.4z M755.3,167.4V167h3.1v0.4H755.3L755.3,167.4z M749.2,167.4V167
		h3.1v0.4H749.2L749.2,167.4z M743.1,167.4V167h3.1v0.4H743.1L743.1,167.4z M737,167.4V167h3.1v0.4H737L737,167.4z M730.9,167.4V167
		h3.1v0.4H730.9L730.9,167.4z M724.8,167.4V167h3.1v0.4H724.8L724.8,167.4z M718.7,167.4V167h3.1v0.4H718.7L718.7,167.4z
		 M712.6,167.4V167h3v0.4H712.6L712.6,167.4z M706.5,167.4V167h3.1v0.4H706.5L706.5,167.4z M700.4,167.4V167h3.1v0.4H700.4
		L700.4,167.4z M694.3,167.4V167h3.1v0.4H694.3L694.3,167.4z M688.2,167.4V167h3.1v0.4H688.2L688.2,167.4z M682.1,167.4V167h3.1v0.4
		H682.1L682.1,167.4z M676,167.4V167h3.1v0.4H676L676,167.4z M669.9,167.4V167h3.1v0.4H669.9L669.9,167.4z M663.8,167.4V167h3.1v0.4
		H663.8L663.8,167.4z M657.7,167.4V167h3.1v0.4H657.7L657.7,167.4z M651.6,167.4V167h3.1v0.4H651.6L651.6,167.4z M645.5,167.4V167
		h3.1v0.4H645.5L645.5,167.4z M639.4,167.4V167h3.1v0.4H639.4L639.4,167.4z M633.3,167.4V167h3.1v0.4H633.3L633.3,167.4z
		 M627.2,167.4V167h3.1v0.4H627.2L627.2,167.4z M621.1,167.4V167h3.1v0.4H621.1L621.1,167.4z M615,167.4V167h3.1v0.4H615L615,167.4z
		 M608.8,167.4V167h3.1v0.4H608.8L608.8,167.4z M602.7,167.4V167h3.1v0.4H602.7L602.7,167.4z M596.6,167.4V167h3.1v0.4H596.6
		L596.6,167.4z M590.5,167.4V167h3v0.4H590.5L590.5,167.4z M584.4,167.4V167h3.1v0.4H584.4L584.4,167.4z M578.3,167.4V167h3v0.4
		H578.3L578.3,167.4z M572.2,167.4V167h3.1v0.4H572.2L572.2,167.4z M566.1,167.4V167h3.1v0.4H566.1L566.1,167.4z M560,167.4V167h3.1
		v0.4H560L560,167.4z M553.9,167.4V167h3.1v0.4H553.9L553.9,167.4z M547.8,167.4V167h3.1v0.4H547.8L547.8,167.4z M541.7,167.4V167
		h3.1v0.4H541.7L541.7,167.4z M535.6,167.4V167h3.1v0.4H535.6L535.6,167.4z M529.5,167.4V167h3.1v0.4H529.5L529.5,167.4z
		 M523.4,167.4V167h3.1v0.4H523.4L523.4,167.4z M517.3,167.4V167h3.1v0.4H517.3L517.3,167.4z M511.2,167.4V167h3.1v0.4H511.2
		L511.2,167.4z M505.1,167.4V167h3.1v0.4H505.1L505.1,167.4z M499,167.4V167h3.1v0.4H499L499,167.4z M492.9,167.4V167h3.1v0.4H492.9
		L492.9,167.4z M486.8,167.4V167h3.1v0.4H486.8L486.8,167.4z M480.7,167.4V167h3.1v0.4H480.7L480.7,167.4z M474.6,167.4V167h3.1v0.4
		H474.6L474.6,167.4z M468.5,167.4V167h3.1v0.4H468.5L468.5,167.4z M462.3,167.4V167h3.1v0.4H462.3L462.3,167.4z M456.2,167.4V167
		h3.1v0.4H456.2L456.2,167.4z M450.1,167.4V167h3.1v0.4H450.1L450.1,167.4z M444,167.4V167h3.1v0.4H444L444,167.4z M437.9,167.4V167
		h3.1v0.4H437.9L437.9,167.4z M431.8,167.4V167h3.1v0.4H431.8L431.8,167.4z M425.7,167.4V167h3.1v0.4H425.7L425.7,167.4z
		 M419.6,167.4V167h3.1v0.4H419.6L419.6,167.4z M413.5,167.4V167h3.1v0.4H413.5L413.5,167.4z M407.4,167.4V167h3.1v0.4H407.4
		L407.4,167.4z M401.3,167.4V167h3.1v0.4H401.3L401.3,167.4z M395.2,167.4V167h3.1v0.4H395.2L395.2,167.4z M389.1,167.4V167h3.1v0.4
		H389.1L389.1,167.4z M383,167.4V167h3.1v0.4H383L383,167.4z M376.9,167.4V167h3.1v0.4H376.9L376.9,167.4z M370.8,167.4V167h3.1v0.4
		H370.8L370.8,167.4z M364.7,167.4V167h3.1v0.4H364.7L364.7,167.4z M358.6,167.4V167h3.1v0.4H358.6L358.6,167.4z M352.5,167.4V167
		h3.1v0.4H352.5L352.5,167.4z M346.4,167.4V167h3.1v0.4H346.4L346.4,167.4z M340.3,167.4V167h3.1v0.4H340.3L340.3,167.4z
		 M334.2,167.4V167h3.1v0.4H334.2L334.2,167.4z M328.1,167.4V167h3.1v0.4H328.1L328.1,167.4z M322,167.4V167h3.1v0.4H322L322,167.4z
		 M315.9,167.4V167h3.1v0.4H315.9L315.9,167.4z M309.7,167.4V167h3.1v0.4H309.7L309.7,167.4z M303.6,167.4V167h3.1v0.4H303.6
		L303.6,167.4z M297.5,167.4V167h3.1v0.4H297.5L297.5,167.4z M291.4,167.4V167h3.1v0.4H291.4L291.4,167.4z M285.3,167.4V167h3.1v0.4
		H285.3L285.3,167.4z M279.2,167.4V167h3.1v0.4H279.2L279.2,167.4z M273.1,167.4V167h3.1v0.4H273.1L273.1,167.4z M267,167.4V167h3.1
		v0.4H267L267,167.4z M260.9,167.4V167h3.1v0.4H260.9L260.9,167.4z M254.8,167.4V167h3.1v0.4H254.8L254.8,167.4z M248.7,167.4V167
		h3.1v0.4H248.7L248.7,167.4z M242.6,167.4V167h3.1v0.4H242.6L242.6,167.4z M236.5,167.4V167h3.1v0.4H236.5L236.5,167.4z
		 M230.4,167.4V167h3.1v0.4H230.4L230.4,167.4z M224.3,167.4V167h3.1v0.4H224.3L224.3,167.4z M218.2,167.4V167h3.1v0.4H218.2
		L218.2,167.4z M212.1,167.4V167h3.1v0.4H212.1L212.1,167.4z M206,167.4V167h3.1v0.4H206L206,167.4z M199.9,167.4V167h3.1v0.4H199.9
		L199.9,167.4z M193.8,167.4V167h3.1v0.4H193.8L193.8,167.4z M187.7,167.4V167h3.1v0.4H187.7L187.7,167.4z M181.6,167.4V167h3.1v0.4
		H181.6L181.6,167.4z M175.5,167.4V167h3.1v0.4H175.5L175.5,167.4z M169.4,167.4V167h3.1v0.4H169.4L169.4,167.4z M163.3,167.4V167
		h3.1v0.4H163.3L163.3,167.4z M157.1,167.4V167h3.1v0.4H157.1L157.1,167.4z M151,167.4V167h3.1v0.4H151L151,167.4z M144.9,167.4V167
		h3.1v0.4H144.9L144.9,167.4z M138.8,167.4V167h3.1v0.4H138.8L138.8,167.4z M132.7,167.4V167h3.1v0.4H132.7L132.7,167.4z
		 M126.6,167.4V167h3.1v0.4H126.6L126.6,167.4z M120.5,167.4V167h3.1v0.4H120.5L120.5,167.4z M114.4,167.4V167h3.1v0.4H114.4
		L114.4,167.4z M108.3,167.4V167h3.1v0.4H108.3L108.3,167.4z M102.2,167.4V167h3.1v0.4H102.2L102.2,167.4z M96.1,167.4V167h3.1v0.4
		H96.1L96.1,167.4z M90,167.4V167h3.1v0.4H90L90,167.4z M83.9,167.4V167h3.1v0.4H83.9L83.9,167.4z M77.8,167.4V167h3.1v0.4H77.8
		L77.8,167.4z M71.7,167.4V167h3.1v0.4H71.7L71.7,167.4z M65.6,167.4V167h3.1v0.4H65.6L65.6,167.4z"/>
</g>
<g>
	<path class="st0" d="M828.6,134.9v-0.4h0L828.6,134.9L828.6,134.9L828.6,134.9z M822.5,134.9v-0.4h3.1v0.4H822.5L822.5,134.9z
		 M816.4,134.9v-0.4h3.1v0.4H816.4L816.4,134.9z M810.3,134.9v-0.4h3.1v0.4H810.3L810.3,134.9z M804.2,134.9v-0.4h3.1v0.4H804.2
		L804.2,134.9z M798.1,134.9v-0.4h3v0.4H798.1L798.1,134.9z M792,134.9v-0.4h3.1v0.4H792L792,134.9z M785.9,134.9v-0.4h3.1v0.4
		H785.9L785.9,134.9z M779.8,134.9v-0.4h3v0.4H779.8L779.8,134.9z M773.7,134.9v-0.4h3.1v0.4H773.7L773.7,134.9z M767.6,134.9v-0.4
		h3.1v0.4H767.6L767.6,134.9z M761.4,134.9v-0.4h3.1v0.4H761.4L761.4,134.9z M755.3,134.9v-0.4h3.1v0.4H755.3L755.3,134.9z
		 M749.2,134.9v-0.4h3.1v0.4H749.2L749.2,134.9z M743.1,134.9v-0.4h3.1v0.4H743.1L743.1,134.9z M737,134.9v-0.4h3.1v0.4H737
		L737,134.9z M730.9,134.9v-0.4h3.1v0.4H730.9L730.9,134.9z M724.8,134.9v-0.4h3.1v0.4H724.8L724.8,134.9z M718.7,134.9v-0.4h3.1
		v0.4H718.7L718.7,134.9z M712.6,134.9v-0.4h3v0.4H712.6L712.6,134.9z M706.5,134.9v-0.4h3.1v0.4H706.5L706.5,134.9z M700.4,134.9
		v-0.4h3.1v0.4H700.4L700.4,134.9z M694.3,134.9v-0.4h3.1v0.4H694.3L694.3,134.9z M688.2,134.9v-0.4h3.1v0.4H688.2L688.2,134.9z
		 M682.1,134.9v-0.4h3.1v0.4H682.1L682.1,134.9z M676,134.9v-0.4h3.1v0.4H676L676,134.9z M669.9,134.9v-0.4h3.1v0.4H669.9
		L669.9,134.9z M663.8,134.9v-0.4h3.1v0.4H663.8L663.8,134.9z M657.7,134.9v-0.4h3.1v0.4H657.7L657.7,134.9z M651.6,134.9v-0.4h3.1
		v0.4H651.6L651.6,134.9z M645.5,134.9v-0.4h3.1v0.4H645.5L645.5,134.9z M639.4,134.9v-0.4h3.1v0.4H639.4L639.4,134.9z M633.3,134.9
		v-0.4h3.1v0.4H633.3L633.3,134.9z M627.2,134.9v-0.4h3.1v0.4H627.2L627.2,134.9z M621.1,134.9v-0.4h3.1v0.4H621.1L621.1,134.9z
		 M615,134.9v-0.4h3.1v0.4H615L615,134.9z M608.8,134.9v-0.4h3.1v0.4H608.8L608.8,134.9z M602.7,134.9v-0.4h3.1v0.4H602.7
		L602.7,134.9z M596.6,134.9v-0.4h3.1v0.4H596.6L596.6,134.9z M590.5,134.9v-0.4h3v0.4H590.5L590.5,134.9z M584.4,134.9v-0.4h3.1
		v0.4H584.4L584.4,134.9z M578.3,134.9v-0.4h3v0.4H578.3L578.3,134.9z M572.2,134.9v-0.4h3.1v0.4H572.2L572.2,134.9z M566.1,134.9
		v-0.4h3.1v0.4H566.1L566.1,134.9z M560,134.9v-0.4h3.1v0.4H560L560,134.9z M553.9,134.9v-0.4h3.1v0.4H553.9L553.9,134.9z
		 M547.8,134.9v-0.4h3.1v0.4H547.8L547.8,134.9z M541.7,134.9v-0.4h3.1v0.4H541.7L541.7,134.9z M535.6,134.9v-0.4h3.1v0.4H535.6
		L535.6,134.9z M529.5,134.9v-0.4h3.1v0.4H529.5L529.5,134.9z M523.4,134.9v-0.4h3.1v0.4H523.4L523.4,134.9z M517.3,134.9v-0.4h3.1
		v0.4H517.3L517.3,134.9z M511.2,134.9v-0.4h3.1v0.4H511.2L511.2,134.9z M505.1,134.9v-0.4h3.1v0.4H505.1L505.1,134.9z M499,134.9
		v-0.4h3.1v0.4H499L499,134.9z M492.9,134.9v-0.4h3.1v0.4H492.9L492.9,134.9z M486.8,134.9v-0.4h3.1v0.4H486.8L486.8,134.9z
		 M480.7,134.9v-0.4h3.1v0.4H480.7L480.7,134.9z M474.6,134.9v-0.4h3.1v0.4H474.6L474.6,134.9z M468.5,134.9v-0.4h3.1v0.4H468.5
		L468.5,134.9z M462.3,134.9v-0.4h3.1v0.4H462.3L462.3,134.9z M456.2,134.9v-0.4h3.1v0.4H456.2L456.2,134.9z M450.1,134.9v-0.4h3.1
		v0.4H450.1L450.1,134.9z M444,134.9v-0.4h3.1v0.4H444L444,134.9z M437.9,134.9v-0.4h3.1v0.4H437.9L437.9,134.9z M431.8,134.9v-0.4
		h3.1v0.4H431.8L431.8,134.9z M425.7,134.9v-0.4h3.1v0.4H425.7L425.7,134.9z M419.6,134.9v-0.4h3.1v0.4H419.6L419.6,134.9z
		 M413.5,134.9v-0.4h3.1v0.4H413.5L413.5,134.9z M407.4,134.9v-0.4h3.1v0.4H407.4L407.4,134.9z M401.3,134.9v-0.4h3.1v0.4H401.3
		L401.3,134.9z M395.2,134.9v-0.4h3.1v0.4H395.2L395.2,134.9z M389.1,134.9v-0.4h3.1v0.4H389.1L389.1,134.9z M383,134.9v-0.4h3.1
		v0.4H383L383,134.9z M376.9,134.9v-0.4h3.1v0.4H376.9L376.9,134.9z M370.8,134.9v-0.4h3.1v0.4H370.8L370.8,134.9z M364.7,134.9
		v-0.4h3.1v0.4H364.7L364.7,134.9z M358.6,134.9v-0.4h3.1v0.4H358.6L358.6,134.9z M352.5,134.9v-0.4h3.1v0.4H352.5L352.5,134.9z
		 M346.4,134.9v-0.4h3.1v0.4H346.4L346.4,134.9z M340.3,134.9v-0.4h3.1v0.4H340.3L340.3,134.9z M334.2,134.9v-0.4h3.1v0.4H334.2
		L334.2,134.9z M328.1,134.9v-0.4h3.1v0.4H328.1L328.1,134.9z M322,134.9v-0.4h3.1v0.4H322L322,134.9z M315.9,134.9v-0.4h3.1v0.4
		H315.9L315.9,134.9z M309.7,134.9v-0.4h3.1v0.4H309.7L309.7,134.9z M303.6,134.9v-0.4h3.1v0.4H303.6L303.6,134.9z M297.5,134.9
		v-0.4h3.1v0.4H297.5L297.5,134.9z M291.4,134.9v-0.4h3.1v0.4H291.4L291.4,134.9z M285.3,134.9v-0.4h3.1v0.4H285.3L285.3,134.9z
		 M279.2,134.9v-0.4h3.1v0.4H279.2L279.2,134.9z M273.1,134.9v-0.4h3.1v0.4H273.1L273.1,134.9z M267,134.9v-0.4h3.1v0.4H267
		L267,134.9z M260.9,134.9v-0.4h3.1v0.4H260.9L260.9,134.9z M254.8,134.9v-0.4h3.1v0.4H254.8L254.8,134.9z M248.7,134.9v-0.4h3.1
		v0.4H248.7L248.7,134.9z M242.6,134.9v-0.4h3.1v0.4H242.6L242.6,134.9z M236.5,134.9v-0.4h3.1v0.4H236.5L236.5,134.9z M230.4,134.9
		v-0.4h3.1v0.4H230.4L230.4,134.9z M224.3,134.9v-0.4h3.1v0.4H224.3L224.3,134.9z M218.2,134.9v-0.4h3.1v0.4H218.2L218.2,134.9z
		 M212.1,134.9v-0.4h3.1v0.4H212.1L212.1,134.9z M206,134.9v-0.4h3.1v0.4H206L206,134.9z M199.9,134.9v-0.4h3.1v0.4H199.9
		L199.9,134.9z M193.8,134.9v-0.4h3.1v0.4H193.8L193.8,134.9z M187.7,134.9v-0.4h3.1v0.4H187.7L187.7,134.9z M181.6,134.9v-0.4h3.1
		v0.4H181.6L181.6,134.9z M175.5,134.9v-0.4h3.1v0.4H175.5L175.5,134.9z M169.4,134.9v-0.4h3.1v0.4H169.4L169.4,134.9z M163.3,134.9
		v-0.4h3.1v0.4H163.3L163.3,134.9z M157.1,134.9v-0.4h3.1v0.4H157.1L157.1,134.9z M151,134.9v-0.4h3.1v0.4H151L151,134.9z
		 M144.9,134.9v-0.4h3.1v0.4H144.9L144.9,134.9z M138.8,134.9v-0.4h3.1v0.4H138.8L138.8,134.9z M132.7,134.9v-0.4h3.1v0.4H132.7
		L132.7,134.9z M126.6,134.9v-0.4h3.1v0.4H126.6L126.6,134.9z M120.5,134.9v-0.4h3.1v0.4H120.5L120.5,134.9z M114.4,134.9v-0.4h3.1
		v0.4H114.4L114.4,134.9z M108.3,134.9v-0.4h3.1v0.4H108.3L108.3,134.9z M102.2,134.9v-0.4h3.1v0.4H102.2L102.2,134.9z M96.1,134.9
		v-0.4h3.1v0.4H96.1L96.1,134.9z M90,134.9v-0.4h3.1v0.4H90L90,134.9z M83.9,134.9v-0.4h3.1v0.4H83.9L83.9,134.9z M77.8,134.9v-0.4
		h3.1v0.4H77.8L77.8,134.9z M71.7,134.9v-0.4h3.1v0.4H71.7L71.7,134.9z M65.6,134.9v-0.4h3.1v0.4H65.6L65.6,134.9z"/>
</g>
<g>
	<path class="st0" d="M828.6,69.8v-0.4h0L828.6,69.8L828.6,69.8L828.6,69.8z M822.5,69.8v-0.4h3.1v0.4H822.5L822.5,69.8z
		 M816.4,69.8v-0.4h3.1v0.4H816.4L816.4,69.8z M810.3,69.8v-0.4h3.1v0.4H810.3L810.3,69.8z M804.2,69.8v-0.4h3.1v0.4H804.2
		L804.2,69.8z M798.1,69.8v-0.4h3v0.4H798.1L798.1,69.8z M792,69.8v-0.4h3.1v0.4H792L792,69.8z M785.9,69.8v-0.4h3.1v0.4H785.9
		L785.9,69.8z M779.8,69.8v-0.4h3v0.4H779.8L779.8,69.8z M773.7,69.8v-0.4h3.1v0.4H773.7L773.7,69.8z M767.6,69.8v-0.4h3.1v0.4
		H767.6L767.6,69.8z M761.4,69.8v-0.4h3.1v0.4H761.4L761.4,69.8z M755.3,69.8v-0.4h3.1v0.4H755.3L755.3,69.8z M749.2,69.8v-0.4h3.1
		v0.4H749.2L749.2,69.8z M743.1,69.8v-0.4h3.1v0.4H743.1L743.1,69.8z M737,69.8v-0.4h3.1v0.4H737L737,69.8z M730.9,69.8v-0.4h3.1
		v0.4H730.9L730.9,69.8z M724.8,69.8v-0.4h3.1v0.4H724.8L724.8,69.8z M718.7,69.8v-0.4h3.1v0.4H718.7L718.7,69.8z M712.6,69.8v-0.4
		h3v0.4H712.6L712.6,69.8z M706.5,69.8v-0.4h3.1v0.4H706.5L706.5,69.8z M700.4,69.8v-0.4h3.1v0.4H700.4L700.4,69.8z M694.3,69.8
		v-0.4h3.1v0.4H694.3L694.3,69.8z M688.2,69.8v-0.4h3.1v0.4H688.2L688.2,69.8z M682.1,69.8v-0.4h3.1v0.4H682.1L682.1,69.8z
		 M676,69.8v-0.4h3.1v0.4H676L676,69.8z M669.9,69.8v-0.4h3.1v0.4H669.9L669.9,69.8z M663.8,69.8v-0.4h3.1v0.4H663.8L663.8,69.8z
		 M657.7,69.8v-0.4h3.1v0.4H657.7L657.7,69.8z M651.6,69.8v-0.4h3.1v0.4H651.6L651.6,69.8z M645.5,69.8v-0.4h3.1v0.4H645.5
		L645.5,69.8z M639.4,69.8v-0.4h3.1v0.4H639.4L639.4,69.8z M633.3,69.8v-0.4h3.1v0.4H633.3L633.3,69.8z M627.2,69.8v-0.4h3.1v0.4
		H627.2L627.2,69.8z M621.1,69.8v-0.4h3.1v0.4H621.1L621.1,69.8z M615,69.8v-0.4h3.1v0.4H615L615,69.8z M608.8,69.8v-0.4h3.1v0.4
		H608.8L608.8,69.8z M602.7,69.8v-0.4h3.1v0.4H602.7L602.7,69.8z M596.6,69.8v-0.4h3.1v0.4H596.6L596.6,69.8z M590.5,69.8v-0.4h3
		v0.4H590.5L590.5,69.8z M584.4,69.8v-0.4h3.1v0.4H584.4L584.4,69.8z M578.3,69.8v-0.4h3v0.4H578.3L578.3,69.8z M572.2,69.8v-0.4
		h3.1v0.4H572.2L572.2,69.8z M566.1,69.8v-0.4h3.1v0.4H566.1L566.1,69.8z M560,69.8v-0.4h3.1v0.4H560L560,69.8z M553.9,69.8v-0.4
		h3.1v0.4H553.9L553.9,69.8z M547.8,69.8v-0.4h3.1v0.4H547.8L547.8,69.8z M541.7,69.8v-0.4h3.1v0.4H541.7L541.7,69.8z M535.6,69.8
		v-0.4h3.1v0.4H535.6L535.6,69.8z M529.5,69.8v-0.4h3.1v0.4H529.5L529.5,69.8z M523.4,69.8v-0.4h3.1v0.4H523.4L523.4,69.8z
		 M517.3,69.8v-0.4h3.1v0.4H517.3L517.3,69.8z M511.2,69.8v-0.4h3.1v0.4H511.2L511.2,69.8z M505.1,69.8v-0.4h3.1v0.4H505.1
		L505.1,69.8z M499,69.8v-0.4h3.1v0.4H499L499,69.8z M492.9,69.8v-0.4h3.1v0.4H492.9L492.9,69.8z M486.8,69.8v-0.4h3.1v0.4H486.8
		L486.8,69.8z M480.7,69.8v-0.4h3.1v0.4H480.7L480.7,69.8z M474.6,69.8v-0.4h3.1v0.4H474.6L474.6,69.8z M468.5,69.8v-0.4h3.1v0.4
		H468.5L468.5,69.8z M462.3,69.8v-0.4h3.1v0.4H462.3L462.3,69.8z M456.2,69.8v-0.4h3.1v0.4H456.2L456.2,69.8z M450.1,69.8v-0.4h3.1
		v0.4H450.1L450.1,69.8z M444,69.8v-0.4h3.1v0.4H444L444,69.8z M437.9,69.8v-0.4h3.1v0.4H437.9L437.9,69.8z M431.8,69.8v-0.4h3.1
		v0.4H431.8L431.8,69.8z M425.7,69.8v-0.4h3.1v0.4H425.7L425.7,69.8z M419.6,69.8v-0.4h3.1v0.4H419.6L419.6,69.8z M413.5,69.8v-0.4
		h3.1v0.4H413.5L413.5,69.8z M407.4,69.8v-0.4h3.1v0.4H407.4L407.4,69.8z M401.3,69.8v-0.4h3.1v0.4H401.3L401.3,69.8z M395.2,69.8
		v-0.4h3.1v0.4H395.2L395.2,69.8z M389.1,69.8v-0.4h3.1v0.4H389.1L389.1,69.8z M383,69.8v-0.4h3.1v0.4H383L383,69.8z M376.9,69.8
		v-0.4h3.1v0.4H376.9L376.9,69.8z M370.8,69.8v-0.4h3.1v0.4H370.8L370.8,69.8z M364.7,69.8v-0.4h3.1v0.4H364.7L364.7,69.8z
		 M358.6,69.8v-0.4h3.1v0.4H358.6L358.6,69.8z M352.5,69.8v-0.4h3.1v0.4H352.5L352.5,69.8z M346.4,69.8v-0.4h3.1v0.4H346.4
		L346.4,69.8z M340.3,69.8v-0.4h3.1v0.4H340.3L340.3,69.8z M334.2,69.8v-0.4h3.1v0.4H334.2L334.2,69.8z M328.1,69.8v-0.4h3.1v0.4
		H328.1L328.1,69.8z M322,69.8v-0.4h3.1v0.4H322L322,69.8z M315.9,69.8v-0.4h3.1v0.4H315.9L315.9,69.8z M309.7,69.8v-0.4h3.1v0.4
		H309.7L309.7,69.8z M303.6,69.8v-0.4h3.1v0.4H303.6L303.6,69.8z M297.5,69.8v-0.4h3.1v0.4H297.5L297.5,69.8z M291.4,69.8v-0.4h3.1
		v0.4H291.4L291.4,69.8z M285.3,69.8v-0.4h3.1v0.4H285.3L285.3,69.8z M279.2,69.8v-0.4h3.1v0.4H279.2L279.2,69.8z M273.1,69.8v-0.4
		h3.1v0.4H273.1L273.1,69.8z M267,69.8v-0.4h3.1v0.4H267L267,69.8z M260.9,69.8v-0.4h3.1v0.4H260.9L260.9,69.8z M254.8,69.8v-0.4
		h3.1v0.4H254.8L254.8,69.8z M248.7,69.8v-0.4h3.1v0.4H248.7L248.7,69.8z M242.6,69.8v-0.4h3.1v0.4H242.6L242.6,69.8z M236.5,69.8
		v-0.4h3.1v0.4H236.5L236.5,69.8z M230.4,69.8v-0.4h3.1v0.4H230.4L230.4,69.8z M224.3,69.8v-0.4h3.1v0.4H224.3L224.3,69.8z
		 M218.2,69.8v-0.4h3.1v0.4H218.2L218.2,69.8z M212.1,69.8v-0.4h3.1v0.4H212.1L212.1,69.8z M206,69.8v-0.4h3.1v0.4H206L206,69.8z
		 M199.9,69.8v-0.4h3.1v0.4H199.9L199.9,69.8z M193.8,69.8v-0.4h3.1v0.4H193.8L193.8,69.8z M187.7,69.8v-0.4h3.1v0.4H187.7
		L187.7,69.8z M181.6,69.8v-0.4h3.1v0.4H181.6L181.6,69.8z M175.5,69.8v-0.4h3.1v0.4H175.5L175.5,69.8z M169.4,69.8v-0.4h3.1v0.4
		H169.4L169.4,69.8z M163.3,69.8v-0.4h3.1v0.4H163.3L163.3,69.8z M157.1,69.8v-0.4h3.1v0.4H157.1L157.1,69.8z M151,69.8v-0.4h3.1
		v0.4H151L151,69.8z M144.9,69.8v-0.4h3.1v0.4H144.9L144.9,69.8z M138.8,69.8v-0.4h3.1v0.4H138.8L138.8,69.8z M132.7,69.8v-0.4h3.1
		v0.4H132.7L132.7,69.8z M126.6,69.8v-0.4h3.1v0.4H126.6L126.6,69.8z M120.5,69.8v-0.4h3.1v0.4H120.5L120.5,69.8z M114.4,69.8v-0.4
		h3.1v0.4H114.4L114.4,69.8z M108.3,69.8v-0.4h3.1v0.4H108.3L108.3,69.8z M102.2,69.8v-0.4h3.1v0.4H102.2L102.2,69.8z M96.1,69.8
		v-0.4h3.1v0.4H96.1L96.1,69.8z M90,69.8v-0.4h3.1v0.4H90L90,69.8z M83.9,69.8v-0.4h3.1v0.4H83.9L83.9,69.8z M77.8,69.8v-0.4h3.1
		v0.4H77.8L77.8,69.8z M71.7,69.8v-0.4h3.1v0.4H71.7L71.7,69.8z M65.6,69.8v-0.4h3.1v0.4H65.6L65.6,69.8z"/>
</g>
<g>
	<path class="st0" d="M828.6,4.8V4.4h0L828.6,4.8L828.6,4.8L828.6,4.8z M822.5,4.8V4.4h3.1v0.4H822.5L822.5,4.8z M816.4,4.8V4.4h3.1
		v0.4H816.4L816.4,4.8z M810.3,4.8V4.4h3.1v0.4H810.3L810.3,4.8z M804.2,4.8V4.4h3.1v0.4H804.2L804.2,4.8z M798.1,4.8V4.4h3v0.4
		H798.1L798.1,4.8z M792,4.8V4.4h3.1v0.4H792L792,4.8z M785.9,4.8V4.4h3.1v0.4H785.9L785.9,4.8z M779.8,4.8V4.4h3v0.4H779.8
		L779.8,4.8z M773.7,4.8V4.4h3.1v0.4H773.7L773.7,4.8z M767.6,4.8V4.4h3.1v0.4H767.6L767.6,4.8z M761.4,4.8V4.4h3.1v0.4H761.4
		L761.4,4.8z M755.3,4.8V4.4h3.1v0.4H755.3L755.3,4.8z M749.2,4.8V4.4h3.1v0.4H749.2L749.2,4.8z M743.1,4.8V4.4h3.1v0.4H743.1
		L743.1,4.8z M737,4.8V4.4h3.1v0.4H737L737,4.8z M730.9,4.8V4.4h3.1v0.4H730.9L730.9,4.8z M724.8,4.8V4.4h3.1v0.4H724.8L724.8,4.8z
		 M718.7,4.8V4.4h3.1v0.4H718.7L718.7,4.8z M712.6,4.8V4.4h3v0.4H712.6L712.6,4.8z M706.5,4.8V4.4h3.1v0.4H706.5L706.5,4.8z
		 M700.4,4.8V4.4h3.1v0.4H700.4L700.4,4.8z M694.3,4.8V4.4h3.1v0.4H694.3L694.3,4.8z M688.2,4.8V4.4h3.1v0.4H688.2L688.2,4.8z
		 M682.1,4.8V4.4h3.1v0.4H682.1L682.1,4.8z M676,4.8V4.4h3.1v0.4H676L676,4.8z M669.9,4.8V4.4h3.1v0.4H669.9L669.9,4.8z M663.8,4.8
		V4.4h3.1v0.4H663.8L663.8,4.8z M657.7,4.8V4.4h3.1v0.4H657.7L657.7,4.8z M651.6,4.8V4.4h3.1v0.4H651.6L651.6,4.8z M645.5,4.8V4.4
		h3.1v0.4H645.5L645.5,4.8z M639.4,4.8V4.4h3.1v0.4H639.4L639.4,4.8z M633.3,4.8V4.4h3.1v0.4H633.3L633.3,4.8z M627.2,4.8V4.4h3.1
		v0.4H627.2L627.2,4.8z M621.1,4.8V4.4h3.1v0.4H621.1L621.1,4.8z M615,4.8V4.4h3.1v0.4H615L615,4.8z M608.8,4.8V4.4h3.1v0.4H608.8
		L608.8,4.8z M602.7,4.8V4.4h3.1v0.4H602.7L602.7,4.8z M596.6,4.8V4.4h3.1v0.4H596.6L596.6,4.8z M590.5,4.8V4.4h3v0.4H590.5
		L590.5,4.8z M584.4,4.8V4.4h3.1v0.4H584.4L584.4,4.8z M578.3,4.8V4.4h3v0.4H578.3L578.3,4.8z M572.2,4.8V4.4h3.1v0.4H572.2
		L572.2,4.8z M566.1,4.8V4.4h3.1v0.4H566.1L566.1,4.8z M560,4.8V4.4h3.1v0.4H560L560,4.8z M553.9,4.8V4.4h3.1v0.4H553.9L553.9,4.8z
		 M547.8,4.8V4.4h3.1v0.4H547.8L547.8,4.8z M541.7,4.8V4.4h3.1v0.4H541.7L541.7,4.8z M535.6,4.8V4.4h3.1v0.4H535.6L535.6,4.8z
		 M529.5,4.8V4.4h3.1v0.4H529.5L529.5,4.8z M523.4,4.8V4.4h3.1v0.4H523.4L523.4,4.8z M517.3,4.8V4.4h3.1v0.4H517.3L517.3,4.8z
		 M511.2,4.8V4.4h3.1v0.4H511.2L511.2,4.8z M505.1,4.8V4.4h3.1v0.4H505.1L505.1,4.8z M499,4.8V4.4h3.1v0.4H499L499,4.8z M492.9,4.8
		V4.4h3.1v0.4H492.9L492.9,4.8z M486.8,4.8V4.4h3.1v0.4H486.8L486.8,4.8z M480.7,4.8V4.4h3.1v0.4H480.7L480.7,4.8z M474.6,4.8V4.4
		h3.1v0.4H474.6L474.6,4.8z M468.5,4.8V4.4h3.1v0.4H468.5L468.5,4.8z M462.3,4.8V4.4h3.1v0.4H462.3L462.3,4.8z M456.2,4.8V4.4h3.1
		v0.4H456.2L456.2,4.8z M450.1,4.8V4.4h3.1v0.4H450.1L450.1,4.8z M444,4.8V4.4h3.1v0.4H444L444,4.8z M437.9,4.8V4.4h3.1v0.4H437.9
		L437.9,4.8z M431.8,4.8V4.4h3.1v0.4H431.8L431.8,4.8z M425.7,4.8V4.4h3.1v0.4H425.7L425.7,4.8z M419.6,4.8V4.4h3.1v0.4H419.6
		L419.6,4.8z M413.5,4.8V4.4h3.1v0.4H413.5L413.5,4.8z M407.4,4.8V4.4h3.1v0.4H407.4L407.4,4.8z M401.3,4.8V4.4h3.1v0.4H401.3
		L401.3,4.8z M395.2,4.8V4.4h3.1v0.4H395.2L395.2,4.8z M389.1,4.8V4.4h3.1v0.4H389.1L389.1,4.8z M383,4.8V4.4h3.1v0.4H383L383,4.8z
		 M376.9,4.8V4.4h3.1v0.4H376.9L376.9,4.8z M370.8,4.8V4.4h3.1v0.4H370.8L370.8,4.8z M364.7,4.8V4.4h3.1v0.4H364.7L364.7,4.8z
		 M358.6,4.8V4.4h3.1v0.4H358.6L358.6,4.8z M352.5,4.8V4.4h3.1v0.4H352.5L352.5,4.8z M346.4,4.8V4.4h3.1v0.4H346.4L346.4,4.8z
		 M340.3,4.8V4.4h3.1v0.4H340.3L340.3,4.8z M334.2,4.8V4.4h3.1v0.4H334.2L334.2,4.8z M328.1,4.8V4.4h3.1v0.4H328.1L328.1,4.8z
		 M322,4.8V4.4h3.1v0.4H322L322,4.8z M315.9,4.8V4.4h3.1v0.4H315.9L315.9,4.8z M309.7,4.8V4.4h3.1v0.4H309.7L309.7,4.8z M303.6,4.8
		V4.4h3.1v0.4H303.6L303.6,4.8z M297.5,4.8V4.4h3.1v0.4H297.5L297.5,4.8z M291.4,4.8V4.4h3.1v0.4H291.4L291.4,4.8z M285.3,4.8V4.4
		h3.1v0.4H285.3L285.3,4.8z M279.2,4.8V4.4h3.1v0.4H279.2L279.2,4.8z M273.1,4.8V4.4h3.1v0.4H273.1L273.1,4.8z M267,4.8V4.4h3.1v0.4
		H267L267,4.8z M260.9,4.8V4.4h3.1v0.4H260.9L260.9,4.8z M254.8,4.8V4.4h3.1v0.4H254.8L254.8,4.8z M248.7,4.8V4.4h3.1v0.4H248.7
		L248.7,4.8z M242.6,4.8V4.4h3.1v0.4H242.6L242.6,4.8z M236.5,4.8V4.4h3.1v0.4H236.5L236.5,4.8z M230.4,4.8V4.4h3.1v0.4H230.4
		L230.4,4.8z M224.3,4.8V4.4h3.1v0.4H224.3L224.3,4.8z M218.2,4.8V4.4h3.1v0.4H218.2L218.2,4.8z M212.1,4.8V4.4h3.1v0.4H212.1
		L212.1,4.8z M206,4.8V4.4h3.1v0.4H206L206,4.8z M199.9,4.8V4.4h3.1v0.4H199.9L199.9,4.8z M193.8,4.8V4.4h3.1v0.4H193.8L193.8,4.8z
		 M187.7,4.8V4.4h3.1v0.4H187.7L187.7,4.8z M181.6,4.8V4.4h3.1v0.4H181.6L181.6,4.8z M175.5,4.8V4.4h3.1v0.4H175.5L175.5,4.8z
		 M169.4,4.8V4.4h3.1v0.4H169.4L169.4,4.8z M163.3,4.8V4.4h3.1v0.4H163.3L163.3,4.8z M157.1,4.8V4.4h3.1v0.4H157.1L157.1,4.8z
		 M151,4.8V4.4h3.1v0.4H151L151,4.8z M144.9,4.8V4.4h3.1v0.4H144.9L144.9,4.8z M138.8,4.8V4.4h3.1v0.4H138.8L138.8,4.8z M132.7,4.8
		V4.4h3.1v0.4H132.7L132.7,4.8z M126.6,4.8V4.4h3.1v0.4H126.6L126.6,4.8z M120.5,4.8V4.4h3.1v0.4H120.5L120.5,4.8z M114.4,4.8V4.4
		h3.1v0.4H114.4L114.4,4.8z M108.3,4.8V4.4h3.1v0.4H108.3L108.3,4.8z M102.2,4.8V4.4h3.1v0.4H102.2L102.2,4.8z M96.1,4.8V4.4h3.1
		v0.4H96.1L96.1,4.8z M90,4.8V4.4h3.1v0.4H90L90,4.8z M83.9,4.8V4.4h3.1v0.4H83.9L83.9,4.8z M77.8,4.8V4.4h3.1v0.4H77.8L77.8,4.8z
		 M71.7,4.8V4.4h3.1v0.4H71.7L71.7,4.8z M65.6,4.8V4.4h3.1v0.4H65.6L65.6,4.8z"/>
</g>
<g>
	<path class="st0" d="M828.6,37.3v-0.4h0L828.6,37.3L828.6,37.3L828.6,37.3z M822.5,37.3v-0.4h3.1v0.4H822.5L822.5,37.3z
		 M816.4,37.3v-0.4h3.1v0.4H816.4L816.4,37.3z M810.3,37.3v-0.4h3.1v0.4H810.3L810.3,37.3z M804.2,37.3v-0.4h3.1v0.4H804.2
		L804.2,37.3z M798.1,37.3v-0.4h3v0.4H798.1L798.1,37.3z M792,37.3v-0.4h3.1v0.4H792L792,37.3z M785.9,37.3v-0.4h3.1v0.4H785.9
		L785.9,37.3z M779.8,37.3v-0.4h3v0.4H779.8L779.8,37.3z M773.7,37.3v-0.4h3.1v0.4H773.7L773.7,37.3z M767.6,37.3v-0.4h3.1v0.4
		H767.6L767.6,37.3z M761.4,37.3v-0.4h3.1v0.4H761.4L761.4,37.3z M755.3,37.3v-0.4h3.1v0.4H755.3L755.3,37.3z M749.2,37.3v-0.4h3.1
		v0.4H749.2L749.2,37.3z M743.1,37.3v-0.4h3.1v0.4H743.1L743.1,37.3z M737,37.3v-0.4h3.1v0.4H737L737,37.3z M730.9,37.3v-0.4h3.1
		v0.4H730.9L730.9,37.3z M724.8,37.3v-0.4h3.1v0.4H724.8L724.8,37.3z M718.7,37.3v-0.4h3.1v0.4H718.7L718.7,37.3z M712.6,37.3v-0.4
		h3v0.4H712.6L712.6,37.3z M706.5,37.3v-0.4h3.1v0.4H706.5L706.5,37.3z M700.4,37.3v-0.4h3.1v0.4H700.4L700.4,37.3z M694.3,37.3
		v-0.4h3.1v0.4H694.3L694.3,37.3z M688.2,37.3v-0.4h3.1v0.4H688.2L688.2,37.3z M682.1,37.3v-0.4h3.1v0.4H682.1L682.1,37.3z
		 M676,37.3v-0.4h3.1v0.4H676L676,37.3z M669.9,37.3v-0.4h3.1v0.4H669.9L669.9,37.3z M663.8,37.3v-0.4h3.1v0.4H663.8L663.8,37.3z
		 M657.7,37.3v-0.4h3.1v0.4H657.7L657.7,37.3z M651.6,37.3v-0.4h3.1v0.4H651.6L651.6,37.3z M645.5,37.3v-0.4h3.1v0.4H645.5
		L645.5,37.3z M639.4,37.3v-0.4h3.1v0.4H639.4L639.4,37.3z M633.3,37.3v-0.4h3.1v0.4H633.3L633.3,37.3z M627.2,37.3v-0.4h3.1v0.4
		H627.2L627.2,37.3z M621.1,37.3v-0.4h3.1v0.4H621.1L621.1,37.3z M615,37.3v-0.4h3.1v0.4H615L615,37.3z M608.8,37.3v-0.4h3.1v0.4
		H608.8L608.8,37.3z M602.7,37.3v-0.4h3.1v0.4H602.7L602.7,37.3z M596.6,37.3v-0.4h3.1v0.4H596.6L596.6,37.3z M590.5,37.3v-0.4h3
		v0.4H590.5L590.5,37.3z M584.4,37.3v-0.4h3.1v0.4H584.4L584.4,37.3z M578.3,37.3v-0.4h3v0.4H578.3L578.3,37.3z M572.2,37.3v-0.4
		h3.1v0.4H572.2L572.2,37.3z M566.1,37.3v-0.4h3.1v0.4H566.1L566.1,37.3z M560,37.3v-0.4h3.1v0.4H560L560,37.3z M553.9,37.3v-0.4
		h3.1v0.4H553.9L553.9,37.3z M547.8,37.3v-0.4h3.1v0.4H547.8L547.8,37.3z M541.7,37.3v-0.4h3.1v0.4H541.7L541.7,37.3z M535.6,37.3
		v-0.4h3.1v0.4H535.6L535.6,37.3z M529.5,37.3v-0.4h3.1v0.4H529.5L529.5,37.3z M523.4,37.3v-0.4h3.1v0.4H523.4L523.4,37.3z
		 M517.3,37.3v-0.4h3.1v0.4H517.3L517.3,37.3z M511.2,37.3v-0.4h3.1v0.4H511.2L511.2,37.3z M505.1,37.3v-0.4h3.1v0.4H505.1
		L505.1,37.3z M499,37.3v-0.4h3.1v0.4H499L499,37.3z M492.9,37.3v-0.4h3.1v0.4H492.9L492.9,37.3z M486.8,37.3v-0.4h3.1v0.4H486.8
		L486.8,37.3z M480.7,37.3v-0.4h3.1v0.4H480.7L480.7,37.3z M474.6,37.3v-0.4h3.1v0.4H474.6L474.6,37.3z M468.5,37.3v-0.4h3.1v0.4
		H468.5L468.5,37.3z M462.3,37.3v-0.4h3.1v0.4H462.3L462.3,37.3z M456.2,37.3v-0.4h3.1v0.4H456.2L456.2,37.3z M450.1,37.3v-0.4h3.1
		v0.4H450.1L450.1,37.3z M444,37.3v-0.4h3.1v0.4H444L444,37.3z M437.9,37.3v-0.4h3.1v0.4H437.9L437.9,37.3z M431.8,37.3v-0.4h3.1
		v0.4H431.8L431.8,37.3z M425.7,37.3v-0.4h3.1v0.4H425.7L425.7,37.3z M419.6,37.3v-0.4h3.1v0.4H419.6L419.6,37.3z M413.5,37.3v-0.4
		h3.1v0.4H413.5L413.5,37.3z M407.4,37.3v-0.4h3.1v0.4H407.4L407.4,37.3z M401.3,37.3v-0.4h3.1v0.4H401.3L401.3,37.3z M395.2,37.3
		v-0.4h3.1v0.4H395.2L395.2,37.3z M389.1,37.3v-0.4h3.1v0.4H389.1L389.1,37.3z M383,37.3v-0.4h3.1v0.4H383L383,37.3z M376.9,37.3
		v-0.4h3.1v0.4H376.9L376.9,37.3z M370.8,37.3v-0.4h3.1v0.4H370.8L370.8,37.3z M364.7,37.3v-0.4h3.1v0.4H364.7L364.7,37.3z
		 M358.6,37.3v-0.4h3.1v0.4H358.6L358.6,37.3z M352.5,37.3v-0.4h3.1v0.4H352.5L352.5,37.3z M346.4,37.3v-0.4h3.1v0.4H346.4
		L346.4,37.3z M340.3,37.3v-0.4h3.1v0.4H340.3L340.3,37.3z M334.2,37.3v-0.4h3.1v0.4H334.2L334.2,37.3z M328.1,37.3v-0.4h3.1v0.4
		H328.1L328.1,37.3z M322,37.3v-0.4h3.1v0.4H322L322,37.3z M315.9,37.3v-0.4h3.1v0.4H315.9L315.9,37.3z M309.7,37.3v-0.4h3.1v0.4
		H309.7L309.7,37.3z M303.6,37.3v-0.4h3.1v0.4H303.6L303.6,37.3z M297.5,37.3v-0.4h3.1v0.4H297.5L297.5,37.3z M291.4,37.3v-0.4h3.1
		v0.4H291.4L291.4,37.3z M285.3,37.3v-0.4h3.1v0.4H285.3L285.3,37.3z M279.2,37.3v-0.4h3.1v0.4H279.2L279.2,37.3z M273.1,37.3v-0.4
		h3.1v0.4H273.1L273.1,37.3z M267,37.3v-0.4h3.1v0.4H267L267,37.3z M260.9,37.3v-0.4h3.1v0.4H260.9L260.9,37.3z M254.8,37.3v-0.4
		h3.1v0.4H254.8L254.8,37.3z M248.7,37.3v-0.4h3.1v0.4H248.7L248.7,37.3z M242.6,37.3v-0.4h3.1v0.4H242.6L242.6,37.3z M236.5,37.3
		v-0.4h3.1v0.4H236.5L236.5,37.3z M230.4,37.3v-0.4h3.1v0.4H230.4L230.4,37.3z M224.3,37.3v-0.4h3.1v0.4H224.3L224.3,37.3z
		 M218.2,37.3v-0.4h3.1v0.4H218.2L218.2,37.3z M212.1,37.3v-0.4h3.1v0.4H212.1L212.1,37.3z M206,37.3v-0.4h3.1v0.4H206L206,37.3z
		 M199.9,37.3v-0.4h3.1v0.4H199.9L199.9,37.3z M193.8,37.3v-0.4h3.1v0.4H193.8L193.8,37.3z M187.7,37.3v-0.4h3.1v0.4H187.7
		L187.7,37.3z M181.6,37.3v-0.4h3.1v0.4H181.6L181.6,37.3z M175.5,37.3v-0.4h3.1v0.4H175.5L175.5,37.3z M169.4,37.3v-0.4h3.1v0.4
		H169.4L169.4,37.3z M163.3,37.3v-0.4h3.1v0.4H163.3L163.3,37.3z M157.1,37.3v-0.4h3.1v0.4H157.1L157.1,37.3z M151,37.3v-0.4h3.1
		v0.4H151L151,37.3z M144.9,37.3v-0.4h3.1v0.4H144.9L144.9,37.3z M138.8,37.3v-0.4h3.1v0.4H138.8L138.8,37.3z M132.7,37.3v-0.4h3.1
		v0.4H132.7L132.7,37.3z M126.6,37.3v-0.4h3.1v0.4H126.6L126.6,37.3z M120.5,37.3v-0.4h3.1v0.4H120.5L120.5,37.3z M114.4,37.3v-0.4
		h3.1v0.4H114.4L114.4,37.3z M108.3,37.3v-0.4h3.1v0.4H108.3L108.3,37.3z M102.2,37.3v-0.4h3.1v0.4H102.2L102.2,37.3z M96.1,37.3
		v-0.4h3.1v0.4H96.1L96.1,37.3z M90,37.3v-0.4h3.1v0.4H90L90,37.3z M83.9,37.3v-0.4h3.1v0.4H83.9L83.9,37.3z M77.8,37.3v-0.4h3.1
		v0.4H77.8L77.8,37.3z M71.7,37.3v-0.4h3.1v0.4H71.7L71.7,37.3z M65.6,37.3v-0.4h3.1v0.4H65.6L65.6,37.3z"/>
</g>
<g>
	<polygon class="st0" points="65.5,268.5 65.5,266.9 828.5,266.9 828.5,268.5 65.5,268.5 	"/>
</g>
<g>
	<polygon class="st0" points="65.6,4.4 67.1,4.4 67.1,268.5 65.6,268.5 65.6,4.4 	"/>
</g>
<g>
	<text transform="matrix(1 0 0 1 74.6504 294.3871)" class="st1 st2 st3">FOUNDED</text>
</g>
<g>
	<text transform="matrix(0.9828 -0.1848 0.1848 0.9828 363.6732 162.364)" class="st4 st5 st3">Venture equity</text>
</g>
<g>
	<text transform="matrix(0.9876 -0.1573 0.1573 0.9876 513.6634 82.8698)" class="st4 st5 st3">Private equity</text>
</g>
<g>
	<text transform="matrix(0.9766 -0.2151 0.2151 0.9766 151.8541 242.9323)" class="st4 st5 st6">Seed &amp; venture captial</text>
</g>
<g>
	<text transform="matrix(1 0 0 1 7.2549 297.8128)" class="st1 st2 st3">0M ARR</text>
</g>
<g>
	<text transform="matrix(1 0 0 1 7.2549 234.804)" class="st1 st2 st3">1M ARR</text>
</g>
<g>
	<text transform="matrix(1 0 0 1 7.2549 171.7953)" class="st1 st2 st3">5M ARR</text>
</g>
<g>
	<text transform="matrix(1 0 0 1 0 108.7874)" class="st1 st2 st3">20M ARR</text>
</g>
<g>
	<text transform="matrix(1 0 0 1 0 45.7787)" class="st1 st2 st3">50M ARR</text>
</g>
<g>
	<text transform="matrix(1 0 0 1 259.1172 294.3871)" class="st1 st2 st3">1 Year</text>
</g>
<g>
	<text transform="matrix(1 0 0 1 421.5117 294.3871)" class="st1 st2 st3">3 YEARS</text>
</g>
<g>
	<text transform="matrix(1 0 0 1 593.0938 294.3871)" class="st1 st2 st3">5 YEARS</text>
</g>
<g>
	<text transform="matrix(1 0 0 1 764.875 294.3871)" class="st1 st2 st3">10 YEARS</text>
</g>
<path class="st7" d="M66.9,266.2l331.9-73.4c14.1-3.1,27.9-7.1,41.4-12.1l14.2-5.2c14.7-5.3,26.1-17.1,31.2-31.8l44.2-129.8"/>
<path class="st7" d="M465.4,167.8"/>
<path class="st7" d="M529.7,13.8"/>
<g class="st8">
	<g>
		<polygon class="st9" points="534.9,15.2 532.1,4.6 524.3,12.3 		"/>
	</g>
</g>
<g class="st8">
	<g>
		<polygon class="st10" points="664.4,48.9 668.8,38.9 658,40.1 		"/>
	</g>
</g>
<g class="st8">
	<g>
		<polygon class="st11" points="767.5,9.6 772.7,0 761.8,0.3 		"/>
	</g>
</g>
<path class="st12" d="M367.7,167l143.7-28c13.9-2.7,27.1-8.3,38.7-16.4l111.4-77.9"/>
<path class="st13" d="M447.1,102.3l191.3-35c7.6-1.4,14.9-3.9,21.7-7.5L764.5,4.8"/>
</svg>
