<?xml version="1.0" encoding="utf-8"?>
<!-- Generator: Adobe Illustrator 21.0.0, SVG Export Plug-In . SVG Version: 6.00 Build 0)  -->
<svg version="1.1" id="Layer_1" xmlns="http://www.w3.org/2000/svg" xmlns:xlink="http://www.w3.org/1999/xlink" x="0px" y="0px"
	 viewBox="0 0 100 100" style="enable-background:new 0 0 100 100;" xml:space="preserve">
<style type="text/css">
	.st0{fill:#478ECC;}
	.st1{fill:#FFFFFF;}
</style>
<g>
	<circle class="st0" cx="50" cy="50" r="50"/>
	<g>
		<path class="st1" d="M63.4,50.3c-0.5,0-1-0.4-1-1c0-0.5,0.4-1,1-1c1,0,1.8-0.8,1.8-1.7c0-1-0.8-1.7-1.8-1.7c-0.5,0-1-0.4-1-1
			c0-0.5,0.4-1,1-1c2.1,0,3.8,1.6,3.8,3.7C67.1,48.7,65.5,50.3,63.4,50.3z"/>
		<path class="st1" d="M63.4,53.7c-0.5,0-1-0.4-1-1c0-0.5,0.4-1,1-1c3,0,5.3-2.3,5.3-5.2c0-2.9-2.3-5.2-5.3-5.2c-0.5,0-1-0.4-1-1
			c0-0.5,0.4-1,1-1c4.1,0,7.3,3.1,7.3,7.1S67.4,53.7,63.4,53.7z"/>
		<path class="st1" d="M63.3,57.3c-0.5,0-1-0.4-1-1s0.4-1,1-1c5,0,9-3.8,9-8.7c0-4.9-3.9-8.7-9-8.7c-0.5,0-1-0.4-1-1
			c0-0.5,0.4-1,1-1c6.1,0,10.9,4.7,10.9,10.7C74.2,52.6,69.4,57.3,63.3,57.3z"/>
		<path class="st1" d="M27.4,47.2c0,4.5,3.7,8.1,7.6,8.7V38.5C31.1,39.1,27.4,42.7,27.4,47.2z"/>
		<path class="st1" d="M57.9,27.5c-0.4-0.2-0.8-0.1-1.1,0.2l-10.1,9.2v20.3l10.1,8.4c0.2,0.1,0.4,0.2,0.6,0.2c0.1,0,0.3,0,0.4-0.1
			c0.3-0.2,0.6-0.5,0.6-0.9V28.4C58.5,28,58.3,27.6,57.9,27.5z"/>
		<g>
			<path class="st1" d="M48.6,68.2l-2.9-10.3h-7.9l3.2,11c0.1,0.4,0.5,0.7,0.9,0.7h5.9c0,0,0,0,0,0c0.5,0,1-0.4,1-1
				C48.8,68.5,48.7,68.3,48.6,68.2z"/>
			<polygon class="st1" points="45.1,56 44.8,54.9 44.8,38.4 40.9,38.4 37,38.4 37,56 37.2,56 			"/>
		</g>
	</g>
</g>
</svg>
