<?xml version="1.0" encoding="utf-8"?>
<!-- Generator: Adobe Illustrator 21.0.0, SVG Export Plug-In . SVG Version: 6.00 Build 0)  -->
<svg version="1.1" id="Layer_1" xmlns="http://www.w3.org/2000/svg" xmlns:xlink="http://www.w3.org/1999/xlink" x="0px" y="0px"
	 viewBox="0 0 100 100" style="enable-background:new 0 0 100 100;" xml:space="preserve">
<style type="text/css">
	.st0{fill:#05BBD3;}
	.st1{fill:#FFFFFF;}
</style>
<g>
	<circle class="st0" cx="50.7" cy="50.8" r="50"/>
	<path class="st1" d="M55.2,37.5c5.2,2.3,8.3,3.3,8.5,3.3c0,0,0,0,0,0c1.4,2.6,3.9,9.4,5.3,13.6l-1.6,1.2C64.4,51.5,57,44.7,52.9,42
		c-0.3-0.2-0.8-0.3-1.1-0.1l-0.7,0.2c-1.2,0.4-1.2,0.4-2,0.5l-0.5,0c-0.4,0-0.7,0.2-0.9,0.6c-1.7,2.5-3.1,3.9-5,3.2
		c-0.4-0.1-0.5-0.3-0.6-0.7c-0.4-1.5,1.1-4.5,2.5-5.9C46.8,37.6,51,35.6,55.2,37.5z M28.9,56c-1.5,0.1-4.9,0.2-6.3,0.1
		c0.2-7.4,1.7-17,2.3-20.4c2.1,0.3,6.3,1.1,8.8,1.8C33,43.2,29.9,53.1,28.9,56z M65.7,60.4c-0.3,0.3-0.8,0.4-1.1,0.2
		c-1.1-0.9-6.5-5.9-8.5-7.7c-0.5-0.5-1.3-0.5-1.8,0.1c-0.5,0.5-0.5,1.3,0.1,1.8c0.3,0.3,6.1,5.7,8.1,7.5c-0.1,0.5-0.6,0.9-0.9,1
		c-0.7,0.3-1.6,0.4-1.9,0c0,0,0,0,0,0c0,0,0,0,0,0c-1.7-1.4-6.5-5.7-7.1-6.3c-0.5-0.5-1.3-0.6-1.8-0.1c-0.5,0.5-0.6,1.3-0.1,1.8
		c0.7,0.7,4.6,4.3,6.7,6c-0.2,0.3-0.5,0.4-0.7,0.5c-0.8,0.3-2,0.2-2.7-0.4c0,0,0,0,0,0c0,0,0,0,0,0c-1.6-1.3-3.8-3.5-5.3-5.1
		C48,59,47.2,59,46.7,59.5c-0.5,0.5-0.5,1.3-0.1,1.8c1.3,1.4,3.1,3.1,4.6,4.5c-0.1,0.1-0.3,0.1-0.5,0.2c-0.9,0.1-2-0.2-2.6-0.7
		c-0.9-0.6-6.8-5.5-12.3-10.1l-3.1-2.6c1.3-4.3,3.1-10.6,3.6-14.8c1.7,0,4.2,0.1,6.4,0.2c-1.7,1.7-3.8,5.6-3.2,8.4
		c0.3,1.2,1.1,2.1,2.3,2.5c3.8,1.2,6.3-1.9,7.6-3.7c1-0.1,1.2-0.1,2.5-0.6l0,0c4.8,3.3,12.6,10.7,14,13.8
		C66.5,59.2,66.1,60,65.7,60.4z M76,55.5c-2.2,0-3.5-0.2-4.1-0.3c-1-3.5-3.7-11.1-5.5-14.9c1.5-0.5,4.2-1.3,6.9-1.3
		c0.6,0,1.2,0,1.8,0.1c1.9,3.3,3.2,11.8,3.7,16.3C78,55.5,77,55.5,76,55.5z"/>
</g>
</svg>
