<?xml version="1.0" encoding="utf-8"?>
<!-- Generator: Adobe Illustrator 21.0.0, SVG Export Plug-In . SVG Version: 6.00 Build 0)  -->
<svg version="1.1" id="Layer_1" xmlns="http://www.w3.org/2000/svg" xmlns:xlink="http://www.w3.org/1999/xlink" x="0px" y="0px"
	 viewBox="0 0 100 100" style="enable-background:new 0 0 100 100;" xml:space="preserve">
<style type="text/css">
	.st0{fill:#E71E63;}
	.st1{fill:#FFFFFF;}
</style>
<g>
	<circle class="st0" cx="50" cy="50" r="50"/>
	<g>
		<path class="st1" d="M42.8,57.9v2.4l7.8,7.2c0.2,0.2,0.4,0.3,0.7,0.3c0,0,0.1,0,0.1,0c0.3,0,0.6-0.2,0.7-0.5l21.6-33.5L42.8,57.9z
			"/>
		<path class="st1" d="M71.3,32.3L26.9,46.4c-0.4,0.1-0.6,0.4-0.7,0.8c-0.1,0.4,0.1,0.8,0.4,1l7,5.6L71.3,32.3z"/>
		<path class="st1" d="M40.7,57.4c0-0.3,0.2-0.6,0.4-0.8l22.3-17.3l-29,16.4v8.8c0,0.4,0.3,0.8,0.7,1c0.1,0,0.2,0.1,0.4,0.1
			c0.3,0,0.6-0.1,0.8-0.4l4.4-5.1V57.4z"/>
	</g>
</g>
</svg>
