<?xml version="1.0" encoding="utf-8"?>
<!-- Generator: Adobe Illustrator 21.0.0, SVG Export Plug-In . SVG Version: 6.00 Build 0)  -->
<svg version="1.1" id="Layer_1" xmlns="http://www.w3.org/2000/svg" xmlns:xlink="http://www.w3.org/1999/xlink" x="0px" y="0px"
	 viewBox="0 0 100 100" style="enable-background:new 0 0 100 100;" xml:space="preserve">
<style type="text/css">
	.st0{fill:#8E3F97;}
	.st1{fill:#FFFFFF;}
</style>
<g>
	<circle class="st0" cx="50" cy="50" r="50"/>
	<g>
		<path class="st1" d="M68.6,32.5h-5.5v-7.6c0-0.6-0.5-1.1-1.1-1.1H38c-0.6,0-1.1,0.5-1.1,1.1v7.6h-5.4c-0.6,0-1.1,0.5-1.1,1.1v41.6
			c0,0.6,0.5,1.1,1.1,1.1h14.2v-7.6c0-0.6,0.5-1.1,1.1-1.1h6.6c0.6,0,1.1,0.5,1.1,1.1v7.6h14.3c0.6,0,1.1-0.5,1.1-1.1V33.6
			C69.7,33,69.2,32.5,68.6,32.5z M41.3,65.3h-4.4c-0.6,0-1.1-0.5-1.1-1.1c0-0.6,0.5-1.1,1.1-1.1h4.4c0.6,0,1.1,0.5,1.1,1.1
			C42.4,64.8,41.9,65.3,41.3,65.3z M41.3,60.9h-4.4c-0.6,0-1.1-0.5-1.1-1.1c0-0.6,0.5-1.1,1.1-1.1h4.4c0.6,0,1.1,0.5,1.1,1.1
			C42.4,60.4,41.9,60.9,41.3,60.9z M41.3,56.6h-4.4c-0.6,0-1.1-0.5-1.1-1.1c0-0.6,0.5-1.1,1.1-1.1h4.4c0.6,0,1.1,0.5,1.1,1.1
			C42.4,56.1,41.9,56.6,41.3,56.6z M41.3,52.2h-4.4c-0.6,0-1.1-0.5-1.1-1.1s0.5-1.1,1.1-1.1h4.4c0.6,0,1.1,0.5,1.1,1.1
			S41.9,52.2,41.3,52.2z M41.3,47.8h-4.4c-0.6,0-1.1-0.5-1.1-1.1c0-0.6,0.5-1.1,1.1-1.1h4.4c0.6,0,1.1,0.5,1.1,1.1
			C42.4,47.3,41.9,47.8,41.3,47.8z M41.3,43.4h-4.4c-0.6,0-1.1-0.5-1.1-1.1s0.5-1.1,1.1-1.1h4.4c0.6,0,1.1,0.5,1.1,1.1
			S41.9,43.4,41.3,43.4z M41.3,39.1h-4.4c-0.6,0-1.1-0.5-1.1-1.1c0-0.6,0.5-1.1,1.1-1.1h4.4c0.6,0,1.1,0.5,1.1,1.1
			C42.4,38.6,41.9,39.1,41.3,39.1z M43.5,30.3c-0.6,0-1.1-0.5-1.1-1.1c0-0.6,0.5-1.1,1.1-1.1h4.4c0.6,0,1.1,0.5,1.1,1.1
			c0,0.6-0.5,1.1-1.1,1.1H43.5z M52.2,65.3h-4.4c-0.6,0-1.1-0.5-1.1-1.1c0-0.6,0.5-1.1,1.1-1.1h4.4c0.6,0,1.1,0.5,1.1,1.1
			C53.3,64.8,52.8,65.3,52.2,65.3z M52.2,60.9h-4.4c-0.6,0-1.1-0.5-1.1-1.1c0-0.6,0.5-1.1,1.1-1.1h4.4c0.6,0,1.1,0.5,1.1,1.1
			C53.3,60.4,52.8,60.9,52.2,60.9z M52.2,56.6h-4.4c-0.6,0-1.1-0.5-1.1-1.1c0-0.6,0.5-1.1,1.1-1.1h4.4c0.6,0,1.1,0.5,1.1,1.1
			C53.3,56.1,52.8,56.6,52.2,56.6z M52.2,52.2h-4.4c-0.6,0-1.1-0.5-1.1-1.1s0.5-1.1,1.1-1.1h4.4c0.6,0,1.1,0.5,1.1,1.1
			S52.8,52.2,52.2,52.2z M52.2,47.8h-4.4c-0.6,0-1.1-0.5-1.1-1.1c0-0.6,0.5-1.1,1.1-1.1h4.4c0.6,0,1.1,0.5,1.1,1.1
			C53.3,47.3,52.8,47.8,52.2,47.8z M52.2,43.4h-4.4c-0.6,0-1.1-0.5-1.1-1.1s0.5-1.1,1.1-1.1h4.4c0.6,0,1.1,0.5,1.1,1.1
			S52.8,43.4,52.2,43.4z M52.2,39.1h-4.4c-0.6,0-1.1-0.5-1.1-1.1c0-0.6,0.5-1.1,1.1-1.1h4.4c0.6,0,1.1,0.5,1.1,1.1
			C53.3,38.6,52.8,39.1,52.2,39.1z M56.6,30.3h-4.4c-0.6,0-1.1-0.5-1.1-1.1c0-0.6,0.5-1.1,1.1-1.1h4.4c0.6,0,1.1,0.5,1.1,1.1
			C57.7,29.8,57.2,30.3,56.6,30.3z M63.2,65.3h-4.4c-0.6,0-1.1-0.5-1.1-1.1c0-0.6,0.5-1.1,1.1-1.1h4.4c0.6,0,1.1,0.5,1.1,1.1
			C64.3,64.8,63.8,65.3,63.2,65.3z M63.2,60.9h-4.4c-0.6,0-1.1-0.5-1.1-1.1c0-0.6,0.5-1.1,1.1-1.1h4.4c0.6,0,1.1,0.5,1.1,1.1
			C64.3,60.4,63.8,60.9,63.2,60.9z M63.2,56.6h-4.4c-0.6,0-1.1-0.5-1.1-1.1c0-0.6,0.5-1.1,1.1-1.1h4.4c0.6,0,1.1,0.5,1.1,1.1
			C64.3,56.1,63.8,56.6,63.2,56.6z M63.2,52.2h-4.4c-0.6,0-1.1-0.5-1.1-1.1s0.5-1.1,1.1-1.1h4.4c0.6,0,1.1,0.5,1.1,1.1
			S63.8,52.2,63.2,52.2z M63.2,47.8h-4.4c-0.6,0-1.1-0.5-1.1-1.1c0-0.6,0.5-1.1,1.1-1.1h4.4c0.6,0,1.1,0.5,1.1,1.1
			C64.3,47.3,63.8,47.8,63.2,47.8z M63.2,43.4h-4.4c-0.6,0-1.1-0.5-1.1-1.1s0.5-1.1,1.1-1.1h4.4c0.6,0,1.1,0.5,1.1,1.1
			S63.8,43.4,63.2,43.4z M63.2,39.1h-4.4c-0.6,0-1.1-0.5-1.1-1.1c0-0.6,0.5-1.1,1.1-1.1h4.4c0.6,0,1.1,0.5,1.1,1.1
			C64.3,38.6,63.8,39.1,63.2,39.1z"/>
		<rect x="47.8" y="69.7" class="st1" width="4.4" height="6.6"/>
	</g>
</g>
</svg>
