<?xml version="1.0" encoding="utf-8"?>
<!-- Generator: Adobe Illustrator 21.0.0, SVG Export Plug-In . SVG Version: 6.00 Build 0)  -->
<svg version="1.1" id="Layer_1" xmlns="http://www.w3.org/2000/svg" xmlns:xlink="http://www.w3.org/1999/xlink" x="0px" y="0px"
	 viewBox="0 0 100 100" style="enable-background:new 0 0 100 100;" xml:space="preserve">
<style type="text/css">
	.st0{fill:#478ECC;}
	.st1{fill:#FFFFFF;}
</style>
<g>
	<circle class="st0" cx="50.7" cy="50.5" r="50"/>
	<g>
		<path class="st1" d="M64,50.8c-0.5,0-1-0.4-1-1c0-0.5,0.4-1,1-1c1,0,1.8-0.8,1.8-1.7s-0.8-1.7-1.8-1.7c-0.5,0-1-0.4-1-1
			c0-0.5,0.4-1,1-1c2.1,0,3.8,1.6,3.8,3.7C67.8,49.2,66.2,50.8,64,50.8z"/>
		<path class="st1" d="M64.1,54.2c-0.5,0-1-0.4-1-1c0-0.5,0.4-1,1-1c3,0,5.3-2.3,5.3-5.2c0-2.9-2.3-5.2-5.3-5.2c-0.5,0-1-0.4-1-1
			c0-0.5,0.4-1,1-1c4.1,0,7.3,3.1,7.3,7.1S68.1,54.2,64.1,54.2z"/>
		<path class="st1" d="M64,57.8c-0.5,0-1-0.4-1-1c0-0.5,0.4-1,1-1c5,0,9-3.8,9-8.7c0-4.9-3.9-8.7-9-8.7c-0.5,0-1-0.4-1-1
			c0-0.5,0.4-1,1-1c6.1,0,10.9,4.7,10.9,10.7C74.9,53.1,70.1,57.8,64,57.8z"/>
		<path class="st1" d="M28.1,47.7c0,4.5,3.7,8.1,7.6,8.7V39C31.8,39.6,28.1,43.2,28.1,47.7z"/>
		<path class="st1" d="M58.6,28c-0.4-0.2-0.8-0.1-1.1,0.2l-10.1,9.2v20.3l10.1,8.4c0.2,0.1,0.4,0.2,0.6,0.2c0.1,0,0.3,0,0.4-0.1
			c0.3-0.2,0.6-0.5,0.6-0.9V28.9C59.2,28.5,59,28.1,58.6,28z"/>
		<g>
			<path class="st1" d="M49.3,68.7l-2.9-10.3h-7.9l3.2,11c0.1,0.4,0.5,0.7,0.9,0.7h5.9c0,0,0,0,0,0c0.5,0,1-0.4,1-1
				C49.5,69,49.4,68.8,49.3,68.7z"/>
			<polygon class="st1" points="45.8,56.5 45.5,55.4 45.5,38.9 41.6,38.9 37.7,38.9 37.7,56.5 37.9,56.5 			"/>
		</g>
	</g>
</g>
</svg>
