<?xml version="1.0" encoding="utf-8"?>
<!-- Generator: Adobe Illustrator 21.0.0, SVG Export Plug-In . SVG Version: 6.00 Build 0)  -->
<svg version="1.1" id="Layer_1" xmlns="http://www.w3.org/2000/svg" xmlns:xlink="http://www.w3.org/1999/xlink" x="0px" y="0px"
	 viewBox="0 0 100 100" style="enable-background:new 0 0 100 100;" xml:space="preserve">
<style type="text/css">
	.st0{fill:#EE4338;}
	.st1{fill:#FFFFFF;}
</style>
<g>
	<circle class="st0" cx="50" cy="50" r="50"/>
	<g>
		<path class="st1" d="M70.7,47.7c-0.8-1.3-2.9-5-3.2-6.4c-1.6-6.8-5.5-10.6-10.8-10.6c-0.9,0-1.7,0.1-2.5,0.4
			c0.6,0.6,1.1,1.2,1.4,1.9c0.9,1.9,1.1,4.1-0.6,6v1.1c0.8,0.9,1.7,1.9,1.7,3.1v3.3c0,1.4-0.8,3-2.7,3.8c-0.3,1.7-1,3.4-1.9,4.9
			c1.4,0.3,2.9,0.5,4.6,0.5c9.8,0,13.2-5.5,14.1-7.1C70.9,48.2,70.9,47.9,70.7,47.7z"/>
		<path class="st1" d="M61.7,59.2L61,56.9c-1.3,0.2-2.7,0.4-4.3,0.4c-2,0-3.7-0.2-5.3-0.6l-0.3,0.8l0.4,0.6h1.2
			c6.2,0,10.7,4.2,10.7,10V69c0,0.3,0,0.8-0.1,0.8h11c0.5,0,0.8-0.4,0.8-0.8v-0.8C75,63.1,66.7,59.5,61.7,59.2z"/>
		<path class="st1" d="M43.3,59c-4.9,0-8.8-5.2-9.1-10.1c-1.7-0.3-2.5-1.4-2.5-2.4v-3.3c0-1,0.8-1.8,1.7-2.2v-2.8c0-3,1-5.8,8.1-5.8
			c2.4-1.7,4.7-2.1,6.2-2.1c3,0,5.5,1.3,6.5,3.4c0.7,1.5,0.1,3.2-0.7,4.8V41c0.8,0.4,1.7,1.1,1.7,2.2v3.3c0,1.1-0.8,2.2-2.5,2.4
			C52.1,53.7,48.2,59,43.3,59z"/>
		<path class="st1" d="M52.6,59.8h-2.1l-1.1-1.6c-1.7,1.5-3.8,2.4-6.2,2.4c-2.3,0-4.4-0.9-6.1-2.4l-1,1.5h-2.1
			c-5.3,0-9.2,3.5-9.2,8.4V69c0,0.5,0.4,0.8,0.8,0.8h35c0.5,0,0.8-0.4,0.8-0.8v-0.8C61.7,63.2,58,59.8,52.6,59.8z"/>
	</g>
</g>
</svg>
