<?xml version="1.0" encoding="utf-8"?>
<!-- Generator: Adobe Illustrator 21.0.0, SVG Export Plug-In . SVG Version: 6.00 Build 0)  -->
<svg version="1.1" id="Layer_1" xmlns="http://www.w3.org/2000/svg" xmlns:xlink="http://www.w3.org/1999/xlink" x="0px" y="0px"
	 viewBox="0 0 100 100" style="enable-background:new 0 0 100 100;" xml:space="preserve">
<style type="text/css">
	.st0{fill:#61C2A6;}
	.st1{fill:#FFFFFF;}
</style>
<circle class="st0" cx="50" cy="49.9" r="50"/>
<g>
	<path class="st1" d="M27.3,33.4l15.1,3.2c0.1,0,0.1,0,0.2,0c0.1,0,0.1,0,0.2,0L55.8,34v6.2l-1.6,7.4c-0.1,0.2,0,0.5,0.2,0.7
		c0.2,0.2,0.4,0.3,0.7,0.3h3.3c0.3,0,0.5-0.1,0.6-0.3c0.2-0.2,0.2-0.4,0.2-0.7l-1.6-7.4v-6.5l0.9-0.2c0.4-0.1,0.7-0.4,0.7-0.8
		c0-0.4-0.3-0.7-0.7-0.8l-15.6-3c-0.1,0-0.2,0-0.3,0l-15.1,3c-0.4,0.1-0.7,0.4-0.7,0.8C26.6,33,26.9,33.4,27.3,33.4z M56.6,44
		l0.6,2.8H56L56.6,44z"/>
	<path class="st1" d="M50,49.2c1.2-0.3,2.5-1.2,2.5-2.4v-3.3c0-0.8,0-2.1-1.7-2.4v-0.8c-2.5,0.6-5.3,0.9-8.3,0.9s-5.8-0.3-8.3-0.9v1
		c-0.8,0.4-1.7,1.1-1.7,2.2v3.3c0,1.2,1.3,2.1,2.5,2.4c0.2,5.1,2.8,10.1,7.4,10.1C47.2,59.3,49.8,54.4,50,49.2z"/>
	<path class="st1" d="M50.8,36.9v-0.3L43,38.2c-0.2,0-0.3,0.1-0.5,0.1c-0.2,0-0.3,0-0.5-0.1l-7.8-1.6v0.3v1.7c5,1.2,11.6,1.2,16.6,0
		V36.9z"/>
	<path class="st1" d="M34.2,56.4l2.4,1.7c-0.7-0.8-1.2-1.7-1.7-2.7L34.2,56.4z"/>
	<path class="st1" d="M39.9,60.5l2.7,1.9l2.7-2c-0.8,0.3-1.7,0.5-2.7,0.5C41.6,61,40.7,60.8,39.9,60.5z"/>
	<path class="st1" d="M62.4,65.1c0-0.1,0-0.1,0-0.2c-0.3-4.6-4.2-8.1-9.2-8.1h0L43,64.1c-0.1,0.1-0.3,0.2-0.5,0.2
		c-0.2,0-0.3-0.1-0.5-0.2l-10.1-7.3h-0.1c-5,0-8.8,3.5-9.1,8.1c0,0.1,0,0.1,0,0.2v0.8c0,0.5,0.4,0.8,0.8,0.8h38.1
		c0.5,0,0.8-0.3,0.8-0.8v-0.2c0-0.1,0-0.2,0-0.2c0-0.1,0-0.2,0-0.2V65.1z"/>
	<path class="st1" d="M50.2,55.5c-0.5,1-1,1.9-1.7,2.7l2.4-1.7L50.2,55.5z"/>
	<path class="st1" d="M59.1,38v1.3c2.5-0.1,5.2-0.5,7.3-1.1c-0.2-0.3-0.7-0.6-0.7-0.8v-0.7L59.1,38z"/>
	<path class="st1" d="M60.6,32.6c0,1-0.7,1.9-1.5,2.3v1.4L70.7,34v6.2l-1.3,5.9c-0.6-1.1-1-2.1-1.2-2.7l-0.1-0.6c-0.2-1-0.5-2-0.9-3
		c-2.2,0.7-5,1.2-7.8,1.3l1.4,6.1c0.2,0.7,0,1.5-0.5,2.1c-0.5,0.6-1.2,0.9-1.9,0.9H55c-0.7,0-1.4-0.3-1.9-0.8
		c-0.4,0.5-1,0.8-1.5,1.1c-0.1,1.1-0.3,2.2-0.7,3.2l1.4,1.8l0.4-0.3h0.5c2.7,0,5.1,0.9,7,2.4c7.6-0.9,10.5-5.4,11.3-6.9
		c0.1-0.3,0.1-0.6,0-0.8c-0.2-0.3-0.4-0.4-0.7-1.3h1.9h0.6c0.3,0,0.5-0.1,0.6-0.3c0.2-0.2,0.2-0.4,0.2-0.7l-1.6-7.4v-6.5l0.9-0.2
		c0.4-0.1,0.7-0.4,0.7-0.8c0-0.4-0.3-0.7-0.7-0.8l-15.6-3c-0.1,0-0.2,0-0.3,0l-2.9,0.6l4.2,0.8C59.8,30.4,60.6,31.4,60.6,32.6z
		 M71.6,45.9L71.6,45.9l0.2-1.8l0.4,2.8h-0.5h-0.8L71.6,45.9z"/>
	<path class="st1" d="M65.4,59.7l-0.8-1.5c-0.9,0.3-1.8,0.5-2.8,0.7c1.3,1.6,2.2,3.6,2.4,5.8c0,0.1,0,0.2,0,0.3c0,0.1,0,0.3,0,0.4
		c0,0.1,0,0.3,0,0.4v0c0,0.3,0,0.8-0.1,0.8h12.6c0.5,0,0.8-0.3,0.8-0.8v-0.8C77.4,59.9,70.2,59.7,65.4,59.7z"/>
</g>
</svg>
