<?xml version="1.0" encoding="utf-8"?>
<!-- Generator: Adobe Illustrator 21.0.0, SVG Export Plug-In . SVG Version: 6.00 Build 0)  -->
<svg version="1.1" id="Layer_1" xmlns="http://www.w3.org/2000/svg" xmlns:xlink="http://www.w3.org/1999/xlink" x="0px" y="0px"
	 viewBox="0 0 100 100" style="enable-background:new 0 0 100 100;" xml:space="preserve">
<style type="text/css">
	.st0{fill:#4554A4;}
	.st1{fill:#FFFFFF;}
</style>
<g>
	<circle class="st0" cx="50.3" cy="50.5" r="50"/>
	<g>
		<path class="st1" d="M73.7,37.4c-9.2-1.2-16.4-0.4-23.3,0.4c-6.9,0.8-14,1.5-23.2,0.4c-0.5-0.1-1.1,0.3-1.1,0.9
			c-0.1,0.6,0.3,1.1,0.9,1.1c9.5,1.2,16.7,0.4,23.7-0.4c6.9-0.8,13.8-1.5,21.9-0.5v24.3c0,0.6,0.5,1,1,1c0.6,0,1-0.5,1-1V38.4
			C74.6,37.9,74.2,37.5,73.7,37.4z"/>
		<path class="st1" d="M77.8,33.4c-9.2-1.2-16.4-0.4-23.3,0.4c-6.9,0.7-14,1.5-23.2,0.4c-0.5-0.1-1.1,0.3-1.1,0.9
			C30,35.5,30.4,36,31,36.1c9.5,1.2,16.7,0.4,23.7-0.4c6.9-0.7,13.8-1.5,21.9-0.5v24.3c0,0.6,0.5,1,1,1c0.6,0,1-0.5,1-1V34.4
			C78.7,33.9,78.3,33.5,77.8,33.4z"/>
		<path class="st1" d="M69.7,41c-3.4-0.4-6.8-0.7-10.2-0.7c-4.7,0-9,0.4-13.2,0.8c-4.1,0.4-8.4,0.8-13.1,0.8c-3.4,0-6.7-0.2-10-0.6
			c-0.3,0-0.6,0.1-0.8,0.2C22.1,41.7,22,42,22,42.3v24.3c0,0.5,0.4,0.9,0.9,1c3.4,0.4,6.8,0.7,10.3,0.7c4.7,0,9.1-0.4,13.2-0.8
			c4.1-0.4,8.4-0.8,13.1-0.8c3.4,0,6.7,0.2,10,0.6c0.3,0,0.6-0.1,0.8-0.2c0.2-0.2,0.3-0.5,0.3-0.8V42C70.6,41.5,70.2,41.1,69.7,41z
			 M33.2,64.2c-2.1,0-4.1-0.1-6.3-0.3c-0.6,0-1-0.5-0.9-1.1c0-0.6,0.5-1,1.1-0.9c2.1,0.2,4.1,0.2,6.1,0.2c0.6,0,1,0.5,1,1
			C34.2,63.7,33.8,64.2,33.2,64.2z M46.3,58.6v0.9h0c0,0-0.1,0.5-0.3,0.7c-0.2,0.2-0.4,0.3-0.7,0.3c-0.3,0-0.5-0.1-0.7-0.3
			c-0.2-0.2-0.3-0.4-0.3-0.7c0-0.1,0-0.1,0-0.2v-0.7c-1-0.4-2.3-1.4-2.3-2.8c0-0.6,0.5-1,1-1c0.6,0,1,0.5,1,1c0,0.8,0.8,0.9,1.3,0.9
			c0.5,0,1.3-0.1,1.3-0.9c0-0.5,0-0.5-1.4-1.2l-0.7-0.4c-1.3-0.7-2.5-1.2-2.5-3c0-1.4,1.2-2.5,2.3-2.8v-0.7c0-0.1,0-0.1,0-0.2
			c0-0.3,0.1-0.5,0.3-0.7c0.4-0.4,1.1-0.4,1.4,0c0.2,0.2,0.3,0.7,0.3,0.7h0v0.9c1,0.3,2.3,1.4,2.3,2.8c0,0.6-0.4,1-1,1
			c-0.6,0-1-0.5-1-1c0-0.8-0.7-0.9-1.3-0.9c-0.5,0-1.3,0.1-1.3,0.9c0,0.5,0,0.5,1.4,1.2l0.7,0.4c1.3,0.7,2.5,1.2,2.5,3
			C48.6,57.2,47.3,58.3,46.3,58.6z M65.5,46.7C65.5,46.7,65.4,46.7,65.5,46.7c-2.1-0.2-4.1-0.2-6.2-0.2c-0.6,0-1-0.5-1-1
			c0-0.6,0.5-1,1-1c2.1,0,4.2,0.1,6.3,0.3c0.6,0,1,0.5,0.9,1.1C66.5,46.3,66,46.7,65.5,46.7z"/>
	</g>
</g>
</svg>
