<?xml version="1.0" encoding="utf-8"?>
<!-- Generator: Adobe Illustrator 21.0.0, SVG Export Plug-In . SVG Version: 6.00 Build 0)  -->
<svg version="1.1" id="Layer_1" xmlns="http://www.w3.org/2000/svg" xmlns:xlink="http://www.w3.org/1999/xlink" x="0px" y="0px"
	 viewBox="0 0 100 100" style="enable-background:new 0 0 100 100;" xml:space="preserve">
<style type="text/css">
	.st0{fill:#37A4DC;}
	.st1{fill:#FFFFFF;}
</style>
<g>
	<circle class="st0" cx="50" cy="50" r="50"/>
	<g>
		<path class="st1" d="M65.8,68.3H37.5c-0.5,0-0.8,0.4-0.8,0.8c0,0.5,0.4,0.8,0.8,0.8h28.3c0.5,0,0.8-0.4,0.8-0.8
			C66.7,68.6,66.3,68.3,65.8,68.3z"/>
		<path class="st1" d="M38.3,65.8c0,0.5,0.4,0.8,0.8,0.8h25c0.5,0,0.8-0.4,0.8-0.8c0-0.5-0.4-0.8-0.8-0.8h-25
			C38.7,64.9,38.3,65.3,38.3,65.8z"/>
		<path class="st1" d="M38.1,51.1l13.8-4.5c0.4-0.1,0.9,0.1,1.1,0.5c0.1,0.4-0.1,0.9-0.5,1l-3.6,1.2c-0.6,1.7-1.7,2.5-3.1,3.5
			c-2.2,1.5-4.6,2.9-4.8,8.8h-0.1c-0.5,0-0.8,0.4-0.8,0.8s0.4,0.8,0.8,0.8h21.7c0.1,0,0.1,0,0.2,0c0.1,0,0.2,0,0.2,0
			c0.2,0,0.4-0.1,0.6-0.3c0.3-0.3,0.3-0.9,0-1.2l-1.6-1.6l1.6-1.6c0.2-0.2,0.3-0.4,0.3-0.6c0-0.2-0.1-0.4-0.3-0.6L61.9,56l1.6-1.6
			c0.2-0.2,0.3-0.4,0.2-0.6c0-0.2-0.1-0.4-0.3-0.6l-1.7-1.5l1.6-1.6c0.2-0.2,0.2-0.4,0.2-0.6c0-0.2-0.1-0.4-0.3-0.6l-1.7-1.5
			l1.5-1.7c0.2-0.2,0.2-0.4,0.2-0.6c0-0.2-0.1-0.4-0.3-0.6l-1.8-1.4l1.4-1.8c0.1-0.2,0.2-0.4,0.2-0.7c0-0.2-0.2-0.4-0.4-0.6l-2-1.2
			l1-2.2c0.1-0.2,0.1-0.5,0-0.8c-0.1-0.2-0.4-0.4-0.6-0.4l-2.6-0.2l-2-3.1c-0.2-0.4-0.7-0.5-1.1-0.3L52,33.5l-4.3-3.3
			c-0.2-0.2-0.6-0.2-0.8-0.1c-0.3,0.1-0.5,0.4-0.5,0.7L46,35.4l-11.7,9c-1.1,0.8-1.3,2.4-0.5,3.5l1.4,1.9c0.6,0.8,1.6,1.3,2.6,1.3
			C37.9,51.2,38,51.1,38.1,51.1z"/>
	</g>
</g>
</svg>
