<?xml version="1.0" encoding="utf-8"?>
<!-- Generator: Adobe Illustrator 21.0.0, SVG Export Plug-In . SVG Version: 6.00 Build 0)  -->
<svg version="1.1" id="Layer_1" xmlns="http://www.w3.org/2000/svg" xmlns:xlink="http://www.w3.org/1999/xlink" x="0px" y="0px"
	 viewBox="0 0 32 32" style="enable-background:new 0 0 32 32;" xml:space="preserve">
<style type="text/css">
	.st0{fill:#0078B5;}
	.st1{fill-rule:evenodd;clip-rule:evenodd;fill:#FFFFFF;}
</style>
<g>
	<g id="Shape_66_">
		<g>
			<circle class="st0" cx="16" cy="16" r="16"/>
		</g>
	</g>
	<g id="Linked_IN_logo">
		<g>
			<path class="st1" d="M9,22h3V12H9V22z M20.7,11.7c-1.5,0-2.8,0.5-3.7,1.7V12h-3v10h3v-5.4c0-1.1,1-2.3,2.4-2.3
				c1.3,0,1.6,1.1,1.6,2.2V22h3v-5.7C24,12.4,22.1,11.7,20.7,11.7z M10.5,11c0.8,0,1.5-0.7,1.5-1.5C12,8.7,11.3,8,10.5,8
				C9.7,8,9,8.7,9,9.5C9,10.3,9.7,11,10.5,11z"/>
		</g>
	</g>
</g>
</svg>
