<?xml version="1.0" encoding="utf-8"?>
<!-- Generator: Adobe Illustrator 21.0.0, SVG Export Plug-In . SVG Version: 6.00 Build 0)  -->
<svg version="1.1" id="Layer_1" xmlns="http://www.w3.org/2000/svg" xmlns:xlink="http://www.w3.org/1999/xlink" x="0px" y="0px"
	 viewBox="0 0 32 32" style="enable-background:new 0 0 32 32;" xml:space="preserve">
<style type="text/css">
	.st0{fill:#4B9FD7;}
	.st1{fill:#FFFFFF;}
</style>
<g>
	<g id="Shape_7_">
		<g>
			<circle class="st0" cx="16" cy="16" r="16"/>
		</g>
	</g>
	<g id="Twitter_Logo_2_">
		<g>
			<path class="st1" d="M23,12.3c-0.5,0.2-1.1,0.4-1.7,0.4c0.6-0.3,1-0.9,1.3-1.5c-0.6,0.3-1.2,0.5-1.8,0.7
				c-0.5-0.5-1.3-0.9-2.1-0.9c-1.6,0-2.9,1.2-2.9,2.8c0,0.2,0,0.4,0.1,0.6c-2.4-0.1-4.5-1.2-5.9-2.9c-0.2,0.4-0.4,0.9-0.4,1.4
				c0,1,0.5,1.8,1.3,2.3c-0.5,0-0.9-0.1-1.3-0.3c0,0,0,0,0,0c0,1.3,1,2.5,2.3,2.7c-0.2,0.1-0.5,0.1-0.8,0.1c-0.2,0-0.4,0-0.5,0
				c0.4,1.1,1.4,1.9,2.7,1.9c-1,0.7-2.2,1.2-3.6,1.2c-0.2,0-0.5,0-0.7,0c1.3,0.8,2.8,1.2,4.4,1.2c5.3,0,8.2-4.2,8.2-7.9
				c0-0.1,0-0.2,0-0.4C22.1,13.3,22.6,12.9,23,12.3z"/>
		</g>
	</g>
</g>
</svg>
