<?xml version="1.0" encoding="utf-8"?>
<!-- Generator: Adobe Illustrator 21.0.0, SVG Export Plug-In . SVG Version: 6.00 Build 0)  -->
<svg version="1.1" id="Layer_1" xmlns="http://www.w3.org/2000/svg" xmlns:xlink="http://www.w3.org/1999/xlink" x="0px" y="0px"
	 viewBox="0 0 32 32" style="enable-background:new 0 0 32 32;" xml:space="preserve">
<style type="text/css">
	.st0{fill:#05BBD3;}
	.st1{fill:#FFFFFF;}
</style>
<g>
	<g id="Shape_11_">
		<g>
			<circle class="st0" cx="16.1" cy="15.7" r="16"/>
		</g>
	</g>
	<g>
		<path class="st1" d="M16.1,16l9-4.2V10c0-0.2-0.2-0.4-0.4-0.4H7.5c-0.2,0-0.4,0.2-0.4,0.4v1.8L16.1,16z"/>
		<path class="st1" d="M16.2,16.7c-0.1,0-0.1,0-0.2,0h0l0,0c-0.1,0-0.1,0-0.2,0l-8.9-4.1v8.6c0,0.2,0.2,0.4,0.4,0.4h17.3
			c0.2,0,0.4-0.2,0.4-0.4v-8.6L16.2,16.7z"/>
	</g>
</g>
</svg>
