<?xml version="1.0" encoding="utf-8"?>
<!-- Generator: Adobe Illustrator 21.0.0, SVG Export Plug-In . SVG Version: 6.00 Build 0)  -->
<svg version="1.1" id="Layer_1" xmlns="http://www.w3.org/2000/svg" xmlns:xlink="http://www.w3.org/1999/xlink" x="0px" y="0px"
	 viewBox="0 0 120 120" style="enable-background:new 0 0 120 120;" xml:space="preserve">
<style type="text/css">
	.st0{fill:#69C9D0;}
	.st1{fill:#FFFFFF;}
</style>
<g>
	<g id="bg_86_">
		<g>
			<circle class="st0" cx="60" cy="60" r="60"/>
		</g>
	</g>
	<g>
		<path class="st1" d="M89.8,51.6c-1.1-1.9-4.2-7.3-4.7-9.3c-2.3-9.7-8-15.3-15.6-15.3c-1.3,0-2.5,0.2-3.6,0.5
			c0.9,0.8,1.5,1.7,2,2.8c1.3,2.8,1.6,5.9-0.8,8.7v1.6c1.2,1.2,2.4,2.8,2.4,4.4v4.8c0,2.1-1.2,4.4-3.9,5.4c-0.4,2.5-1.4,4.9-2.8,7.1
			c2,0.4,4.2,0.7,6.7,0.7c14.1,0,19.1-7.9,20.3-10.3C90.1,52.4,90.1,51.9,89.8,51.6z"/>
		<path class="st1" d="M76.8,68.1l-1-3.3c-1.9,0.3-3.9,0.6-6.2,0.6c-2.9,0-5.4-0.3-7.6-0.8l-0.5,1.2l0.6,0.8h1.7
			c8.9,0,15.4,6.1,15.4,14.4v1.2c0,0.4-0.1,1.2-0.2,1.2h15.8c0.7,0,1.2-0.5,1.2-1.2V81C96,73.7,84,68.5,76.8,68.1z"/>
		<path class="st1" d="M50.4,67.8c-7,0-12.6-7.5-13.2-14.5c-2.5-0.4-3.7-2-3.7-3.5V45c0-1.5,1.2-2.6,2.4-3.1v-4.1
			c0-4.3,1.4-8.3,11.6-8.4c3.4-2.5,6.7-3,8.9-3c4.3,0,7.9,1.9,9.3,4.9c1,2.2,0.2,4.7-1,6.9v3.6c1.2,0.5,2.4,1.6,2.4,3.1v4.8
			c0,1.6-1.1,3.1-3.6,3.5C63,60.3,57.5,67.8,50.4,67.8z"/>
		<path class="st1" d="M63.8,69h-3l-1.6-2.3c-2.5,2.1-5.5,3.5-8.9,3.5c-3.3,0-6.3-1.3-8.8-3.4L40.2,69h-3C29.6,69,24,74.1,24,81v1.2
			c0,0.7,0.6,1.2,1.2,1.2h50.4c0.7,0,1.2-0.5,1.2-1.2V81C76.8,73.9,71.5,69,63.8,69z"/>
	</g>
</g>
</svg>
