<?xml version="1.0" encoding="utf-8"?>
<!-- Generator: Adobe Illustrator 21.0.0, SVG Export Plug-In . SVG Version: 6.00 Build 0)  -->
<svg version="1.1" id="Layer_1" xmlns="http://www.w3.org/2000/svg" xmlns:xlink="http://www.w3.org/1999/xlink" x="0px" y="0px"
	 viewBox="0 0 122.3 52.8" style="enable-background:new 0 0 122.3 52.8;" xml:space="preserve">
<style type="text/css">
	.st0{fill:#65499C;}
</style>
<g>
	<g>
		<path class="st0" d="M49.4,18.7h-4.6v-4.3h13.9v4.3h-4.6V33h-4.8V18.7z"/>
		<path class="st0" d="M60.2,14.4h5l2.6,10.7l2.9-10.8h4.1l2.9,10.8l2.6-10.7h4.9l-5.2,18.7h-4.4l-3-10.3l-3,10.3h-4.4L60.2,14.4z"
			/>
		<path class="st0" d="M86.6,14.4h4.8V33h-4.8V14.4z"/>
		<path class="st0" d="M93.3,30.5l2.5-3.5c1.5,1.2,3.2,2.1,5,2.1c1.3,0,1.9-0.6,1.9-1.4v0c0-0.7-0.6-1.2-2.7-2c-3.5-1.2-6-2.5-6-5.8
			v-0.1c0-3.4,2.6-5.7,6.6-5.7c2.5,0,4.7,0.7,6.6,2.3l-2.4,3.6c-1.3-1-2.8-1.7-4.3-1.7c-1.1,0-1.7,0.5-1.7,1.2v0
			c0,0.8,0.6,1.2,2.9,2.1c3.5,1.1,5.7,2.6,5.7,5.7v0.1c0,3.6-2.8,5.8-6.8,5.8C98.1,33.2,95.4,32.4,93.3,30.5z"/>
		<path class="st0" d="M112.9,18.7h-4.6v-4.3h13.9v4.3h-4.6V33h-4.8V18.7z"/>
		<path class="st0" d="M44.4,38.8l-11.2,12c-1.4,1.3-3.1,2-5,2H12.1c-0.9,0-1.5-0.3-2-1c-0.4-0.6-0.6-1.3-0.6-2.2c0,0,0-1.4,0-4.4
			c-0.7-0.5-1.6-1.1-2.8-1.9c-2.9-2-4.7-3.4-5.7-4.5c-0.8-0.9-1.2-2.1-1.1-3.6c0.1-0.4,1.6-4.9,4.5-13.3c0.6-1.8,1.9-2.8,3.8-2.9
			h1.3v-7.3c0-4.3,1.4-7.4,4.2-9.4C15.6,1,18,0.2,20.8,0H23v19h12.3l-2.8,8.3c-0.7,2.1-1.6,3.6-2.5,4.4c-0.8,0.8-2,1.2-3.5,1.2H23
			v8.4c1.4-1.6,3.3-2.4,5.5-2.4H44.4z M9.5,32.8H4.1c-1.5,0-2.3,0.6-2.6,1.9c-0.2,1-0.1,1.9,0.3,2.7c0.5,0.9,3.1,3,7.7,6.2V32.8z
			 M2.5,31.6c0.2,0,8.2-0.1,24-0.1c1.1,0,1.9-0.2,2.5-0.7c0.8-0.7,1.5-2,2.2-4l2.2-6.5H8.3c-1.3,0.1-2.2,0.7-2.6,2L2.5,31.6z
			 M41.4,40.1h-13c-1.6,0-2.9,0.5-4.1,1.6c-5.2,5.9-8.3,9.2-9.1,9.8h12.9c1.6,0,2.9-0.5,4.1-1.6L41.4,40.1z"/>
	</g>
</g>
</svg>
