<?xml version="1.0" encoding="utf-8"?>
<!-- Generator: Adobe Illustrator 21.0.0, SVG Export Plug-In . SVG Version: 6.00 Build 0)  -->
<svg version="1.1" id="Layer_1" xmlns="http://www.w3.org/2000/svg" xmlns:xlink="http://www.w3.org/1999/xlink" x="0px" y="0px"
	 viewBox="0 0 29.3 24.4" style="enable-background:new 0 0 29.3 24.4;" xml:space="preserve">
<style type="text/css">
	.st0{fill:#27A7DF;}
</style>
<g id="Icons_1_">
	<g id="Color-_1_" transform="translate(-300.000000, -164.000000)">
		<path id="Twitter_1_" class="st0" d="M329.3,166.9c-1.1,0.5-2.2,0.8-3.5,1c1.2-0.8,2.2-2,2.6-3.4c-1.2,0.7-2.4,1.2-3.8,1.5
			c-1.1-1.2-2.7-1.9-4.4-1.9c-3.3,0-6,2.8-6,6.2c0,0.5,0.1,1,0.2,1.4c-5-0.3-9.4-2.7-12.4-6.4c-0.5,0.9-0.8,2-0.8,3.1
			c0,2.1,1.1,4,2.7,5.1c-1,0-1.9-0.3-2.7-0.8v0.1c0,3,2.1,5.5,4.8,6c-0.5,0.1-1,0.2-1.6,0.2c-0.4,0-0.8,0-1.1-0.1
			c0.8,2.4,3,4.2,5.6,4.3c-2.1,1.7-4.7,2.6-7.5,2.6c-0.5,0-1,0-1.4-0.1c2.7,1.7,5.8,2.8,9.2,2.8c11.1,0,17.1-9.4,17.1-17.5
			c0-0.3,0-0.5,0-0.8C327.5,169.2,328.5,168.1,329.3,166.9"/>
	</g>
</g>
</svg>
